<svg width="362" height="116" viewBox="0 0 362 116" fill="none" xmlns="http://www.w3.org/2000/svg">
<mask id="mask0_2001_3" style="mask-type:luminance" maskUnits="userSpaceOnUse" x="0" y="0" width="362" height="116">
<path d="M0.333344 115.057H361.968V0.459961H0.333344V115.057Z" fill="white"/>
</mask>
<g mask="url(#mask0_2001_3)">
<path d="M147.247 28.1523C147.247 31.9723 147.247 34.9573 147.446 36.6283C147.565 37.7823 147.804 38.6583 148.998 38.8183C149.555 38.8973 150.431 38.9763 150.988 38.9763C151.505 38.9763 151.665 39.0953 151.665 39.2953C151.665 39.5733 151.386 39.6933 150.789 39.6933C148.282 39.6933 145.775 39.5733 144.74 39.5733C143.705 39.5733 141.198 39.6933 139.686 39.6933C139.129 39.6933 138.85 39.6133 138.85 39.2953C138.85 39.0953 139.009 38.9763 139.447 38.9763C140.044 38.9763 140.521 38.8973 140.88 38.8183C141.676 38.6583 141.875 37.7823 142.034 36.6283C142.233 34.9573 142.233 31.9723 142.233 28.1523V21.1483C142.233 15.0993 142.233 13.9853 142.153 12.7113C142.073 11.3583 141.756 10.7213 140.442 10.4433C140.124 10.3633 139.447 10.3233 138.89 10.3233C138.492 10.3233 138.213 10.2433 138.213 10.0053C138.213 9.68731 138.532 9.60731 139.129 9.60731C141.198 9.60731 143.705 9.72731 144.859 9.72731C146.372 9.72731 154.45 9.72731 155.365 9.68731C156.121 9.64731 156.599 9.64731 156.997 9.52731C157.236 9.44831 157.435 9.28931 157.634 9.28931C157.793 9.28931 157.913 9.44831 157.913 9.64731C157.913 9.92531 157.713 10.4033 157.594 11.4383C157.554 11.8363 157.474 14.1833 157.395 14.6613C157.355 14.9793 157.276 15.2183 156.997 15.2183C156.718 15.2183 156.639 15.0193 156.599 14.5823C156.599 14.2633 156.599 13.6273 156.36 13.0693C156.082 12.5123 155.246 11.9153 153.734 11.8753L147.605 11.7563C147.366 11.7563 147.247 11.8753 147.247 12.3133V22.2623C147.247 22.5013 147.287 22.6203 147.526 22.6203L152.62 22.5803C153.296 22.5803 153.853 22.5803 154.41 22.5413C155.166 22.5013 155.724 22.3413 156.121 21.8243C156.321 21.5863 156.4 21.4263 156.639 21.4263C156.798 21.4263 156.877 21.5463 156.877 21.7853C156.877 22.0233 156.679 23.0183 156.56 24.2523C156.48 25.0483 156.4 26.8793 156.4 27.1573C156.4 27.5153 156.4 27.9133 156.002 27.9133C155.763 27.9133 155.684 27.6343 155.684 27.3563C155.684 27.0773 155.604 26.6003 155.445 26.1223C155.246 25.5653 154.649 24.8493 153.415 24.6903C152.421 24.5703 148.202 24.5703 147.526 24.5703C147.327 24.5703 147.247 24.6503 147.247 24.9283V28.1523Z" fill="#FBC449"/>
</g>
<mask id="mask1_2001_3" style="mask-type:luminance" maskUnits="userSpaceOnUse" x="0" y="0" width="362" height="116">
<path d="M0.333344 115.057H361.968V0.459961H0.333344V115.057Z" fill="white"/>
</mask>
<g mask="url(#mask1_2001_3)">
<path d="M179.301 27.7803C179.301 20.3593 175.455 15.7553 170.565 15.7553C167.137 15.7553 163.231 17.8753 163.231 26.1243C163.231 33.0143 166.66 38.4803 172.384 38.4803C174.471 38.4803 179.301 37.3543 179.301 27.7803ZM159.116 27.1503C159.116 21.4863 162.485 14.1643 171.43 14.1643C178.854 14.1643 183.475 18.9673 183.475 26.5543C183.475 34.1403 178.705 40.1363 171.132 40.1363C162.575 40.1363 159.116 33.0143 159.116 27.1503Z" fill="#FBC449"/>
</g>
<mask id="mask2_2001_3" style="mask-type:luminance" maskUnits="userSpaceOnUse" x="0" y="0" width="362" height="116">
<path d="M0.333344 115.057H361.968V0.459961H0.333344V115.057Z" fill="white"/>
</mask>
<g mask="url(#mask2_2001_3)">
<path d="M196.809 25.8257C197.763 27.4487 202.593 36.4267 203.338 37.4867C203.845 38.2157 204.292 38.6127 205.068 38.8777C205.574 39.0437 205.932 39.0767 206.2 39.0767C206.409 39.0767 206.588 39.1427 206.588 39.3417C206.588 39.5737 206.35 39.6737 206.022 39.6737H205.127C204.412 39.6737 202.056 39.6737 199.76 39.6067C198.986 39.5737 198.747 39.5077 198.747 39.2757C198.747 39.0767 198.896 38.9767 199.164 38.9107C199.314 38.8777 199.432 38.5787 199.223 38.1487C197.584 34.9027 195.885 31.6227 194.513 29.1387L190.101 37.0557C189.803 37.5857 189.653 38.0827 189.683 38.4477C189.713 38.7457 189.981 38.9447 190.249 39.0107C190.428 39.0437 190.696 39.0767 190.935 39.0767C191.114 39.0767 191.294 39.1757 191.294 39.3747C191.294 39.6067 191.085 39.6737 190.696 39.6737H190.16C189.981 39.6737 188.103 39.5737 187.357 39.5737C186.791 39.5737 185.33 39.6737 184.853 39.6737H184.346C184.048 39.6737 183.899 39.5737 183.899 39.3747C183.899 39.1757 184.078 39.0767 184.316 39.0767C184.525 39.0767 184.972 39.0437 185.419 38.9107C186.284 38.6457 186.851 38.0167 187.864 36.4267L193.559 27.3827L188.431 17.9417C187.715 16.6167 187 15.8217 185.956 15.4567C185.479 15.2907 185.002 15.2247 184.704 15.2247C184.525 15.2247 184.405 15.1247 184.405 14.8937C184.405 14.6947 184.614 14.6287 185.002 14.6287C185.718 14.6287 188.133 14.7277 189.534 14.7277C189.951 14.7277 191.621 14.6287 192.724 14.6287C193.142 14.6287 193.321 14.6947 193.321 14.9267C193.321 15.1587 193.142 15.2247 192.874 15.2247C192.694 15.2247 192.307 15.2577 192.068 15.3577C191.8 15.4567 191.711 15.6887 191.711 15.8877C191.711 16.0857 191.83 16.4837 192.009 16.8477C193.291 19.4977 194.632 21.9167 195.795 24.1697C196.66 22.7117 199.403 18.1067 199.85 17.1797C200.089 16.7157 200.178 16.1857 200.178 15.9207C200.178 15.6887 199.969 15.4237 199.671 15.3237C199.373 15.2247 198.955 15.2247 198.717 15.2247C198.538 15.2247 198.36 15.1587 198.36 14.9267C198.36 14.7277 198.568 14.6287 198.986 14.6287C200.148 14.6287 201.4 14.7277 201.967 14.7277C202.563 14.7277 203.785 14.6287 204.888 14.6287C205.216 14.6287 205.425 14.7277 205.425 14.9267C205.425 15.1247 205.246 15.2247 204.948 15.2247C204.65 15.2247 204.292 15.2907 203.875 15.4237C203.189 15.6217 202.593 16.5497 201.698 18.0077L196.809 25.8257Z" fill="#FBC449"/>
</g>
<mask id="mask3_2001_3" style="mask-type:luminance" maskUnits="userSpaceOnUse" x="0" y="0" width="362" height="116">
<path d="M0.333344 115.057H361.968V0.459961H0.333344V115.057Z" fill="white"/>
</mask>
<g mask="url(#mask3_2001_3)">
<path d="M211.238 24.2354C211.238 19.2004 211.238 18.2724 211.179 17.2124C211.119 16.0864 210.88 15.5564 209.897 15.3244C209.658 15.2574 209.151 15.2244 208.733 15.2244C208.406 15.2244 208.226 15.1584 208.226 14.9264C208.226 14.6944 208.435 14.6284 208.883 14.6284C210.463 14.6284 212.341 14.7274 213.176 14.7274C214.13 14.7274 220.063 14.7274 220.629 14.6944C221.196 14.6284 221.673 14.5624 221.912 14.4964C222.061 14.4634 222.24 14.3634 222.389 14.3634C222.538 14.3634 222.568 14.4964 222.568 14.6614C222.568 14.8934 222.418 15.2914 222.329 16.8144C222.3 17.1464 222.24 18.6044 222.181 19.0014C222.15 19.1674 222.091 19.3654 221.882 19.3654C221.673 19.3654 221.614 19.2004 221.614 18.9024C221.614 18.6704 221.583 18.1064 221.435 17.7094C221.226 17.1124 220.928 16.7154 219.437 16.5174C218.93 16.4504 215.799 16.3844 215.204 16.3844C215.054 16.3844 214.995 16.4834 214.995 16.7154V25.0974C214.995 25.3284 215.025 25.4614 215.204 25.4614C215.859 25.4614 219.288 25.4614 219.974 25.3944C220.69 25.3284 221.136 25.2294 221.405 24.8984C221.614 24.6324 221.733 24.4674 221.882 24.4674C222.001 24.4674 222.091 24.5334 222.091 24.7324C222.091 24.9314 221.942 25.4614 221.853 27.1504C221.792 27.8134 221.733 29.1384 221.733 29.3704C221.733 29.6344 221.733 30.0004 221.464 30.0004C221.256 30.0004 221.196 29.8674 221.196 29.7014C221.167 29.3704 221.167 28.9394 221.077 28.5084C220.928 27.8464 220.51 27.3494 219.407 27.2174C218.841 27.1504 215.89 27.1174 215.174 27.1174C215.025 27.1174 214.995 27.2504 214.995 27.4484V30.0664C214.995 31.1924 214.965 34.2404 214.995 35.2004C215.054 37.4864 215.531 37.9834 218.573 37.9834C219.348 37.9834 220.6 37.9834 221.375 37.5854C222.15 37.1884 222.508 36.4924 222.717 35.1344C222.776 34.7704 222.836 34.6374 223.045 34.6374C223.283 34.6374 223.283 34.9024 223.283 35.2344C223.283 35.9964 223.045 38.2484 222.896 38.9114C222.687 39.7724 222.418 39.7724 221.286 39.7724C216.784 39.7724 214.786 39.5734 213.027 39.5734C212.341 39.5734 210.463 39.6734 209.27 39.6734C208.883 39.6734 208.674 39.5734 208.674 39.3414C208.674 39.1754 208.793 39.0764 209.151 39.0764C209.598 39.0764 209.956 39.0104 210.224 38.9444C210.821 38.8114 210.97 38.0834 211.089 37.1224C211.238 35.7304 211.238 33.1134 211.238 30.0664V24.2354Z" fill="#FBC449"/>
</g>
<mask id="mask4_2001_3" style="mask-type:luminance" maskUnits="userSpaceOnUse" x="0" y="0" width="362" height="116">
<path d="M0.333344 115.057H361.968V0.459961H0.333344V115.057Z" fill="white"/>
</mask>
<g mask="url(#mask4_2001_3)">
<path d="M229.037 39.2754C228.56 39.0434 228.471 38.8784 228.471 38.1494C228.471 36.3274 228.59 34.3384 228.62 33.8094C228.65 33.3124 228.739 32.9484 228.978 32.9484C229.246 32.9484 229.276 33.2464 229.276 33.5104C229.276 33.9424 229.395 34.6374 229.544 35.2004C230.2 37.6524 231.959 38.5464 233.807 38.5464C236.491 38.5464 237.803 36.5254 237.803 34.7704C237.803 33.1464 237.355 31.5894 234.881 29.4694L233.509 28.2764C230.23 25.4274 229.096 23.1084 229.096 20.4254C229.096 16.7814 231.84 14.1644 235.984 14.1644C237.922 14.1644 239.174 14.4954 239.949 14.7274C240.217 14.7944 240.367 14.8934 240.367 15.1254C240.367 15.5564 240.248 16.5174 240.248 19.1014C240.248 19.8294 240.158 20.0944 239.92 20.0944C239.711 20.0944 239.621 19.8964 239.621 19.4984C239.621 19.1994 239.472 18.1734 238.846 17.3124C238.399 16.6824 237.535 15.6894 235.597 15.6894C233.39 15.6894 232.048 17.1124 232.048 19.1014C232.048 20.6244 232.734 21.7844 235.209 23.8714L236.043 24.5664C239.621 27.6474 240.934 29.8674 240.934 33.0144C240.934 34.9354 240.277 37.2214 238.131 38.7784C236.64 39.8384 234.97 40.1364 233.39 40.1364C231.661 40.1364 230.319 39.9044 229.037 39.2754Z" fill="#FBC449"/>
</g>
<mask id="mask5_2001_3" style="mask-type:luminance" maskUnits="userSpaceOnUse" x="0" y="0" width="362" height="116">
<path d="M0.333344 115.057H361.968V0.459961H0.333344V115.057Z" fill="white"/>
</mask>
<g mask="url(#mask5_2001_3)">
<path d="M258.077 14.7612C258.167 14.1982 258.345 13.8992 258.584 13.8992C258.822 13.8992 259.001 14.0652 259.389 14.9272L267.528 33.6102L275.638 14.6942C275.847 14.1642 276.026 13.8992 276.294 13.8992C276.562 13.8992 276.741 14.2312 276.831 14.9272L279.543 35.3992C279.812 37.4862 280.11 38.4472 281.005 38.7452C281.87 39.0432 282.465 39.0762 282.853 39.0762C283.122 39.0762 283.331 39.1102 283.331 39.3082C283.331 39.5732 282.972 39.6732 282.555 39.6732C281.81 39.6732 277.695 39.5732 276.503 39.4742C275.817 39.4082 275.638 39.3082 275.638 39.1102C275.638 38.9442 275.758 38.8442 275.966 38.7452C276.145 38.6782 276.234 38.2482 276.115 37.3212L274.326 22.7442H274.207L267.707 37.7842C267.021 39.3412 266.873 39.6392 266.604 39.6392C266.336 39.6392 266.038 38.9772 265.56 37.9832C264.845 36.4592 262.49 31.3902 262.132 30.4632C261.863 29.7672 260.075 25.5932 259.031 23.1092H258.912L257.362 36.2932C257.301 36.8902 257.272 37.3212 257.272 37.8502C257.272 38.4802 257.66 38.7782 258.167 38.9112C258.703 39.0432 259.121 39.0762 259.418 39.0762C259.657 39.0762 259.866 39.1422 259.866 39.3082C259.866 39.6062 259.598 39.6732 259.15 39.6732C257.899 39.6732 256.556 39.5732 256.02 39.5732C255.454 39.5732 254.022 39.6732 253.068 39.6732C252.77 39.6732 252.531 39.6062 252.531 39.3082C252.531 39.1422 252.71 39.0762 253.008 39.0762C253.247 39.0762 253.456 39.0762 253.903 38.9772C254.738 38.7782 254.977 37.4862 255.125 36.3602L258.077 14.7612Z" fill="#FBC449"/>
</g>
<mask id="mask6_2001_3" style="mask-type:luminance" maskUnits="userSpaceOnUse" x="0" y="0" width="362" height="116">
<path d="M0.333344 115.057H361.968V0.459961H0.333344V115.057Z" fill="white"/>
</mask>
<g mask="url(#mask6_2001_3)">
<path d="M303.667 27.7803C303.667 20.3593 299.821 15.7553 294.931 15.7553C291.502 15.7553 287.597 17.8753 287.597 26.1243C287.597 33.0143 291.025 38.4803 296.75 38.4803C298.837 38.4803 303.667 37.3543 303.667 27.7803ZM283.482 27.1503C283.482 21.4863 286.851 14.1643 295.796 14.1643C303.219 14.1643 307.841 18.9673 307.841 26.5543C307.841 34.1403 303.071 40.1363 295.498 40.1363C286.94 40.1363 283.482 33.0143 283.482 27.1503Z" fill="#FBC449"/>
</g>
<mask id="mask7_2001_3" style="mask-type:luminance" maskUnits="userSpaceOnUse" x="0" y="0" width="362" height="116">
<path d="M0.333344 115.057H361.968V0.459961H0.333344V115.057Z" fill="white"/>
</mask>
<g mask="url(#mask7_2001_3)">
<path d="M330.112 27.7803C330.112 20.3593 326.266 15.7553 321.376 15.7553C317.947 15.7553 314.042 17.8753 314.042 26.1243C314.042 33.0143 317.47 38.4803 323.195 38.4803C325.282 38.4803 330.112 37.3543 330.112 27.7803ZM309.927 27.1503C309.927 21.4863 313.296 14.1643 322.241 14.1643C329.664 14.1643 334.286 18.9673 334.286 26.5543C334.286 34.1403 329.515 40.1363 321.943 40.1363C313.385 40.1363 309.927 33.0143 309.927 27.1503Z" fill="#FBC449"/>
</g>
<mask id="mask8_2001_3" style="mask-type:luminance" maskUnits="userSpaceOnUse" x="0" y="0" width="362" height="116">
<path d="M0.333344 115.057H361.968V0.459961H0.333344V115.057Z" fill="white"/>
</mask>
<g mask="url(#mask8_2001_3)">
<path d="M341.147 35.1675C341.206 37.7515 341.594 38.6125 342.19 38.8445C342.698 39.0435 343.264 39.0765 343.741 39.0765C344.069 39.0765 344.247 39.1425 344.247 39.3415C344.247 39.6065 343.979 39.6725 343.561 39.6725C341.624 39.6725 340.431 39.5735 339.865 39.5735C339.596 39.5735 338.195 39.6725 336.645 39.6725C336.258 39.6725 335.988 39.6395 335.988 39.3415C335.988 39.1425 336.168 39.0765 336.466 39.0765C336.854 39.0765 337.39 39.0435 337.808 38.9115C338.583 38.6455 338.702 37.6855 338.732 34.8035L339 15.1915C339 14.5295 339.09 14.0655 339.388 14.0655C339.716 14.0655 339.984 14.4965 340.491 15.0925C340.849 15.5225 345.381 20.9225 349.734 25.7265C351.761 27.9785 355.786 32.7495 356.293 33.2795H356.442L356.144 18.4045C356.114 16.3845 355.846 15.7545 355.13 15.4235C354.682 15.2245 353.967 15.2245 353.55 15.2245C353.192 15.2245 353.073 15.1255 353.073 14.9265C353.073 14.6615 353.401 14.6285 353.848 14.6285C355.399 14.6285 356.829 14.7285 357.456 14.7285C357.783 14.7285 358.917 14.6285 360.378 14.6285C360.765 14.6285 361.064 14.6615 361.064 14.9265C361.064 15.1255 360.884 15.2245 360.526 15.2245C360.229 15.2245 359.99 15.2245 359.632 15.3245C358.797 15.5885 358.558 16.2845 358.529 18.1405L358.201 39.0435C358.201 39.7715 358.082 40.0705 357.813 40.0705C357.485 40.0705 357.128 39.7065 356.8 39.3415C354.921 37.3535 351.105 33.0135 348.004 29.6025C344.754 26.0245 341.445 21.8835 340.908 21.2535H340.819L341.147 35.1675Z" fill="#FBC449"/>
</g>
<mask id="mask9_2001_3" style="mask-type:luminance" maskUnits="userSpaceOnUse" x="0" y="0" width="362" height="116">
<path d="M0.333344 115.057H361.968V0.459961H0.333344V115.057Z" fill="white"/>
</mask>
<g mask="url(#mask9_2001_3)">
<path d="M143.21 69.0225C140.458 66.2805 139.777 62.6875 139.777 59.6925C139.777 57.5805 140.43 53.8925 142.954 51.0865C144.657 49.1955 147.239 47.7135 151.608 47.7135C152.743 47.7135 154.332 47.8085 155.722 48.0915C156.8 48.3125 157.708 48.5015 158.616 48.5645C158.928 48.5965 158.985 48.7225 158.985 48.9115C158.985 49.1635 158.9 49.5425 158.843 50.6765C158.786 51.7165 158.786 53.4505 158.758 53.9235C158.73 54.3965 158.673 54.5855 158.502 54.5855C158.304 54.5855 158.275 54.3655 158.275 53.9235C158.275 52.6935 157.821 51.4015 157.084 50.7085C156.091 49.7625 153.906 48.9115 151.41 48.9115C147.636 48.9115 145.877 50.1405 144.884 51.2125C142.813 53.4185 142.33 56.2245 142.33 59.4395C142.33 65.4605 146.501 70.9775 152.573 70.9775C154.701 70.9775 156.374 70.6935 157.509 69.4005C158.105 68.7075 158.474 67.3205 158.559 66.7525C158.616 66.4065 158.673 66.2805 158.843 66.2805C158.985 66.2805 159.041 66.5015 159.041 66.7525C159.041 66.9745 158.701 69.7155 158.417 70.7885C158.247 71.3875 158.19 71.4505 157.679 71.7025C156.545 72.2065 154.389 72.4265 152.573 72.4265C148.317 72.4265 145.452 71.2605 143.21 69.0225Z" fill="#9F5D45"/>
</g>
<mask id="mask10_2001_3" style="mask-type:luminance" maskUnits="userSpaceOnUse" x="0" y="0" width="362" height="116">
<path d="M0.333344 115.057H361.968V0.459961H0.333344V115.057Z" fill="white"/>
</mask>
<g mask="url(#mask10_2001_3)">
<path d="M176.857 61.5518C176.999 61.5518 176.999 61.4578 176.971 61.3308L174.275 52.8208C174.133 52.3468 173.992 52.3468 173.849 52.8208L171.353 61.3308C171.296 61.4898 171.353 61.5518 171.438 61.5518H176.857ZM173.906 48.9428C174.247 47.9028 174.36 47.7138 174.53 47.7138C174.701 47.7138 174.815 47.8708 175.155 48.8488C175.58 50.0468 180.035 63.0648 181.765 67.8568C182.787 70.6618 183.61 71.1668 184.206 71.3558C184.631 71.5138 185.057 71.5448 185.34 71.5448C185.51 71.5448 185.624 71.5758 185.624 71.7338C185.624 71.9228 185.369 71.9858 185.057 71.9858C184.631 71.9858 182.56 71.9858 180.602 71.9228C180.063 71.8918 179.751 71.8918 179.751 71.7028C179.751 71.5758 179.836 71.5138 179.95 71.4818C180.12 71.4188 180.29 71.1348 180.12 70.6308L177.481 62.8758C177.424 62.7498 177.368 62.6868 177.226 62.6868H171.126C170.984 62.6868 170.899 62.7808 170.842 62.9388L169.14 68.5178C168.885 69.3058 168.743 70.0628 168.743 70.6308C168.743 71.2608 169.338 71.5448 169.821 71.5448H170.105C170.304 71.5448 170.388 71.6078 170.388 71.7338C170.388 71.9228 170.218 71.9858 169.963 71.9858C169.282 71.9858 168.062 71.8918 167.75 71.8918C167.438 71.8918 165.877 71.9858 164.544 71.9858C164.175 71.9858 164.005 71.9228 164.005 71.7338C164.005 71.6078 164.118 71.5448 164.26 71.5448C164.459 71.5448 164.856 71.5138 165.083 71.4818C166.388 71.2928 166.955 70.0948 167.466 68.5178L173.906 48.9428Z" fill="#9F5D45"/>
</g>
<mask id="mask11_2001_3" style="mask-type:luminance" maskUnits="userSpaceOnUse" x="0" y="0" width="362" height="116">
<path d="M0.333344 115.057H361.968V0.459961H0.333344V115.057Z" fill="white"/>
</mask>
<g mask="url(#mask11_2001_3)">
<path d="M195.922 60.0386C195.922 60.1966 195.979 60.3226 196.12 60.4176C196.546 60.7016 197.851 60.9216 199.1 60.9216C199.781 60.9216 200.575 60.8266 201.227 60.3226C202.221 59.5656 202.958 57.8636 202.958 55.4686C202.958 51.5276 201.086 49.1636 198.05 49.1636C197.198 49.1636 196.432 49.2576 196.149 49.3526C196.007 49.4156 195.922 49.5416 195.922 49.7306V60.0386ZM193.652 57.2966C193.652 52.3786 193.652 51.4966 193.595 50.4876C193.538 49.4156 193.312 48.9116 192.376 48.6906C192.148 48.6276 191.667 48.5966 191.41 48.5966C191.297 48.5966 191.184 48.5336 191.184 48.4066C191.184 48.2176 191.326 48.1556 191.638 48.1556C192.914 48.1556 194.702 48.2496 194.844 48.2496C195.156 48.2496 197.312 48.1556 198.192 48.1556C199.979 48.1556 201.879 48.3446 203.384 49.5416C204.093 50.1086 205.341 51.6536 205.341 53.8296C205.341 56.1616 204.462 58.4946 201.908 61.1106C204.235 64.4206 206.164 67.2256 207.81 69.1806C209.342 70.9776 210.562 71.3236 211.272 71.4506C211.81 71.5446 212.207 71.5446 212.378 71.5446C212.519 71.5446 212.633 71.6386 212.633 71.7336C212.633 71.9226 212.463 71.9866 211.952 71.9866H209.938C208.349 71.9866 207.639 71.8286 206.902 71.3876C205.682 70.6616 204.689 69.1176 203.071 66.7536C201.879 65.0196 200.547 62.9076 199.979 62.0876C199.866 61.9616 199.781 61.8986 199.611 61.8986L196.12 61.8356C195.979 61.8356 195.922 61.9306 195.922 62.0876V62.8446C195.922 65.8706 195.922 68.3606 196.064 69.6846C196.149 70.5996 196.319 71.2926 197.17 71.4186C197.567 71.4816 198.192 71.5446 198.447 71.5446C198.617 71.5446 198.674 71.6386 198.674 71.7336C198.674 71.8916 198.532 71.9866 198.22 71.9866C196.659 71.9866 194.872 71.8916 194.73 71.8916C194.702 71.8916 192.914 71.9866 192.063 71.9866C191.751 71.9866 191.61 71.9226 191.61 71.7336C191.61 71.6386 191.667 71.5446 191.836 71.5446C192.091 71.5446 192.432 71.4816 192.688 71.4186C193.255 71.2926 193.397 70.5996 193.51 69.6846C193.652 68.3606 193.652 65.8706 193.652 62.8446V57.2966Z" fill="#9F5D45"/>
</g>
<mask id="mask12_2001_3" style="mask-type:luminance" maskUnits="userSpaceOnUse" x="0" y="0" width="362" height="116">
<path d="M0.333344 115.057H361.968V0.459961H0.333344V115.057Z" fill="white"/>
</mask>
<g mask="url(#mask12_2001_3)">
<path d="M219.015 57.2964C219.015 52.3794 219.015 51.4964 218.958 50.4874C218.901 49.4164 218.675 48.9114 217.739 48.6914C217.511 48.6284 217.029 48.5964 216.773 48.5964C216.66 48.5964 216.547 48.5334 216.547 48.4074C216.547 48.2174 216.688 48.1544 217.001 48.1544C218.277 48.1544 220.065 48.2494 220.207 48.2494C220.405 48.2494 226.051 48.2494 226.704 48.2174C227.243 48.1864 227.697 48.1234 227.924 48.0604C228.066 48.0284 228.179 47.9024 228.321 47.9024C228.406 47.9024 228.434 48.0284 228.434 48.1864C228.434 48.4074 228.293 48.7854 228.208 49.6684C228.179 49.9834 228.122 51.3704 228.066 51.7484C228.037 51.9064 227.98 52.0954 227.867 52.0954C227.697 52.0954 227.64 51.9374 227.64 51.6854C227.64 51.4644 227.611 50.9294 227.47 50.5504C227.271 50.0464 226.987 49.6684 225.455 49.4794C224.973 49.4164 221.88 49.3844 221.568 49.3844C221.455 49.3844 221.399 49.4794 221.399 49.6994V58.4004C221.399 58.6204 221.427 58.7144 221.568 58.7144C221.938 58.7144 225.427 58.7144 226.08 58.6514C226.761 58.5894 227.158 58.5254 227.413 58.2104C227.611 57.9594 227.725 57.8004 227.839 57.8004C227.924 57.8004 227.98 57.8644 227.98 58.0534C227.98 58.2414 227.839 58.7774 227.753 59.8184C227.697 60.4484 227.64 61.6154 227.64 61.8354C227.64 62.0884 227.64 62.4354 227.442 62.4354C227.3 62.4354 227.243 62.3084 227.243 62.1504C227.243 61.8354 227.243 61.5214 227.13 61.1104C227.016 60.6694 226.761 60.1334 225.654 60.0074C224.888 59.9134 222.08 59.8494 221.597 59.8494C221.455 59.8494 221.399 59.9434 221.399 60.0704V62.8444C221.399 63.9164 221.37 67.5724 221.399 68.2344C221.483 70.4094 221.909 70.8194 224.689 70.8194C225.427 70.8194 226.675 70.8194 227.413 70.4734C228.151 70.1264 228.492 69.4964 228.69 68.2034C228.747 67.8564 228.803 67.7304 228.945 67.7304C229.115 67.7304 229.115 67.9834 229.115 68.2034C229.115 68.4554 228.889 70.5994 228.747 71.2604C228.548 72.0804 228.321 72.0804 227.215 72.0804C222.93 72.0804 221.03 71.8914 220.207 71.8914C220.065 71.8914 218.277 71.9864 217.426 71.9864C217.114 71.9864 216.973 71.9224 216.973 71.7344C216.973 71.6394 217.029 71.5444 217.199 71.5444C217.454 71.5444 217.795 71.4824 218.05 71.4184C218.618 71.2934 218.76 70.5994 218.873 69.6854C219.015 68.3604 219.015 65.8704 219.015 62.8444V57.2964Z" fill="#9F5D45"/>
</g>
<mask id="mask13_2001_3" style="mask-type:luminance" maskUnits="userSpaceOnUse" x="0" y="0" width="362" height="116">
<path d="M0.333344 115.057H361.968V0.459961H0.333344V115.057Z" fill="white"/>
</mask>
<g mask="url(#mask13_2001_3)">
<path d="M270.621 62.8442C270.621 65.8702 270.621 68.3612 270.763 69.6852C270.848 70.5992 271.018 71.2932 271.869 71.4182C272.266 71.4822 272.891 71.5442 273.146 71.5442C273.316 71.5442 273.373 71.6392 273.373 71.7342C273.373 71.8912 273.231 71.9862 272.919 71.9862C271.358 71.9862 269.571 71.8912 269.429 71.8912C269.288 71.8912 267.5 71.9862 266.649 71.9862C266.337 71.9862 266.195 71.9232 266.195 71.7342C266.195 71.6392 266.251 71.5442 266.422 71.5442C266.677 71.5442 267.018 71.4822 267.273 71.4182C267.841 71.2932 267.982 70.5992 268.096 69.6852C268.237 68.3612 268.237 65.8702 268.237 62.8442V59.5342C268.237 59.4082 268.153 59.3452 268.068 59.3452H256.038C255.952 59.3452 255.868 59.3772 255.868 59.5342V62.8442C255.868 65.8702 255.868 68.3612 256.009 69.6852C256.095 70.5992 256.265 71.2932 257.116 71.4182C257.513 71.4822 258.137 71.5442 258.393 71.5442C258.563 71.5442 258.62 71.6392 258.62 71.7342C258.62 71.8912 258.478 71.9862 258.165 71.9862C256.605 71.9862 254.818 71.8912 254.676 71.8912C254.534 71.8912 252.747 71.9862 251.895 71.9862C251.583 71.9862 251.442 71.9232 251.442 71.7342C251.442 71.6392 251.498 71.5442 251.669 71.5442C251.924 71.5442 252.264 71.4822 252.52 71.4182C253.087 71.2932 253.229 70.5992 253.342 69.6852C253.484 68.3612 253.484 65.8702 253.484 62.8442V57.2962C253.484 52.3792 253.484 51.4962 253.427 50.4882C253.371 49.4152 253.144 48.9112 252.208 48.6912C251.981 48.6282 251.498 48.5962 251.243 48.5962C251.13 48.5962 251.016 48.5332 251.016 48.4072C251.016 48.2182 251.158 48.1552 251.47 48.1552C252.747 48.1552 254.534 48.2492 254.676 48.2492C254.818 48.2492 256.605 48.1552 257.456 48.1552C257.768 48.1552 257.91 48.2182 257.91 48.4072C257.91 48.5332 257.797 48.5962 257.684 48.5962C257.484 48.5962 257.315 48.6282 256.974 48.6912C256.208 48.8482 255.981 49.3842 255.924 50.4882C255.868 51.4962 255.868 52.3792 255.868 57.2962V57.9592C255.868 58.1162 255.952 58.1472 256.038 58.1472H268.068C268.153 58.1472 268.237 58.1162 268.237 57.9592V57.2962C268.237 52.3792 268.237 51.4962 268.181 50.4882C268.124 49.4152 267.897 48.9112 266.961 48.6912C266.734 48.6282 266.251 48.5962 265.996 48.5962C265.883 48.5962 265.769 48.5332 265.769 48.4072C265.769 48.2182 265.911 48.1552 266.224 48.1552C267.5 48.1552 269.288 48.2492 269.429 48.2492C269.571 48.2492 271.358 48.1552 272.21 48.1552C272.522 48.1552 272.663 48.2182 272.663 48.4072C272.663 48.5332 272.55 48.5962 272.437 48.5962C272.238 48.5962 272.068 48.6282 271.728 48.6912C270.961 48.8482 270.735 49.3842 270.678 50.4882C270.621 51.4962 270.621 52.3792 270.621 57.2962V62.8442Z" fill="#9F5D45"/>
</g>
<mask id="mask14_2001_3" style="mask-type:luminance" maskUnits="userSpaceOnUse" x="0" y="0" width="362" height="116">
<path d="M0.333344 115.057H361.968V0.459961H0.333344V115.057Z" fill="white"/>
</mask>
<g mask="url(#mask14_2001_3)">
<path d="M292.525 71.229C295.078 71.229 300.355 69.59 300.355 60.417C300.355 52.852 296.213 48.785 291.73 48.785C286.992 48.785 283.446 52.252 283.446 59.156C283.446 66.501 287.418 71.229 292.525 71.229ZM291.929 47.713C298.313 47.713 303.079 52.19 303.079 59.535C303.079 66.596 298.597 72.427 291.759 72.427C283.985 72.427 280.75 65.713 280.75 60.039C280.75 54.932 284.098 47.713 291.929 47.713Z" fill="#9F5D45"/>
</g>
<mask id="mask15_2001_3" style="mask-type:luminance" maskUnits="userSpaceOnUse" x="0" y="0" width="362" height="116">
<path d="M0.333344 115.057H361.968V0.459961H0.333344V115.057Z" fill="white"/>
</mask>
<g mask="url(#mask15_2001_3)">
<path d="M334.746 67.9194C334.86 69.0544 335.058 70.8194 336.278 71.2614C337.101 71.5444 337.838 71.5444 338.122 71.5444C338.264 71.5444 338.349 71.5764 338.349 71.7024C338.349 71.8914 338.094 71.9864 337.754 71.9864C337.129 71.9864 334.065 71.8914 333.015 71.7974C332.363 71.7334 332.221 71.6384 332.221 71.4814C332.221 71.3554 332.278 71.2924 332.419 71.2614C332.562 71.2294 332.59 70.6934 332.533 70.1264L331.171 53.8604H331.086L324.135 70.2524C323.539 71.6384 323.454 71.9224 323.199 71.9224C323 71.9224 322.858 71.6074 322.319 70.4724C321.582 68.9284 319.141 63.4754 318.999 63.1594C318.744 62.5914 315.567 55.0264 315.255 54.1754H315.141L314.006 68.8014C313.978 69.3064 313.978 69.8744 313.978 70.4094C313.978 70.8824 314.289 71.2924 314.715 71.3874C315.198 71.5134 315.623 71.5444 315.794 71.5444C315.907 71.5444 316.021 71.6074 316.021 71.7024C316.021 71.9224 315.85 71.9864 315.51 71.9864C314.46 71.9864 313.098 71.8914 312.871 71.8914C312.616 71.8914 311.255 71.9864 310.488 71.9864C310.205 71.9864 310.006 71.9224 310.006 71.7024C310.006 71.6074 310.148 71.5444 310.289 71.5444C310.516 71.5444 310.715 71.5444 311.14 71.4504C312.076 71.2614 312.162 70.0314 312.276 68.8344L314.318 48.2814C314.375 47.9344 314.46 47.7134 314.63 47.7134C314.8 47.7134 314.915 47.8394 315.056 48.1864L323.737 68.0144L332.079 48.2174C332.193 47.9344 332.306 47.7134 332.504 47.7134C332.704 47.7134 332.788 47.9654 332.845 48.5644L334.746 67.9194Z" fill="#9F5D45"/>
</g>
<mask id="mask16_2001_3" style="mask-type:luminance" maskUnits="userSpaceOnUse" x="0" y="0" width="362" height="116">
<path d="M0.333344 115.057H361.968V0.459961H0.333344V115.057Z" fill="white"/>
</mask>
<g mask="url(#mask16_2001_3)">
<path d="M347.398 57.2964C347.398 52.3794 347.398 51.4964 347.341 50.4874C347.284 49.4164 347.058 48.9114 346.122 48.6914C345.894 48.6284 345.412 48.5964 345.156 48.5964C345.043 48.5964 344.93 48.5334 344.93 48.4074C344.93 48.2174 345.072 48.1544 345.384 48.1544C346.661 48.1544 348.448 48.2494 348.59 48.2494C348.788 48.2494 354.434 48.2494 355.087 48.2174C355.626 48.1864 356.08 48.1234 356.307 48.0604C356.449 48.0284 356.562 47.9024 356.704 47.9024C356.789 47.9024 356.817 48.0284 356.817 48.1864C356.817 48.4074 356.676 48.7854 356.591 49.6684C356.562 49.9834 356.505 51.3704 356.449 51.7484C356.42 51.9064 356.363 52.0954 356.25 52.0954C356.08 52.0954 356.023 51.9374 356.023 51.6854C356.023 51.4644 355.994 50.9294 355.853 50.5504C355.654 50.0464 355.37 49.6684 353.838 49.4794C353.356 49.4164 350.263 49.3844 349.951 49.3844C349.838 49.3844 349.782 49.4794 349.782 49.6994V58.4004C349.782 58.6204 349.81 58.7144 349.951 58.7144C350.321 58.7144 353.81 58.7144 354.463 58.6514C355.144 58.5894 355.541 58.5254 355.796 58.2104C355.994 57.9594 356.108 57.8004 356.222 57.8004C356.307 57.8004 356.363 57.8644 356.363 58.0534C356.363 58.2414 356.222 58.7774 356.136 59.8184C356.08 60.4484 356.023 61.6154 356.023 61.8354C356.023 62.0884 356.023 62.4354 355.825 62.4354C355.683 62.4354 355.626 62.3084 355.626 62.1504C355.626 61.8354 355.626 61.5214 355.513 61.1104C355.399 60.6694 355.144 60.1334 354.037 60.0074C353.271 59.9134 350.463 59.8494 349.98 59.8494C349.838 59.8494 349.782 59.9434 349.782 60.0704V62.8444C349.782 63.9164 349.753 67.5724 349.782 68.2344C349.866 70.4094 350.292 70.8194 353.072 70.8194C353.81 70.8194 355.058 70.8194 355.796 70.4734C356.534 70.1264 356.875 69.4964 357.073 68.2034C357.13 67.8564 357.186 67.7304 357.328 67.7304C357.498 67.7304 357.498 67.9834 357.498 68.2034C357.498 68.4554 357.272 70.5994 357.13 71.2604C356.931 72.0804 356.704 72.0804 355.598 72.0804C351.313 72.0804 349.413 71.8914 348.59 71.8914C348.448 71.8914 346.661 71.9864 345.809 71.9864C345.497 71.9864 345.356 71.9224 345.356 71.7344C345.356 71.6394 345.412 71.5444 345.582 71.5444C345.837 71.5444 346.178 71.4824 346.433 71.4184C347.001 71.2934 347.143 70.5994 347.256 69.6854C347.398 68.3604 347.398 65.8704 347.398 62.8444V57.2964Z" fill="#9F5D45"/>
</g>
<mask id="mask17_2001_3" style="mask-type:luminance" maskUnits="userSpaceOnUse" x="0" y="0" width="362" height="116">
<path d="M0.333344 115.057H361.968V0.459961H0.333344V115.057Z" fill="white"/>
</mask>
<g mask="url(#mask17_2001_3)">
<path d="M117.401 40.1074C117.401 61.6854 99.9089 79.1774 78.3309 79.1774C56.7529 79.1774 39.2609 61.6854 39.2609 40.1074C39.2609 18.5294 56.7529 1.03741 78.3309 1.03741C99.9089 1.03741 117.401 18.5294 117.401 40.1074Z" fill="#FBC449"/>
</g>
<mask id="mask18_2001_3" style="mask-type:luminance" maskUnits="userSpaceOnUse" x="0" y="0" width="362" height="116">
<path d="M0.333344 115.057H361.968V0.459961H0.333344V115.057Z" fill="white"/>
</mask>
<g mask="url(#mask18_2001_3)">
<path d="M1.36146 96.6572C1.78346 95.8842 2.60746 95.2432 3.23446 94.6492C5.59946 92.4112 8.02146 90.2252 10.4575 88.0662C11.8615 86.8222 13.4655 85.1552 15.3775 84.7462C16.8205 84.4372 18.3765 84.7172 19.8445 84.5882C21.8055 84.4152 23.8035 83.9402 25.5765 83.0702C26.7655 82.4862 28.0765 81.5932 28.2025 80.1542C28.3195 78.8192 27.5795 77.4912 27.0805 76.3012C26.5075 74.9362 26.0645 73.5472 26.0385 72.0552C26.0105 70.5272 26.3175 69.0152 26.3685 67.4902C26.3885 66.8782 26.3675 66.2662 26.3165 65.6562C26.2725 65.1232 26.2055 64.5932 26.1255 64.0652C26.0515 63.5702 25.8735 63.0262 25.8745 62.5272C25.8755 62.1622 26.0015 61.7562 26.0395 61.3862C26.0915 60.8722 26.1755 60.3622 26.2605 59.8522C26.4615 58.6432 26.6595 57.3762 27.0975 56.2282C27.4915 55.1952 27.8215 54.1442 28.2115 53.1092C28.5955 52.0892 28.9425 50.9742 29.5015 50.0342C29.8085 49.5172 30.2595 49.0952 30.6165 48.6122C31.0425 48.0362 31.4455 47.4612 31.9515 46.9512C33.6875 45.2072 35.3385 43.3862 37.0735 41.6422C37.9335 40.7792 38.9355 39.9742 39.9145 39.2492C40.3295 38.9412 40.7265 38.6092 41.1155 38.2702C41.7165 37.7472 42.4185 37.2732 42.7995 36.5742C43.1835 35.8682 43.5905 35.1772 44.1875 34.6282C45.4815 33.4372 47.0685 31.7182 48.6415 31.0122C48.7375 31.7412 48.1605 32.6292 48.0975 33.4152C48.0245 34.3122 47.6955 35.0222 47.0775 35.7222C46.5625 36.3042 45.8445 36.8812 45.5305 37.5742C45.0855 38.5542 45.4345 38.8012 46.3845 39.0922C46.3575 38.0842 47.9725 36.3972 48.7605 35.7842C50.0005 34.8192 51.6445 34.3782 52.6865 33.1762C52.8045 34.5422 52.6895 36.4752 51.7585 37.4662C51.0765 38.1902 50.3115 38.8482 49.5625 39.5012C49.4285 39.6172 48.8215 39.9392 49.0035 40.1762C49.0655 40.2562 49.3445 40.2452 49.4385 40.2742C49.6535 40.3422 49.8465 40.4682 50.0565 40.5512C50.4435 40.7052 50.8475 40.7182 51.2435 40.8682C51.7855 41.0742 52.2965 41.3352 52.7975 41.6122C52.9625 41.7032 53.2995 41.8922 53.3825 42.0832C53.4165 42.1632 53.3635 42.2812 53.3825 42.3632C53.3975 42.4302 53.4475 42.4442 53.4655 42.5012C53.5255 42.6892 53.5875 42.8682 53.6925 43.0392C53.9615 43.4822 54.4055 43.8432 54.8245 44.1762C55.8815 45.0202 57.0495 45.7392 58.3395 46.2252C58.9465 46.4542 59.5475 46.7112 60.1175 47.0022C60.4555 47.1742 60.8345 47.2612 61.1625 47.4652C61.5005 47.6762 61.8055 47.8222 62.1735 47.9662C62.5055 48.0952 62.8445 48.1642 63.1885 48.3042C63.3365 48.3642 63.4855 48.3862 63.6215 48.4432C63.7405 48.4912 63.8625 48.5942 63.9835 48.6332C64.1295 48.6782 64.2915 48.6972 64.4305 48.7442C64.5975 48.8002 64.7825 48.8502 64.9465 48.9192C65.0545 48.9652 65.1605 49.0502 65.2675 49.1072C65.3265 49.1392 65.3785 49.1582 65.4285 49.1742C65.4285 49.2162 65.4245 49.2582 65.4135 49.3022C65.3225 49.6622 65.0435 49.8552 64.7315 50.0142C64.6215 50.0032 64.5105 49.9892 64.4115 50.0132C64.1515 50.0782 63.9135 50.2072 63.6485 50.2742C63.3295 50.3552 62.9775 50.5332 62.6305 50.6022C62.0405 51.2872 61.3695 51.3912 60.5345 51.6002C59.7075 51.8062 58.9915 51.8212 58.1425 51.7982C57.3545 51.7772 56.5885 51.9692 55.8015 51.8492C55.0185 51.7292 54.2465 51.6132 53.4575 51.5322C52.6535 51.4492 52.1175 51.5592 51.4165 51.9532C50.7645 52.3212 49.9905 52.5672 49.2635 52.7452C48.4875 52.9352 47.7235 52.6792 46.9665 52.5092C46.2705 52.3522 45.1795 51.9582 44.5395 52.4402C43.7485 53.0342 43.3055 54.0242 43.4005 54.9932C43.4445 55.4342 43.4455 55.8972 43.5315 56.3302C43.6675 57.0112 43.9625 57.4792 44.2975 58.0662C44.6595 58.6992 45.0035 59.3422 45.3555 59.9812C45.7195 60.6432 46.0875 61.3582 46.5555 61.9782C46.7585 62.2472 46.9795 62.4982 47.2285 62.7202C47.9485 63.3642 48.7325 63.6442 49.6325 63.9142C50.2235 64.0912 50.7995 64.2702 51.4135 64.3562C52.0135 64.4412 52.5785 64.5492 53.1385 64.7912C54.1205 65.2162 54.8905 65.8912 55.5035 66.7672C55.7965 67.1852 56.1395 67.4552 56.5595 67.7442C57.0765 68.0992 57.5895 68.4842 58.1535 68.7622C59.3305 69.3412 60.5545 69.9302 61.8295 70.2442C63.0925 70.5552 64.2735 70.9382 65.5785 71.0372C66.7985 71.1302 68.0195 71.0052 69.2405 71.0972C69.8195 71.1422 70.4075 71.2202 70.9845 71.1232C71.8585 70.9762 72.7405 70.9142 73.6245 70.8732C74.2565 70.8442 74.7715 70.5712 75.3865 70.5022C77.1235 70.3072 78.9125 70.2472 80.6575 70.3532C81.6655 70.4152 82.6705 70.5492 83.6555 70.7762C91.7635 72.6452 96.4875 80.1452 105.126 81.2312C107.093 81.4782 109.077 81.4652 111.054 81.3792C113.118 81.2892 115.175 81.0902 117.237 80.9572C119.282 80.8262 121.334 80.7152 123.383 80.8292C125.366 80.9392 127.346 81.2162 129.231 81.8642C131.111 82.5102 132.733 83.5132 134.274 84.7552C134.462 84.9052 134.674 85.0482 134.845 85.2172C135.54 85.9092 136.275 86.5582 136.981 87.2402C137.845 88.0722 138.695 88.9192 139.557 89.7522C140.372 90.5422 141.267 91.2112 142.173 91.8912C143.21 92.6692 144.213 93.5322 145.378 94.1162C146.565 94.7112 147.893 95.2932 149.241 95.3112C150.509 95.3282 151.889 95.1782 153.133 94.9412C154.019 94.7732 154.928 94.3982 155.708 93.9512C156.552 93.4672 157.229 92.6812 157.884 91.9732C158.397 91.4182 158.672 90.6982 159.25 90.2012C159.191 92.5232 159.553 94.8662 158.394 97.0012C157.981 97.7642 157.544 98.5072 157.052 99.2232C156.467 100.075 155.982 100.888 155.219 101.606C154.48 102.303 153.724 103.218 152.791 103.66C152.164 103.958 151.56 104.308 150.93 104.598C150.316 104.88 149.686 105.168 149.059 105.419C148.4 105.682 147.713 105.727 147.047 105.949C147.378 105.929 147.492 106.071 147.795 106.143C148.077 106.209 148.376 106.254 148.661 106.303C148.135 106.668 147.607 107.065 147.017 107.321C146.339 107.615 145.668 107.814 144.949 107.978C144.592 108.059 144.303 108.066 143.942 108.074C143.514 108.083 143.112 108.26 142.686 108.301C141.871 108.379 141.015 108.311 140.194 108.308C139.442 108.305 138.689 108.307 137.936 108.304C137.666 108.303 137.395 108.313 137.125 108.307C136.721 108.301 136.367 108.17 135.973 108.112C135.362 108.022 134.753 107.93 134.142 107.834C133.5 107.731 132.848 107.483 132.193 107.51C132.532 107.942 132.956 108.218 133.495 108.334C131.256 108.793 129.045 108.403 126.858 107.886C125.81 107.638 124.838 107.098 123.858 106.66C123.141 106.34 122.5 105.938 121.851 105.533C120.896 104.597 119.931 103.673 118.947 102.775C118.059 101.964 116.982 101.185 115.792 100.859C115.27 100.509 114.702 100.297 114.066 100.363C113.664 100.405 113.296 100.653 113.233 101.06C113.164 100.845 113.105 100.627 113.032 100.449C112.911 100.153 112.674 99.9182 112.554 99.6082C112.399 99.2102 112.353 98.8872 112.059 98.5602C111.873 98.3542 111.804 98.1022 111.624 97.8942C111.447 97.6862 111.278 97.5232 111.124 97.2952C110.86 96.9012 110.524 96.5832 110.192 96.2482C109.894 95.9492 109.521 95.7672 109.2 95.5292C108.809 95.2402 108.385 94.9752 107.958 94.7152C107.619 94.5082 107.242 94.4072 106.89 94.2402C106.522 94.0672 106.313 93.8962 106.042 93.6052C106.063 93.9212 105.956 94.3742 106.074 94.6622C106.12 94.7762 106.27 94.9712 106.355 95.0562C106.461 95.1642 106.638 95.2052 106.714 95.3212C106.556 95.2762 106.465 95.1682 106.327 95.0952C106.181 95.0192 106.013 95.0022 105.869 94.9262C105.656 94.8122 105.409 94.6602 105.2 94.5322C104.833 94.3082 104.506 93.9012 104.186 93.6142C103.959 93.4092 103.703 93.1792 103.508 92.9442C103.244 92.6262 103.04 92.2132 102.823 91.8642C102.716 91.6912 102.6 91.4952 102.509 91.3032C102.514 91.1682 102.488 91.0252 102.417 90.8792C102.364 90.7702 102.312 90.6592 102.26 90.5472C102.147 90.0912 102.057 89.6232 101.818 89.2172C101.703 89.0222 101.548 88.8312 101.393 88.6432C100.726 87.2732 99.8925 85.9902 98.4395 85.4222C97.0415 84.8752 95.6435 85.7032 95.0565 87.0072C94.4845 88.2762 94.3735 89.6812 94.6815 90.9382C94.7075 91.3272 94.7565 91.7082 94.8945 92.0922C95.3355 93.3212 96.1845 94.7132 97.2305 95.4992C97.7285 95.8742 98.3285 96.1112 98.8735 96.4112C99.4845 96.7482 100.104 97.0692 100.713 97.4112C101.915 98.0872 103.192 98.6192 104.435 99.2152C105.027 99.4992 105.608 99.7462 106.007 100.293C106.361 100.781 106.606 101.358 106.902 101.882C107.21 102.426 107.451 102.967 107.517 103.594C107.581 104.196 107.592 104.793 107.689 105.391C107.878 106.557 107.882 107.749 107.849 108.928C107.815 110.148 108.011 111.369 107.619 112.545C107.521 112.164 107.423 111.782 107.32 111.403C106.111 106.963 103.573 102.894 99.3675 100.745C97.5615 99.8222 95.5555 99.4892 93.7035 98.6942C91.6755 97.8242 90.0455 96.3762 88.3455 95.0102C86.8195 93.7832 85.2005 92.8442 83.1935 93.4012C81.5545 93.8542 79.3185 95.2022 79.1465 97.0892C78.9695 99.0292 81.0605 100.317 82.0325 101.73C82.4815 102.383 82.6885 103.112 82.3255 103.856C81.8835 104.761 80.9825 105.435 80.2185 106.053C79.2805 106.813 78.3245 107.55 77.4345 108.367C76.7115 109.03 76.0555 109.758 75.3435 110.431C73.9935 111.71 72.4025 112.064 70.6105 112.331C72.5145 111.017 74.4365 109.642 75.6825 107.645C75.8555 107.367 76.0195 107.073 76.1605 106.767C76.2375 106.657 76.3105 106.545 76.3755 106.429C77.1655 105.017 76.9065 103.634 75.8775 102.426C75.3685 101.829 74.7375 101.312 74.2865 100.669C73.7545 99.9112 73.2675 99.1232 72.8655 98.2892C72.0985 96.7022 71.5845 95.0232 71.1075 93.3312C70.9685 92.8342 70.4495 92.6142 69.9935 92.7732C69.8805 92.7372 69.7695 92.7062 69.6675 92.6772C68.8645 92.4492 68.0235 92.3852 67.1925 92.4512C66.2165 92.5302 65.2735 92.7442 64.3825 93.1552C63.9015 93.3772 63.4365 93.6392 62.9435 93.8332C62.3295 94.0742 61.6885 94.1452 61.0375 94.2082C59.5805 94.3472 58.1975 94.6862 56.7235 94.6362C56.0125 94.6122 55.2545 94.6172 54.5575 94.4592C54.1175 94.3602 53.7575 94.0942 53.3325 93.9532C52.9365 93.8222 52.5095 93.8232 52.0965 93.8452C51.6335 93.8702 51.4295 94.0692 51.3625 94.5392C51.2275 95.4972 51.5495 96.4172 51.8615 97.3072C51.9825 97.6512 52.1895 97.9452 52.3105 98.2762C52.4725 98.7212 52.3575 99.2862 52.3625 99.7502C52.3685 100.481 52.4765 101.209 52.4945 101.941C52.5245 103.233 52.5215 104.534 52.3975 105.819C52.3445 106.373 52.3715 106.93 52.3805 107.486C52.3925 108.167 52.2495 108.67 52.0435 109.309C51.7375 110.258 51.6345 111.304 51.0005 112.111C50.7205 112.467 50.4765 112.795 50.1005 113.054C49.7425 113.302 49.3675 113.521 49.0175 113.781C48.9195 113.504 49.0975 113.202 49.1055 112.921C49.1135 112.622 49.1295 112.412 49.1985 112.132C49.2725 111.83 49.3375 111.549 49.3345 111.235C49.3335 110.944 49.3475 110.719 49.4195 110.446C49.5705 109.878 49.4515 109.257 49.4475 108.678C49.4425 108.146 49.4415 107.619 49.3125 107.099C49.2205 106.73 49.0765 106.375 48.9815 106.006C48.8265 105.399 48.7745 104.77 48.6485 104.156C48.4925 103.394 48.2845 102.643 48.0805 101.892C47.7595 100.712 47.2015 99.6772 46.6695 98.5842C46.1475 97.5132 45.7545 96.4172 45.0255 95.4592C44.3845 94.6162 43.7205 93.8492 43.1875 92.9292C42.6985 92.0862 42.0905 91.3242 41.3725 90.6632C40.1845 89.5702 38.6405 88.9792 37.0985 88.5822C36.3605 88.3922 35.5975 88.1512 34.8325 88.1112C33.9225 88.0642 32.9915 88.0502 32.0805 88.0692C31.0085 88.0902 29.9345 88.1612 28.8675 88.2562C27.8395 88.3472 26.8135 88.4562 25.7885 88.5702C25.2995 88.6232 24.7705 88.7462 24.2805 88.7242C23.9155 88.7082 23.5755 88.6122 23.2015 88.6112C22.6205 88.6102 22.0395 88.6112 21.4585 88.6142C21.0635 88.6152 20.6365 88.6622 20.2465 88.6002C20.0195 88.5632 19.8085 88.4832 19.5755 88.4882C19.3485 88.4922 19.1755 88.5092 18.9485 88.4582C18.5545 88.3692 18.1675 88.3642 17.7685 88.2872C17.3835 88.2142 16.9485 88.2862 16.5575 88.2862C16.1985 88.2852 15.9655 88.2842 15.6425 88.4602C15.3265 88.6332 14.9985 88.8642 14.7035 89.0722C14.4075 89.2822 14.1435 89.5402 13.8655 89.7722C13.5225 90.0602 13.1755 90.2962 12.8155 90.5552C12.6315 90.6872 12.4345 90.7242 12.2355 90.8242C12.0705 90.9062 11.9455 91.0392 11.7935 91.1412C11.4995 91.3412 11.2145 91.5022 10.9335 91.7172C10.6255 91.9522 10.2665 92.1402 9.94646 92.3672C9.70246 92.5412 9.45746 92.7032 9.20546 92.8662C8.98046 93.0112 8.84846 93.2112 8.64746 93.3832C8.46446 93.5382 8.25146 93.7002 8.04546 93.8232C7.81246 93.9612 7.54846 93.9872 7.31146 94.1032C6.81346 94.3462 6.42846 94.6942 5.87346 94.8332C5.44746 94.9392 5.01346 95.1382 4.62846 95.3572C4.16846 95.6182 3.62546 95.7652 3.26246 96.1172C3.02846 96.3452 2.65046 96.5012 2.36146 96.6762C2.11846 96.8242 0.958457 97.3972 1.36146 96.6572Z" fill="#FF6B2A"/>
</g>
<mask id="mask19_2001_3" style="mask-type:luminance" maskUnits="userSpaceOnUse" x="0" y="0" width="362" height="116">
<path d="M0.333344 115.057H361.968V0.459961H0.333344V115.057Z" fill="white"/>
</mask>
<g mask="url(#mask19_2001_3)">
<path d="M99.7743 100.981C102.871 102.893 105.845 106.873 106.71 109.899C107.018 110.983 107.012 111.833 107.454 112.868C108.184 110.195 108.198 108.161 107.807 105.056C107.428 102.037 107.688 100.727 104.713 99.4064C103.449 98.8444 102.295 98.1144 101.056 97.5074C101.226 98.1014 101.593 98.6134 102.103 98.9664C100.803 98.3884 99.4103 98.0494 98.2163 97.3104C98.6773 98.2364 99.7013 99.0104 100.635 99.5244C99.6993 99.5484 98.7343 99.2704 97.9013 98.9734C98.0733 99.1144 98.2783 99.3884 98.4153 99.5024C97.0233 99.6884 96.0073 98.8564 94.9193 98.2104C95.9933 99.6104 98.0253 100.75 99.7743 100.981Z" fill="#020407"/>
</g>
<mask id="mask20_2001_3" style="mask-type:luminance" maskUnits="userSpaceOnUse" x="0" y="0" width="362" height="116">
<path d="M0.333344 115.057H361.968V0.459961H0.333344V115.057Z" fill="white"/>
</mask>
<g mask="url(#mask20_2001_3)">
<path d="M69.955 112.346C71.741 110.976 74.752 109.265 76.057 106.98C76.681 105.889 77.081 104.7 76.463 103.293C75.856 101.909 74.946 100.669 74.336 99.2142C74.921 100.214 76.288 100.953 77.281 101.501C76.868 100.251 76.292 99.1872 76.391 97.8392C77.066 99.2312 78.106 100.405 79.421 101.28C79.012 100.826 78.734 100.275 78.608 99.6682C79.169 100.411 79.751 101.273 80.749 101.302C80.419 100.855 80.079 100.265 79.874 99.7852C80.908 100.388 82.266 101.648 82.578 102.857C82.976 104.394 82.228 104.691 81.127 105.686C79.292 107.345 77.278 109.598 75.104 110.743C73.761 111.451 72.615 112.346 70.855 112.234L69.955 112.346Z" fill="#020407"/>
</g>
<mask id="mask21_2001_3" style="mask-type:luminance" maskUnits="userSpaceOnUse" x="0" y="0" width="362" height="116">
<path d="M0.333344 115.057H361.968V0.459961H0.333344V115.057Z" fill="white"/>
</mask>
<g mask="url(#mask21_2001_3)">
<path d="M48.9418 114.12C49.8698 109.31 49.0148 106.362 47.1268 99.4776C46.4098 96.8616 47.8458 98.6716 47.0008 96.8616C48.4028 98.6276 49.1498 100.055 50.0158 102.187C50.0678 100.962 50.2208 99.4846 49.9168 98.3066C50.4188 99.0976 50.3038 99.8326 50.7128 100.497C51.1308 99.0006 50.6048 97.2136 50.1658 95.7316C50.7778 96.3016 51.2138 97.8616 51.5578 98.5496C51.5468 98.1966 51.6268 96.8726 51.5958 96.5126C53.2888 98.2956 53.0718 107.663 51.4248 111.38C50.9328 112.491 49.8708 113.409 48.9418 114.12Z" fill="#020407"/>
</g>
<mask id="mask22_2001_3" style="mask-type:luminance" maskUnits="userSpaceOnUse" x="0" y="0" width="362" height="116">
<path d="M0.333344 115.057H361.968V0.459961H0.333344V115.057Z" fill="white"/>
</mask>
<g mask="url(#mask22_2001_3)">
<path d="M0.976349 97.0425C1.72335 96.1445 2.45435 95.0235 3.36435 94.1505C4.15135 93.3965 5.15335 92.5165 6.02735 91.8395C7.95235 90.3495 9.65635 88.5885 11.5993 87.0365C12.5923 86.2435 13.8663 85.6395 15.1213 85.3295C14.3603 86.3135 13.2503 86.6565 12.8033 87.9045C13.8013 87.7725 14.6853 87.0055 15.6833 86.8175C15.1823 87.0925 14.7453 87.5375 14.3673 87.9105C15.9233 87.6635 17.0873 86.9135 18.6333 87.6125C16.5193 89.1675 14.2593 89.5945 11.9773 91.2985C9.85735 92.8815 7.42735 94.2705 5.14135 95.6105C3.85935 96.3615 2.63335 96.7885 1.42635 97.2675L0.976349 97.0425Z" fill="#020407"/>
</g>
<mask id="mask23_2001_3" style="mask-type:luminance" maskUnits="userSpaceOnUse" x="0" y="0" width="362" height="116">
<path d="M0.333344 115.057H361.968V0.459961H0.333344V115.057Z" fill="white"/>
</mask>
<g mask="url(#mask23_2001_3)">
<path d="M53.4571 51.5313C51.7691 51.9633 52.3211 51.8633 50.9671 52.3853C49.1101 53.1023 47.3861 52.6883 45.1021 52.7653C42.6121 52.8493 44.4231 58.0773 44.7641 59.6433C45.1031 61.2013 44.3911 61.5463 43.9421 63.0493C43.3711 62.8003 42.8191 62.4343 42.2931 62.1743C41.9471 63.7473 42.3671 64.7933 42.4981 66.3453C42.6561 68.2093 41.8471 68.7393 40.9161 70.1953C39.4391 72.5053 38.6891 75.8883 39.4221 78.5733C39.8521 80.1493 41.0481 81.3473 41.7841 82.7593C40.7341 82.5343 39.4921 80.8833 38.8821 82.0673C38.4021 82.9983 40.2061 86.3223 40.6101 87.1373C41.6491 89.2363 42.4751 91.2253 43.2661 93.4333C41.8491 91.0873 39.9751 89.5133 37.5041 88.3903C35.5401 87.4983 33.6251 86.8803 32.2081 85.1393C31.3541 84.0913 31.0631 83.1853 30.8861 81.8853C30.5821 82.6143 30.6091 83.5533 30.8071 84.2873C28.4111 79.5713 26.2501 74.1113 26.6291 68.8093C26.7421 67.2383 27.1961 65.9833 27.7411 64.5373C27.5451 64.8923 27.1751 65.3853 26.9931 65.7533C27.0191 63.3113 26.7271 60.8753 28.3511 58.7713C30.0391 56.5843 33.1151 56.3793 34.9231 54.2033C34.2101 54.8643 33.0631 54.9293 32.1861 55.1713C34.0181 50.1643 38.7991 50.8523 43.1381 51.0303C44.2101 51.0743 45.3471 51.1183 46.2031 50.3673C44.9141 50.4073 43.8771 49.5903 42.6451 49.6753C44.4721 48.6503 46.5901 48.3643 48.4671 49.2463C49.7811 49.8643 52.4581 50.6983 53.4571 51.5313Z" fill="#E9ECEA"/>
</g>
<mask id="mask24_2001_3" style="mask-type:luminance" maskUnits="userSpaceOnUse" x="0" y="0" width="362" height="116">
<path d="M0.333344 115.057H361.968V0.459961H0.333344V115.057Z" fill="white"/>
</mask>
<g mask="url(#mask24_2001_3)">
<path d="M51.4225 94.2837C51.5535 93.2397 52.4445 92.7667 52.6455 91.9317C53.1065 90.0117 52.0725 90.8097 51.3555 89.5337C49.9025 86.9477 54.1055 84.9847 56.0515 84.5997C57.6305 84.2877 58.9375 84.8797 60.5195 84.8897C59.8735 84.9557 59.0555 85.6427 58.6015 86.3297C60.7735 86.4217 63.0015 86.3677 65.1055 86.1437C64.8375 86.7107 64.2775 87.1907 63.7815 87.4587C66.6175 86.0027 70.1455 87.1387 73.3195 87.2757C72.9775 87.8487 72.4345 88.3297 71.8575 88.6087C73.7225 88.7047 75.4425 88.4817 77.3325 89.2737C79.0655 90.0007 80.6645 91.0467 82.4095 91.7657C83.4095 92.1787 84.4965 92.4827 85.1345 93.4247C83.1655 92.5097 80.7955 92.9507 78.6805 92.8017C76.5755 92.6537 74.4945 91.9707 72.3655 92.0917C67.8775 92.3457 63.9795 94.3957 59.4235 94.5637C56.9245 94.6567 54.4275 94.7937 51.6005 94.3287L51.4225 94.2837Z" fill="#E9ECEA"/>
</g>
<mask id="mask25_2001_3" style="mask-type:luminance" maskUnits="userSpaceOnUse" x="0" y="0" width="362" height="116">
<path d="M0.333344 115.057H361.968V0.459961H0.333344V115.057Z" fill="white"/>
</mask>
<g mask="url(#mask25_2001_3)">
<path d="M142.174 91.8916C144.812 93.2316 146.477 94.8806 149.473 95.2186C152.397 95.5486 154.196 94.6146 156.629 92.9366C156.974 92.6996 158.971 90.9546 159.344 89.6876C159.344 95.8066 158.967 97.5056 155.237 102.052C154.376 103.101 150.271 105.344 148.988 105.713C149.663 105.693 150.408 105.657 150.964 105.505C147.515 107.369 142.596 110.096 137.547 108.709C135.74 108.213 134.453 108.038 133.791 107.766C135.189 107.703 136.965 106.755 138.337 106.838C136.714 106.066 132.758 105.522 132.97 102.991C132.968 102.908 132.966 102.908 132.964 102.99C133.926 104.764 136.155 104.262 137.774 104.019C135.938 103.983 134.264 100.54 133.204 100.85C136.089 100.96 139.531 101.182 142.166 99.8526C140.881 99.6106 139.494 99.7266 138.241 99.2366C137.305 98.8706 136.592 98.1846 135.595 97.9366C136.901 97.9646 138.585 97.1136 139.794 96.7866C138.587 96.2866 137.079 96.0656 135.762 96.1416C136.815 95.4446 138.088 95.0756 139.572 95.1066C137.986 93.6396 135.874 93.1466 135.783 90.6126C135.782 90.5276 135.779 90.5286 135.774 90.6146C137.166 92.5566 139.478 92.3806 141.487 93.0866C139.607 91.5956 137.862 89.4716 136.894 87.2926C138.212 88.2646 141.016 90.8696 142.174 91.8916Z" fill="#E9ECEA"/>
</g>
</svg>
