<svg width="483" height="154" viewBox="0 0 483 154" fill="none" xmlns="http://www.w3.org/2000/svg">
<mask id="mask0_2006_6" style="mask-type:luminance" maskUnits="userSpaceOnUse" x="0" y="0" width="483" height="154">
<path d="M0.0113525 153.374H482.361V0.524017H0.0113525V153.374Z" fill="white"/>
</mask>
<g mask="url(#mask0_2006_6)">
<path d="M156.157 53.4058C156.157 82.1868 132.826 105.517 104.046 105.517C75.2646 105.517 51.9336 82.1868 51.9336 53.4058C51.9336 24.6248 75.2646 1.29485 104.046 1.29485C132.826 1.29485 156.157 24.6248 156.157 53.4058Z" fill="#FBC449"/>
</g>
<mask id="mask1_2006_6" style="mask-type:luminance" maskUnits="userSpaceOnUse" x="0" y="0" width="483" height="154">
<path d="M0.0113525 153.374H482.361V0.524017H0.0113525V153.374Z" fill="white"/>
</mask>
<g mask="url(#mask1_2006_6)">
<path d="M1.38306 128.833C1.94606 127.802 3.04406 126.946 3.88206 126.154C7.03606 123.17 10.2661 120.253 13.5151 117.374C15.3891 115.715 17.5281 113.492 20.0781 112.946C22.0021 112.534 24.0781 112.907 26.0361 112.735C28.6511 112.504 31.3171 111.871 33.6811 110.71C35.2671 109.932 37.0151 108.74 37.1831 106.82C37.3391 105.04 36.3521 103.269 35.6861 101.682C34.9231 99.8606 34.3331 98.0076 34.2971 96.0186C34.2601 93.9796 34.6701 91.9636 34.7371 89.9296C34.7641 89.1136 34.7361 88.2966 34.6681 87.4836C34.6091 86.7726 34.5211 86.0656 34.4141 85.3606C34.3141 84.7006 34.0771 83.9756 34.0791 83.3096C34.0801 82.8226 34.2471 82.2816 34.2981 81.7876C34.3681 81.1026 34.4801 80.4226 34.5931 79.7426C34.8621 78.1296 35.1261 76.4386 35.7101 74.9076C36.2361 73.5296 36.6761 72.1286 37.1961 70.7476C37.7071 69.3866 38.1701 67.9006 38.9161 66.6476C39.3261 65.9576 39.9281 65.3946 40.4041 64.7506C40.9711 63.9816 41.5081 63.2146 42.1851 62.5346C44.5001 60.2086 46.7011 57.7786 49.0161 55.4536C50.1621 54.3026 51.4991 53.2286 52.8051 52.2616C53.3591 51.8506 53.8881 51.4076 54.4071 50.9556C55.2081 50.2576 56.1451 49.6256 56.6531 48.6936C57.1651 47.7516 57.7071 46.8296 58.5041 46.0976C60.2311 44.5086 62.3471 42.2166 64.4451 41.2756C64.5741 42.2476 63.8041 43.4316 63.7191 44.4806C63.6221 45.6766 63.1831 46.6246 62.3591 47.5566C61.6721 48.3336 60.7141 49.1026 60.2961 50.0276C59.7021 51.3346 60.1671 51.6636 61.4351 52.0516C61.3991 50.7076 63.5531 48.4576 64.6031 47.6396C66.2571 46.3536 68.4501 45.7646 69.8401 44.1606C69.9981 45.9836 69.8451 48.5626 68.6021 49.8836C67.6931 50.8486 66.6721 51.7266 65.6741 52.5976C65.4951 52.7526 64.6861 53.1816 64.9281 53.4976C65.0101 53.6046 65.3831 53.5906 65.5081 53.6296C65.7951 53.7186 66.0531 53.8876 66.3321 53.9976C66.8481 54.2036 67.3871 54.2206 67.9151 54.4206C68.6391 54.6956 69.3201 55.0446 69.9881 55.4126C70.2081 55.5346 70.6581 55.7866 70.7681 56.0416C70.8141 56.1486 70.7431 56.3046 70.7691 56.4146C70.7891 56.5036 70.8551 56.5226 70.8791 56.5986C70.9591 56.8506 71.0421 57.0896 71.1821 57.3166C71.5411 57.9066 72.1331 58.3886 72.6911 58.8336C74.1021 59.9586 75.6601 60.9176 77.3801 61.5666C78.1901 61.8716 78.9921 62.2146 79.7521 62.6026C80.2031 62.8316 80.7081 62.9476 81.1451 63.2206C81.5961 63.5016 82.0031 63.6956 82.4941 63.8886C82.9371 64.0606 83.3891 64.1526 83.8471 64.3386C84.0451 64.4186 84.2451 64.4496 84.4261 64.5236C84.5841 64.5886 84.7471 64.7266 84.9091 64.7766C85.1041 64.8376 85.3181 64.8636 85.5051 64.9266C85.7271 65.0006 85.9741 65.0676 86.1921 65.1596C86.3361 65.2206 86.4781 65.3336 86.6211 65.4106C86.7001 65.4526 86.7691 65.4776 86.8361 65.4986C86.8361 65.5546 86.8301 65.6116 86.8161 65.6696C86.6951 66.1506 86.3221 66.4076 85.9061 66.6206C85.7591 66.6046 85.6111 66.5856 85.4801 66.6186C85.1331 66.7046 84.8151 66.8776 84.4611 66.9666C84.0361 67.0746 83.5661 67.3126 83.1031 67.4046C82.3171 68.3176 81.4221 68.4566 80.3081 68.7356C79.2051 69.0106 78.2491 69.0296 77.1181 68.9996C76.0671 68.9716 75.0451 69.2276 73.9951 69.0676C72.9501 68.9076 71.9211 68.7516 70.8681 68.6436C69.7961 68.5336 69.0811 68.6806 68.1461 69.2066C67.2761 69.6966 66.2441 70.0256 65.2751 70.2626C64.2391 70.5156 63.2211 70.1746 62.2111 69.9476C61.2821 69.7386 59.8281 69.2126 58.9741 69.8546C57.9191 70.6486 57.3281 71.9676 57.4551 73.2616C57.5131 73.8486 57.5151 74.4666 57.6301 75.0446C57.8101 75.9516 58.2041 76.5766 58.6521 77.3596C59.1341 78.2046 59.5931 79.0606 60.0621 79.9136C60.5481 80.7966 61.0391 81.7496 61.6631 82.5766C61.9331 82.9356 62.2291 83.2706 62.5601 83.5676C63.5211 84.4266 64.5661 84.8006 65.7661 85.1596C66.5551 85.3946 67.3241 85.6346 68.1421 85.7496C68.9431 85.8626 69.6961 86.0066 70.4431 86.3296C71.7531 86.8956 72.7791 87.7976 73.5971 88.9656C73.9881 89.5226 74.4451 89.8836 75.0061 90.2686C75.6951 90.7426 76.3801 91.2556 77.1331 91.6256C78.7021 92.3976 80.3351 93.1846 82.0351 93.6026C83.7201 94.0176 85.2951 94.5286 87.0361 94.6606C88.6631 94.7836 90.2911 94.6176 91.9201 94.7416C92.6931 94.8006 93.4771 94.9046 94.2471 94.7746C95.4121 94.5796 96.5891 94.4966 97.7681 94.4416C98.6111 94.4036 99.2971 94.0386 100.117 93.9466C102.434 93.6866 104.821 93.6066 107.148 93.7486C108.493 93.8306 109.833 94.0086 111.147 94.3116C121.961 96.8046 128.262 106.809 139.785 108.257C142.409 108.587 145.055 108.569 147.692 108.455C150.445 108.334 153.188 108.069 155.938 107.893C158.666 107.718 161.403 107.569 164.136 107.722C166.781 107.868 169.422 108.237 171.936 109.102C174.444 109.963 176.607 111.302 178.663 112.957C178.913 113.158 179.196 113.348 179.423 113.574C180.351 114.498 181.331 115.363 182.274 116.272C183.425 117.382 184.559 118.511 185.708 119.623C186.796 120.676 187.989 121.569 189.198 122.477C190.582 123.514 191.919 124.666 193.473 125.444C195.057 126.237 196.827 127.013 198.626 127.037C200.316 127.06 202.157 126.86 203.817 126.544C204.998 126.319 206.211 125.82 207.252 125.223C208.377 124.577 209.28 123.53 210.153 122.585C210.838 121.844 211.205 120.885 211.975 120.222C211.897 123.318 212.379 126.444 210.834 129.291C210.282 130.309 209.7 131.3 209.044 132.255C208.263 133.392 207.617 134.477 206.599 135.434C205.613 136.364 204.605 137.584 203.36 138.174C202.524 138.571 201.718 139.038 200.878 139.425C200.059 139.801 199.219 140.185 198.382 140.519C197.504 140.87 196.587 140.93 195.699 141.226C196.14 141.2 196.293 141.389 196.696 141.485C197.073 141.574 197.472 141.633 197.852 141.698C197.15 142.186 196.446 142.715 195.659 143.056C194.754 143.449 193.86 143.713 192.901 143.933C192.425 144.041 192.039 144.05 191.558 144.06C190.986 144.073 190.451 144.309 189.882 144.363C188.795 144.467 187.654 144.377 186.559 144.373C185.555 144.369 184.551 144.372 183.547 144.368C183.186 144.366 182.825 144.379 182.465 144.372C181.926 144.363 181.453 144.189 180.928 144.111C180.114 143.991 179.301 143.869 178.487 143.74C177.63 143.604 176.76 143.272 175.887 143.308C176.339 143.884 176.905 144.253 177.623 144.407C174.636 145.019 171.688 144.5 168.77 143.81C167.373 143.479 166.077 142.759 164.769 142.174C163.813 141.747 162.959 141.212 162.093 140.672C160.818 139.423 159.532 138.19 158.219 136.993C157.034 135.911 155.598 134.872 154.011 134.437C153.315 133.971 152.557 133.688 151.709 133.776C151.173 133.831 150.682 134.162 150.597 134.706C150.506 134.419 150.427 134.127 150.33 133.89C150.169 133.496 149.852 133.182 149.692 132.768C149.485 132.238 149.424 131.808 149.032 131.371C148.784 131.097 148.691 130.761 148.452 130.482C148.215 130.205 147.99 129.988 147.785 129.683C147.433 129.158 146.984 128.734 146.542 128.287C146.145 127.887 145.647 127.646 145.219 127.328C144.698 126.943 144.132 126.589 143.562 126.242C143.11 125.966 142.607 125.831 142.137 125.61C141.647 125.378 141.368 125.15 141.007 124.762C141.035 125.183 140.892 125.788 141.05 126.172C141.111 126.323 141.31 126.584 141.423 126.698C141.565 126.841 141.802 126.896 141.903 127.05C141.691 126.99 141.571 126.846 141.387 126.75C141.191 126.648 140.968 126.625 140.776 126.524C140.491 126.372 140.162 126.169 139.884 125.999C139.394 125.699 138.958 125.157 138.531 124.774C138.228 124.501 137.887 124.194 137.627 123.88C137.275 123.456 137.002 122.906 136.713 122.439C136.57 122.209 136.416 121.948 136.294 121.691C136.301 121.512 136.266 121.32 136.172 121.126C136.101 120.98 136.031 120.832 135.962 120.682C135.812 120.074 135.692 119.45 135.372 118.909C135.219 118.649 135.012 118.395 134.805 118.143C133.915 116.316 132.804 114.605 130.866 113.847C129.001 113.118 127.136 114.222 126.353 115.961C125.591 117.655 125.442 119.529 125.854 121.204C125.887 121.724 125.954 122.232 126.137 122.743C126.726 124.383 127.858 126.24 129.252 127.288C129.917 127.788 130.718 128.104 131.445 128.505C132.26 128.955 133.087 129.382 133.898 129.838C135.501 130.74 137.205 131.45 138.864 132.244C139.653 132.624 140.427 132.953 140.959 133.683C141.432 134.333 141.759 135.103 142.154 135.802C142.565 136.528 142.886 137.249 142.974 138.086C143.059 138.888 143.074 139.684 143.203 140.482C143.455 142.038 143.461 143.627 143.417 145.2C143.371 146.827 143.633 148.455 143.11 150.024C142.98 149.516 142.849 149.007 142.711 148.5C141.099 142.578 137.713 137.152 132.103 134.285C129.695 133.053 127.019 132.609 124.548 131.55C121.844 130.389 119.67 128.458 117.402 126.635C115.367 124.999 113.208 123.748 110.53 124.489C108.344 125.095 105.362 126.892 105.133 129.408C104.897 131.997 107.685 133.715 108.982 135.599C109.581 136.47 109.857 137.443 109.373 138.435C108.784 139.643 107.581 140.541 106.562 141.365C105.311 142.379 104.036 143.362 102.849 144.451C101.885 145.336 101.009 146.306 100.061 147.205C98.2591 148.911 96.1381 149.383 93.7481 149.739C96.2871 147.987 98.8511 146.152 100.512 143.489C100.744 143.118 100.961 142.726 101.15 142.318C101.253 142.171 101.35 142.021 101.437 141.867C102.49 139.984 102.145 138.138 100.773 136.528C100.093 135.731 99.2521 135.041 98.6501 134.183C97.9411 133.174 97.2911 132.121 96.7541 131.009C95.7321 128.893 95.0461 126.653 94.4101 124.396C94.2241 123.734 93.5331 123.44 92.9241 123.653C92.7741 123.604 92.6251 123.562 92.4891 123.524C91.4181 123.22 90.2971 123.135 89.1891 123.223C87.8871 123.327 86.6281 123.614 85.4401 124.162C84.7981 124.458 84.1791 124.807 83.5211 125.066C82.7031 125.388 81.8471 125.483 80.9791 125.566C79.0351 125.752 77.1911 126.204 75.2241 126.137C74.2771 126.105 73.2661 126.112 72.3361 125.901C71.7491 125.769 71.2681 125.413 70.7021 125.227C70.1731 125.051 69.6051 125.052 69.0531 125.082C68.4361 125.116 68.1631 125.381 68.0751 126.008C67.8951 127.285 68.3241 128.513 68.7401 129.7C68.9021 130.158 69.1781 130.551 69.3391 130.992C69.5551 131.586 69.4021 132.34 69.4081 132.958C69.4171 133.933 69.5611 134.904 69.5841 135.88C69.6241 137.603 69.6201 139.34 69.4551 141.053C69.3841 141.792 69.4191 142.535 69.4321 143.276C69.4481 144.184 69.2581 144.856 68.9831 145.708C68.5751 146.973 68.4371 148.37 67.5911 149.445C67.2181 149.92 66.8931 150.357 66.3921 150.703C65.9131 151.033 65.4141 151.327 64.9461 151.672C64.8161 151.303 65.0531 150.901 65.0641 150.526C65.0751 150.126 65.0961 149.847 65.1881 149.473C65.2861 149.071 65.3731 148.696 65.3701 148.276C65.3681 147.888 65.3871 147.588 65.4831 147.224C65.6841 146.466 65.5261 145.639 65.5201 144.867C65.5141 144.157 65.5121 143.454 65.3401 142.761C65.2181 142.268 65.0251 141.795 64.8991 141.303C64.6921 140.492 64.6231 139.654 64.4551 138.835C64.2461 137.818 63.9691 136.816 63.6971 135.815C63.2681 134.241 62.5241 132.86 61.8141 131.403C61.1191 129.975 60.5951 128.512 59.6231 127.235C58.7661 126.111 57.8811 125.088 57.1701 123.861C56.5181 122.736 55.7071 121.72 54.7501 120.838C53.1651 119.38 51.1061 118.591 49.0491 118.062C48.0651 117.809 47.0471 117.487 46.0271 117.434C44.8121 117.372 43.5711 117.353 42.3561 117.378C40.9261 117.406 39.4941 117.502 38.0711 117.628C36.7001 117.749 35.3311 117.895 33.9631 118.046C33.3121 118.117 32.6061 118.281 31.9521 118.252C31.4661 118.23 31.0121 118.102 30.5131 118.101C29.7381 118.1 28.9631 118.101 28.1891 118.105C27.6611 118.107 27.0921 118.169 26.5721 118.086C26.2691 118.037 25.9881 117.931 25.6771 117.937C25.3741 117.943 25.1431 117.965 24.8401 117.897C24.3151 117.778 23.7991 117.771 23.2661 117.669C22.7531 117.572 22.1731 117.668 21.6511 117.667C21.1731 117.666 20.8621 117.665 20.4311 117.9C20.0101 118.13 19.5721 118.438 19.1791 118.716C18.7841 118.995 18.4321 119.34 18.0611 119.649C17.6041 120.033 17.1401 120.349 16.6601 120.694C16.4151 120.87 16.1521 120.92 15.8861 121.053C15.6671 121.162 15.5001 121.339 15.2971 121.476C14.9051 121.742 14.5251 121.956 14.1501 122.243C13.7391 122.557 13.2601 122.809 12.8341 123.111C12.5081 123.342 12.1821 123.559 11.8461 123.776C11.5451 123.97 11.3691 124.236 11.1011 124.466C10.8571 124.673 10.5731 124.889 10.2981 125.053C9.98706 125.236 9.63606 125.271 9.31906 125.426C8.65506 125.751 8.14206 126.214 7.40106 126.4C6.83306 126.542 6.25406 126.807 5.74106 127.099C5.12706 127.447 4.40306 127.643 3.91806 128.113C3.60606 128.417 3.10206 128.624 2.71706 128.858C2.39306 129.055 0.845058 129.82 1.38306 128.833Z" fill="#FF6B2A"/>
</g>
<mask id="mask2_2006_6" style="mask-type:luminance" maskUnits="userSpaceOnUse" x="0" y="0" width="483" height="154">
<path d="M0.0113525 153.374H482.361V0.524017H0.0113525V153.374Z" fill="white"/>
</mask>
<g mask="url(#mask2_2006_6)">
<path d="M132.646 134.6C136.777 137.15 140.744 142.459 141.897 146.496C142.309 147.941 142.3 149.075 142.889 150.456C143.863 146.89 143.882 144.177 143.36 140.035C142.854 136.008 143.202 134.261 139.234 132.499C137.547 131.75 136.009 130.776 134.357 129.967C134.583 130.759 135.072 131.442 135.752 131.912C134.018 131.142 132.161 130.689 130.567 129.703C131.183 130.939 132.548 131.971 133.794 132.657C132.546 132.689 131.259 132.318 130.147 131.921C130.377 132.11 130.651 132.475 130.833 132.627C128.976 132.875 127.621 131.766 126.171 130.904C127.602 132.772 130.314 134.292 132.646 134.6Z" fill="#E9ECEA"/>
</g>
<mask id="mask3_2006_6" style="mask-type:luminance" maskUnits="userSpaceOnUse" x="0" y="0" width="483" height="154">
<path d="M0.0113525 153.374H482.361V0.524017H0.0113525V153.374Z" fill="white"/>
</mask>
<g mask="url(#mask3_2006_6)">
<path d="M92.8731 149.758C95.2551 147.93 99.2711 145.648 101.012 142.601C101.845 141.145 102.378 139.559 101.554 137.682C100.744 135.838 99.5291 134.183 98.7161 132.242C99.4971 133.575 101.32 134.561 102.644 135.293C102.094 133.625 101.326 132.207 101.458 130.409C102.357 132.265 103.745 133.831 105.499 134.997C104.954 134.393 104.583 133.657 104.415 132.848C105.162 133.84 105.939 134.988 107.27 135.027C106.829 134.431 106.376 133.645 106.103 133.005C107.482 133.809 109.293 135.488 109.71 137.102C110.241 139.151 109.243 139.548 107.774 140.875C105.327 143.087 102.64 146.092 99.7411 147.621C97.9501 148.565 96.4201 149.758 94.0741 149.608L92.8731 149.758Z" fill="#E9ECEA"/>
</g>
<mask id="mask4_2006_6" style="mask-type:luminance" maskUnits="userSpaceOnUse" x="0" y="0" width="483" height="154">
<path d="M0.0113525 153.374H482.361V0.524017H0.0113525V153.374Z" fill="white"/>
</mask>
<g mask="url(#mask4_2006_6)">
<path d="M64.8457 152.124C66.0837 145.708 64.9437 141.776 62.4257 132.594C61.4687 129.104 63.3837 131.519 62.2567 129.104C64.1267 131.46 65.1227 133.364 66.2777 136.208C66.3477 134.573 66.5517 132.603 66.1467 131.032C66.8157 132.087 66.6627 133.068 67.2077 133.954C67.7657 131.958 67.0637 129.575 66.4777 127.598C67.2947 128.357 67.8767 130.439 68.3357 131.356C68.3197 130.886 68.4267 129.119 68.3867 128.639C70.6427 131.018 70.3547 143.512 68.1567 148.469C67.5007 149.951 66.0857 151.175 64.8457 152.124Z" fill="#E9ECEA"/>
</g>
<mask id="mask5_2006_6" style="mask-type:luminance" maskUnits="userSpaceOnUse" x="0" y="0" width="483" height="154">
<path d="M0.0113525 153.374H482.361V0.524017H0.0113525V153.374Z" fill="white"/>
</mask>
<g mask="url(#mask5_2006_6)">
<path d="M0.869446 129.346C1.86545 128.147 2.84145 126.652 4.05445 125.489C5.10445 124.482 6.44045 123.308 7.60645 122.407C10.1744 120.418 12.4464 118.07 15.0384 116C16.3634 114.942 18.0624 114.136 19.7354 113.722C18.7214 115.034 17.2404 115.493 16.6434 117.158C17.9764 116.982 19.1554 115.958 20.4854 115.708C19.8174 116.074 19.2354 116.667 18.7304 117.166C20.8064 116.836 22.3584 115.836 24.4204 116.768C21.6004 118.842 18.5864 119.412 15.5424 121.684C12.7154 123.796 9.47345 125.649 6.42445 127.435C4.71545 128.437 3.07945 129.006 1.47045 129.646L0.869446 129.346Z" fill="#E9ECEA"/>
</g>
<mask id="mask6_2006_6" style="mask-type:luminance" maskUnits="userSpaceOnUse" x="0" y="0" width="483" height="154">
<path d="M0.0113525 153.374H482.361V0.524017H0.0113525V153.374Z" fill="white"/>
</mask>
<g mask="url(#mask6_2006_6)">
<path d="M70.8681 68.6432C68.6161 69.2192 69.3521 69.0852 67.5471 69.7822C65.0711 70.7392 62.7701 70.1862 59.7241 70.2892C56.4031 70.4012 58.8191 77.3742 59.2741 79.4622C59.7261 81.5412 58.7751 82.0012 58.1771 84.0052C57.4151 83.6732 56.6791 83.1862 55.9771 82.8382C55.5161 84.9372 56.0771 86.3322 56.2511 88.4022C56.4621 90.8872 55.3821 91.5942 54.1411 93.5372C52.1701 96.6182 51.1701 101.131 52.1481 104.711C52.7221 106.813 54.3171 108.411 55.2991 110.295C53.8981 109.995 52.2421 107.792 51.4281 109.371C50.7871 110.614 53.1941 115.047 53.7321 116.134C55.1191 118.933 56.2201 121.587 57.2761 124.532C55.3851 121.403 52.8861 119.303 49.5901 117.806C46.9701 116.615 44.4161 115.791 42.5261 113.47C41.3871 112.071 40.9991 110.863 40.7631 109.13C40.3571 110.101 40.3931 111.354 40.6571 112.333C37.4621 106.043 34.5791 98.7592 35.0851 91.6892C35.2351 89.5932 35.8411 87.9192 36.5681 85.9912C36.3071 86.4642 35.8131 87.1222 35.5701 87.6122C35.6061 84.3552 35.2151 81.1062 37.3821 78.3002C39.6341 75.3832 43.7361 75.1092 46.1471 72.2072C45.1961 73.0882 43.6671 73.1752 42.4961 73.4982C44.9401 66.8202 51.3171 67.7372 57.1051 67.9742C58.5351 68.0332 60.0511 68.0912 61.1931 67.0902C59.4731 67.1442 58.0901 66.0532 56.4471 66.1672C58.8841 64.7992 61.7081 64.4192 64.2121 65.5952C65.9651 66.4192 69.5351 67.5312 70.8681 68.6432Z" fill="#E9ECEA"/>
</g>
<mask id="mask7_2006_6" style="mask-type:luminance" maskUnits="userSpaceOnUse" x="0" y="0" width="483" height="154">
<path d="M0.0113525 153.374H482.361V0.524017H0.0113525V153.374Z" fill="white"/>
</mask>
<g mask="url(#mask7_2006_6)">
<path d="M68.1545 125.666C68.3295 124.273 69.5175 123.643 69.7855 122.529C70.4005 119.968 69.0215 121.033 68.0645 119.33C66.1275 115.88 71.7335 113.263 74.3285 112.749C76.4345 112.333 78.1775 113.122 80.2875 113.137C79.4265 113.224 78.3355 114.14 77.7295 115.057C80.6275 115.179 83.5985 115.108 86.4045 114.809C86.0475 115.565 85.2995 116.205 84.6385 116.562C88.4205 114.621 93.1275 116.135 97.3605 116.318C96.9055 117.083 96.1795 117.725 95.4105 118.096C97.8985 118.224 100.193 117.927 102.714 118.983C105.025 119.953 107.158 121.348 109.485 122.308C110.819 122.858 112.27 123.264 113.12 124.52C110.493 123.299 107.333 123.887 104.512 123.689C101.705 123.491 98.9285 122.581 96.0885 122.742C90.1015 123.08 84.9035 125.815 78.8265 126.04C75.4935 126.163 72.1625 126.346 68.3915 125.726L68.1545 125.666Z" fill="#E9ECEA"/>
</g>
<mask id="mask8_2006_6" style="mask-type:luminance" maskUnits="userSpaceOnUse" x="0" y="0" width="483" height="154">
<path d="M0.0113525 153.374H482.361V0.524017H0.0113525V153.374Z" fill="white"/>
</mask>
<g mask="url(#mask8_2006_6)">
<path d="M189.198 122.476C192.717 124.263 194.937 126.463 198.934 126.914C202.834 127.353 205.233 126.107 208.479 123.87C208.938 123.553 211.602 121.225 212.099 119.536C212.099 127.697 211.596 129.963 206.621 136.027C205.472 137.427 199.997 140.418 198.287 140.91C199.187 140.884 200.18 140.835 200.923 140.633C196.322 143.119 189.761 146.755 183.026 144.906C180.617 144.245 178.899 144.011 178.017 143.649C179.881 143.564 182.25 142.3 184.08 142.411C181.915 141.38 176.639 140.656 176.922 137.279C176.919 137.168 176.916 137.168 176.914 137.279C178.197 139.644 181.17 138.975 183.33 138.651C180.881 138.603 178.648 134.01 177.234 134.423C181.082 134.57 185.672 134.867 189.187 133.095C187.473 132.771 185.624 132.927 183.952 132.272C182.704 131.784 181.753 130.869 180.423 130.539C182.165 130.576 184.411 129.441 186.023 129.004C184.413 128.337 182.403 128.043 180.645 128.144C182.05 127.214 183.748 126.722 185.728 126.764C183.612 124.808 180.795 124.15 180.674 120.77C180.673 120.656 180.669 120.658 180.662 120.773C182.518 123.362 185.602 123.128 188.282 124.07C185.774 122.081 183.447 119.248 182.156 116.341C183.913 117.638 187.654 121.112 189.198 122.476Z" fill="#E9ECEA"/>
</g>
<mask id="mask9_2006_6" style="mask-type:luminance" maskUnits="userSpaceOnUse" x="0" y="0" width="483" height="154">
<path d="M0.0113525 153.374H482.361V0.524017H0.0113525V153.374Z" fill="white"/>
</mask>
<g mask="url(#mask9_2006_6)">
<path d="M70.3615 59.5951C69.5745 59.4511 69.2035 58.8251 69.3315 58.0391C68.1135 57.6721 66.7485 58.1691 65.5055 58.2451C67.1625 58.5851 68.7225 59.0111 70.4745 59.9321L70.3615 59.5951Z" fill="#020407"/>
</g>
<mask id="mask10_2006_6" style="mask-type:luminance" maskUnits="userSpaceOnUse" x="0" y="0" width="483" height="154">
<path d="M0.0113525 153.374H482.361V0.524017H0.0113525V153.374Z" fill="white"/>
</mask>
<g mask="url(#mask10_2006_6)">
<path d="M85.7828 66.462C86.0278 66.269 86.2718 65.775 86.6408 65.564C85.6108 64.155 83.5628 65.655 85.6698 66.575L85.7828 66.462Z" fill="#020407"/>
</g>
<mask id="mask11_2006_6" style="mask-type:luminance" maskUnits="userSpaceOnUse" x="0" y="0" width="483" height="154">
<path d="M0.0113525 153.374H482.361V0.524017H0.0113525V153.374Z" fill="white"/>
</mask>
<g mask="url(#mask11_2006_6)">
<path d="M195.966 37.4603C195.966 42.5563 195.966 46.5373 196.232 48.7653C196.391 50.3053 196.709 51.4733 198.301 51.6863C199.045 51.7923 200.213 51.8983 200.956 51.8983C201.646 51.8983 201.858 52.0573 201.858 52.3223C201.858 52.6943 201.487 52.8533 200.69 52.8533C197.346 52.8533 194.002 52.6943 192.622 52.6943C191.242 52.6943 187.898 52.8533 185.881 52.8533C185.138 52.8533 184.767 52.7473 184.767 52.3223C184.767 52.0573 184.979 51.8983 185.563 51.8983C186.359 51.8983 186.995 51.7923 187.474 51.6863C188.535 51.4733 188.801 50.3053 189.013 48.7653C189.278 46.5373 189.278 42.5563 189.278 37.4603V28.1183C189.278 20.0503 189.278 18.5643 189.171 16.8653C189.065 15.0613 188.642 14.2113 186.889 13.8403C186.465 13.7333 185.563 13.6813 184.819 13.6813C184.289 13.6813 183.917 13.5743 183.917 13.2553C183.917 12.8313 184.342 12.7253 185.138 12.7253C187.898 12.7253 191.242 12.8843 192.781 12.8843C194.799 12.8843 205.573 12.8843 206.794 12.8313C207.803 12.7783 208.44 12.7783 208.971 12.6193C209.289 12.5133 209.554 12.3013 209.82 12.3013C210.032 12.3013 210.192 12.5133 210.192 12.7783C210.192 13.1493 209.926 13.7873 209.767 15.1673C209.713 15.6973 209.607 18.8293 209.501 19.4663C209.448 19.8903 209.342 20.2093 208.971 20.2093C208.599 20.2093 208.493 19.9443 208.44 19.3603C208.44 18.9353 208.44 18.0863 208.121 17.3433C207.75 16.5993 206.635 15.8033 204.618 15.7503L196.444 15.5913C196.125 15.5913 195.966 15.7503 195.966 16.3343V29.6043C195.966 29.9223 196.019 30.0823 196.338 30.0823L203.132 30.0293C204.034 30.0293 204.777 30.0293 205.52 29.9763C206.529 29.9223 207.272 29.7103 207.803 29.0203C208.068 28.7023 208.174 28.4893 208.493 28.4893C208.705 28.4893 208.811 28.6493 208.811 28.9683C208.811 29.2863 208.546 30.6123 208.387 32.2583C208.28 33.3193 208.174 35.7613 208.174 36.1333C208.174 36.6113 208.174 37.1413 207.644 37.1413C207.325 37.1413 207.219 36.7703 207.219 36.3993C207.219 36.0273 207.113 35.3903 206.9 34.7533C206.635 34.0103 205.839 33.0543 204.194 32.8433C202.867 32.6833 197.24 32.6833 196.338 32.6833C196.073 32.6833 195.966 32.7893 195.966 33.1603V37.4603Z" fill="#FBC449"/>
</g>
<mask id="mask12_2006_6" style="mask-type:luminance" maskUnits="userSpaceOnUse" x="0" y="0" width="483" height="154">
<path d="M0.0113525 153.374H482.361V0.524017H0.0113525V153.374Z" fill="white"/>
</mask>
<g mask="url(#mask12_2006_6)">
<path d="M238.718 36.9638C238.718 27.0658 233.588 20.9248 227.066 20.9248C222.494 20.9248 217.284 23.7528 217.284 34.7548C217.284 43.9448 221.857 51.2358 229.493 51.2358C232.276 51.2358 238.718 49.7338 238.718 36.9638ZM211.796 36.1238C211.796 28.5688 216.289 18.8038 228.22 18.8038C238.122 18.8038 244.286 25.2098 244.286 35.3298C244.286 45.4468 237.923 53.4448 227.822 53.4448C216.409 53.4448 211.796 43.9448 211.796 36.1238Z" fill="#FBC449"/>
</g>
<mask id="mask13_2006_6" style="mask-type:luminance" maskUnits="userSpaceOnUse" x="0" y="0" width="483" height="154">
<path d="M0.0113525 153.374H482.361V0.524017H0.0113525V153.374Z" fill="white"/>
</mask>
<g mask="url(#mask13_2006_6)">
<path d="M262.071 34.3567C263.343 36.5217 269.786 48.4957 270.78 49.9097C271.455 50.8827 272.052 51.4127 273.087 51.7667C273.762 51.9867 274.24 52.0307 274.597 52.0307C274.876 52.0307 275.114 52.1197 275.114 52.3847C275.114 52.6937 274.797 52.8267 274.359 52.8267H273.166C272.211 52.8267 269.07 52.8267 266.007 52.7377C264.974 52.6937 264.655 52.6057 264.655 52.2957C264.655 52.0307 264.854 51.8987 265.212 51.8107C265.412 51.7667 265.57 51.3677 265.291 50.7937C263.105 46.4637 260.838 42.0897 259.008 38.7747L253.123 49.3357C252.726 50.0427 252.527 50.7057 252.566 51.1917C252.606 51.5897 252.964 51.8547 253.322 51.9427C253.561 51.9867 253.918 52.0307 254.237 52.0307C254.475 52.0307 254.714 52.1637 254.714 52.4287C254.714 52.7377 254.436 52.8267 253.918 52.8267H253.202C252.964 52.8267 250.459 52.6937 249.464 52.6937C248.709 52.6937 246.76 52.8267 246.123 52.8267H245.448C245.05 52.8267 244.851 52.6937 244.851 52.4287C244.851 52.1637 245.09 52.0307 245.408 52.0307C245.686 52.0307 246.283 51.9867 246.879 51.8107C248.033 51.4567 248.789 50.6167 250.14 48.4957L257.736 36.4337L250.896 23.8407C249.942 22.0737 248.987 21.0127 247.595 20.5267C246.959 20.3057 246.323 20.2177 245.925 20.2177C245.686 20.2177 245.527 20.0847 245.527 19.7757C245.527 19.5097 245.805 19.4217 246.323 19.4217C247.277 19.4217 250.498 19.5547 252.367 19.5547C252.924 19.5547 255.152 19.4217 256.623 19.4217C257.18 19.4217 257.418 19.5097 257.418 19.8197C257.418 20.1297 257.18 20.2177 256.822 20.2177C256.582 20.2177 256.066 20.2617 255.747 20.3947C255.39 20.5267 255.271 20.8367 255.271 21.1017C255.271 21.3657 255.43 21.8967 255.668 22.3827C257.378 25.9177 259.168 29.1427 260.719 32.1477C261.872 30.2037 265.531 24.0617 266.127 22.8247C266.445 22.2057 266.565 21.4987 266.565 21.1457C266.565 20.8367 266.285 20.4827 265.888 20.3497C265.491 20.2177 264.934 20.2177 264.616 20.2177C264.377 20.2177 264.139 20.1297 264.139 19.8197C264.139 19.5547 264.417 19.4217 264.974 19.4217C266.525 19.4217 268.195 19.5547 268.951 19.5547C269.745 19.5547 271.376 19.4217 272.847 19.4217C273.285 19.4217 273.563 19.5547 273.563 19.8197C273.563 20.0847 273.325 20.2177 272.927 20.2177C272.53 20.2177 272.052 20.3057 271.496 20.4827C270.581 20.7477 269.786 21.9847 268.592 23.9287L262.071 34.3567Z" fill="#FBC449"/>
</g>
<mask id="mask14_2006_6" style="mask-type:luminance" maskUnits="userSpaceOnUse" x="0" y="0" width="483" height="154">
<path d="M0.0113525 153.374H482.361V0.524017H0.0113525V153.374Z" fill="white"/>
</mask>
<g mask="url(#mask14_2006_6)">
<path d="M281.317 32.2357C281.317 25.5197 281.317 24.2817 281.238 22.8687C281.158 21.3667 280.839 20.6597 279.528 20.3497C279.209 20.2617 278.534 20.2167 277.976 20.2167C277.539 20.2167 277.3 20.1287 277.3 19.8197C277.3 19.5097 277.579 19.4217 278.176 19.4217C280.283 19.4217 282.789 19.5537 283.902 19.5537C285.175 19.5537 293.088 19.5537 293.843 19.5097C294.599 19.4217 295.235 19.3337 295.554 19.2447C295.752 19.2007 295.991 19.0687 296.19 19.0687C296.388 19.0687 296.429 19.2447 296.429 19.4657C296.429 19.7757 296.229 20.3057 296.11 22.3377C296.071 22.7807 295.991 24.7247 295.912 25.2547C295.872 25.4757 295.793 25.7407 295.514 25.7407C295.235 25.7407 295.156 25.5197 295.156 25.1217C295.156 24.8127 295.116 24.0617 294.918 23.5317C294.64 22.7357 294.241 22.2057 292.253 21.9407C291.577 21.8517 287.401 21.7637 286.606 21.7637C286.407 21.7637 286.328 21.8957 286.328 22.2057V33.3847C286.328 33.6937 286.368 33.8707 286.606 33.8707C287.481 33.8707 292.054 33.8707 292.969 33.7817C293.924 33.6937 294.519 33.5607 294.878 33.1197C295.156 32.7657 295.315 32.5457 295.514 32.5457C295.673 32.5457 295.793 32.6337 295.793 32.8987C295.793 33.1637 295.593 33.8707 295.475 36.1237C295.394 37.0077 295.315 38.7747 295.315 39.0847C295.315 39.4377 295.315 39.9247 294.957 39.9247C294.678 39.9247 294.599 39.7477 294.599 39.5267C294.56 39.0847 294.56 38.5097 294.44 37.9357C294.241 37.0527 293.684 36.3887 292.213 36.2127C291.458 36.1237 287.521 36.0797 286.567 36.0797C286.368 36.0797 286.328 36.2567 286.328 36.5217V40.0127C286.328 41.5147 286.288 45.5797 286.328 46.8617C286.407 49.9097 287.044 50.5727 291.1 50.5727C292.133 50.5727 293.804 50.5727 294.837 50.0427C295.872 49.5127 296.35 48.5847 296.628 46.7727C296.707 46.2867 296.787 46.1097 297.065 46.1097C297.382 46.1097 297.382 46.4637 297.382 46.9057C297.382 47.9217 297.065 50.9257 296.866 51.8107C296.588 52.9587 296.229 52.9587 294.719 52.9587C288.714 52.9587 286.049 52.6937 283.703 52.6937C282.789 52.6937 280.283 52.8257 278.692 52.8257C278.176 52.8257 277.897 52.6937 277.897 52.3847C277.897 52.1637 278.056 52.0307 278.534 52.0307C279.129 52.0307 279.607 51.9427 279.965 51.8547C280.76 51.6777 280.96 50.7057 281.118 49.4247C281.317 47.5687 281.317 44.0777 281.317 40.0127V32.2357Z" fill="#FBC449"/>
</g>
<mask id="mask15_2006_6" style="mask-type:luminance" maskUnits="userSpaceOnUse" x="0" y="0" width="483" height="154">
<path d="M0.0113525 153.374H482.361V0.524017H0.0113525V153.374Z" fill="white"/>
</mask>
<g mask="url(#mask15_2006_6)">
<path d="M305.057 52.2963C304.42 51.9863 304.302 51.7663 304.302 50.7943C304.302 48.3643 304.461 45.7123 304.5 45.0053C304.541 44.3423 304.66 43.8573 304.978 43.8573C305.335 43.8573 305.376 44.2543 305.376 44.6073C305.376 45.1823 305.535 46.1103 305.733 46.8613C306.608 50.1313 308.954 51.3243 311.419 51.3243C314.999 51.3243 316.749 48.6293 316.749 46.2873C316.749 44.1223 316.152 42.0453 312.852 39.2173L311.022 37.6263C306.648 33.8263 305.136 30.7333 305.136 27.1553C305.136 22.2943 308.795 18.8033 314.323 18.8033C316.908 18.8033 318.578 19.2453 319.612 19.5543C319.969 19.6433 320.169 19.7763 320.169 20.0853C320.169 20.6593 320.01 21.9413 320.01 25.3873C320.01 26.3593 319.89 26.7133 319.572 26.7133C319.294 26.7133 319.174 26.4483 319.174 25.9173C319.174 25.5193 318.975 24.1503 318.14 23.0013C317.544 22.1623 316.391 20.8363 313.806 20.8363C310.863 20.8363 309.074 22.7363 309.074 25.3873C309.074 27.4193 309.988 28.9663 313.289 31.7503L314.402 32.6773C319.174 36.7873 320.925 39.7473 320.925 43.9453C320.925 46.5083 320.049 49.5563 317.186 51.6333C315.198 53.0473 312.971 53.4453 310.863 53.4453C308.557 53.4453 306.767 53.1363 305.057 52.2963Z" fill="#FBC449"/>
</g>
<mask id="mask16_2006_6" style="mask-type:luminance" maskUnits="userSpaceOnUse" x="0" y="0" width="483" height="154">
<path d="M0.0113525 153.374H482.361V0.524017H0.0113525V153.374Z" fill="white"/>
</mask>
<g mask="url(#mask16_2006_6)">
<path d="M343.79 19.5992C343.909 18.8472 344.147 18.4502 344.466 18.4502C344.784 18.4502 345.022 18.6712 345.54 19.8202L356.396 44.7402L367.213 19.5102C367.491 18.8032 367.73 18.4502 368.088 18.4502C368.446 18.4502 368.684 18.8922 368.804 19.8202L372.422 47.1262C372.78 49.9102 373.178 51.1922 374.371 51.5892C375.524 51.9872 376.319 52.0312 376.836 52.0312C377.195 52.0312 377.473 52.0752 377.473 52.3402C377.473 52.6942 376.995 52.8262 376.439 52.8262C375.445 52.8262 369.957 52.6942 368.366 52.5612C367.451 52.4732 367.213 52.3402 367.213 52.0752C367.213 51.8542 367.372 51.7222 367.651 51.5892C367.889 51.5012 368.008 50.9272 367.848 49.6892L365.463 30.2482H365.304L356.635 50.3072C355.72 52.3842 355.521 52.7822 355.163 52.7822C354.806 52.7822 354.408 51.8982 353.771 50.5732C352.817 48.5402 349.675 41.7802 349.199 40.5422C348.84 39.6152 346.454 34.0472 345.062 30.7332H344.903L342.836 48.3192C342.756 49.1152 342.717 49.6892 342.717 50.3962C342.717 51.2362 343.233 51.6342 343.909 51.8102C344.625 51.9872 345.182 52.0312 345.579 52.0312C345.898 52.0312 346.176 52.1192 346.176 52.3402C346.176 52.7382 345.818 52.8262 345.221 52.8262C343.552 52.8262 341.761 52.6942 341.046 52.6942C340.291 52.6942 338.382 52.8262 337.11 52.8262C336.712 52.8262 336.393 52.7382 336.393 52.3402C336.393 52.1192 336.632 52.0312 337.029 52.0312C337.348 52.0312 337.626 52.0312 338.222 51.8982C339.336 51.6342 339.655 49.9102 339.853 48.4082L343.79 19.5992Z" fill="#FBC449"/>
</g>
<mask id="mask17_2006_6" style="mask-type:luminance" maskUnits="userSpaceOnUse" x="0" y="0" width="483" height="154">
<path d="M0.0113525 153.374H482.361V0.524017H0.0113525V153.374Z" fill="white"/>
</mask>
<g mask="url(#mask17_2006_6)">
<path d="M404.598 36.9638C404.598 27.0658 399.468 20.9248 392.946 20.9248C388.373 20.9248 383.163 23.7528 383.163 34.7548C383.163 43.9448 387.736 51.2358 395.372 51.2358C398.156 51.2358 404.598 49.7338 404.598 36.9638ZM377.676 36.1238C377.676 28.5688 382.169 18.8038 394.099 18.8038C404.001 18.8038 410.165 25.2098 410.165 35.3298C410.165 45.4468 403.802 53.4448 393.702 53.4448C382.288 53.4448 377.676 43.9448 377.676 36.1238Z" fill="#FBC449"/>
</g>
<mask id="mask18_2006_6" style="mask-type:luminance" maskUnits="userSpaceOnUse" x="0" y="0" width="483" height="154">
<path d="M0.0113525 153.374H482.361V0.524017H0.0113525V153.374Z" fill="white"/>
</mask>
<g mask="url(#mask18_2006_6)">
<path d="M439.871 36.9638C439.871 27.0658 434.741 20.9248 428.219 20.9248C423.646 20.9248 418.436 23.7528 418.436 34.7548C418.436 43.9448 423.009 51.2358 430.645 51.2358C433.429 51.2358 439.871 49.7338 439.871 36.9638ZM412.949 36.1238C412.949 28.5688 417.442 18.8038 429.372 18.8038C439.274 18.8038 445.438 25.2098 445.438 35.3298C445.438 45.4468 439.075 53.4448 428.975 53.4448C417.561 53.4448 412.949 43.9448 412.949 36.1238Z" fill="#FBC449"/>
</g>
<mask id="mask19_2006_6" style="mask-type:luminance" maskUnits="userSpaceOnUse" x="0" y="0" width="483" height="154">
<path d="M0.0113525 153.374H482.361V0.524017H0.0113525V153.374Z" fill="white"/>
</mask>
<g mask="url(#mask19_2006_6)">
<path d="M454.589 46.8174C454.668 50.2644 455.185 51.4124 455.98 51.7214C456.657 51.9874 457.412 52.0314 458.049 52.0314C458.486 52.0314 458.724 52.1194 458.724 52.3844C458.724 52.7384 458.367 52.8264 457.809 52.8264C455.226 52.8264 453.634 52.6944 452.879 52.6944C452.521 52.6944 450.652 52.8264 448.584 52.8264C448.068 52.8264 447.709 52.7824 447.709 52.3844C447.709 52.1194 447.948 52.0314 448.345 52.0314C448.862 52.0314 449.578 51.9874 450.135 51.8104C451.169 51.4564 451.328 50.1754 451.368 46.3314L451.725 20.1734C451.725 19.2904 451.845 18.6714 452.243 18.6714C452.68 18.6714 453.038 19.2454 453.714 20.0404C454.191 20.6154 460.236 27.8174 466.042 34.2244C468.746 37.2284 474.114 43.5914 474.791 44.2984H474.989L474.592 24.4594C474.552 21.7644 474.194 20.9244 473.24 20.4824C472.643 20.2174 471.689 20.2174 471.132 20.2174C470.654 20.2174 470.495 20.0854 470.495 19.8194C470.495 19.4664 470.933 19.4224 471.529 19.4224C473.598 19.4224 475.506 19.5544 476.341 19.5544C476.779 19.5544 478.29 19.4224 480.239 19.4224C480.756 19.4224 481.154 19.4664 481.154 19.8194C481.154 20.0854 480.914 20.2174 480.437 20.2174C480.04 20.2174 479.722 20.2174 479.244 20.3504C478.131 20.7034 477.812 21.6314 477.773 24.1064L477.336 51.9874C477.336 52.9594 477.177 53.3564 476.818 53.3564C476.381 53.3564 475.904 52.8704 475.467 52.3844C472.961 49.7334 467.871 43.9444 463.735 39.3944C459.401 34.6224 454.986 29.0984 454.27 28.2594H454.152L454.589 46.8174Z" fill="#FBC449"/>
</g>
<mask id="mask20_2006_6" style="mask-type:luminance" maskUnits="userSpaceOnUse" x="0" y="0" width="483" height="154">
<path d="M0.0113525 153.374H482.361V0.524017H0.0113525V153.374Z" fill="white"/>
</mask>
<g mask="url(#mask20_2006_6)">
<path d="M190.581 91.9734C186.911 88.3154 186.002 83.5224 186.002 79.5284C186.002 76.7114 186.873 71.7924 190.24 68.0504C192.511 65.5274 195.955 63.5514 201.783 63.5514C203.296 63.5514 205.415 63.6774 207.27 64.0554C208.708 64.3504 209.918 64.6024 211.13 64.6864C211.546 64.7284 211.621 64.8964 211.621 65.1494C211.621 65.4854 211.508 65.9904 211.432 67.5034C211.356 68.8914 211.356 71.2034 211.318 71.8334C211.281 72.4644 211.205 72.7164 210.978 72.7164C210.713 72.7164 210.675 72.4234 210.675 71.8334C210.675 70.1944 210.07 68.4704 209.086 67.5454C207.761 66.2844 204.848 65.1494 201.518 65.1494C196.484 65.1494 194.138 66.7884 192.814 68.2184C190.051 71.1614 189.408 74.9034 189.408 79.1914C189.408 87.2234 194.971 94.5804 203.069 94.5804C205.908 94.5804 208.14 94.2024 209.653 92.4784C210.448 91.5534 210.94 89.7034 211.054 88.9464C211.13 88.4834 211.205 88.3154 211.432 88.3154C211.621 88.3154 211.697 88.6094 211.697 88.9464C211.697 89.2414 211.243 92.8984 210.865 94.3284C210.638 95.1274 210.562 95.2114 209.88 95.5474C208.367 96.2204 205.491 96.5144 203.069 96.5144C197.393 96.5144 193.571 94.9584 190.581 91.9734Z" fill="white"/>
</g>
<mask id="mask21_2006_6" style="mask-type:luminance" maskUnits="userSpaceOnUse" x="0" y="0" width="483" height="154">
<path d="M0.0113525 153.374H482.361V0.524017H0.0113525V153.374Z" fill="white"/>
</mask>
<g mask="url(#mask21_2006_6)">
<path d="M235.459 82.0088C235.649 82.0088 235.649 81.8828 235.61 81.7138L232.015 70.3628C231.826 69.7318 231.637 69.7318 231.447 70.3628L228.118 81.7138C228.042 81.9248 228.118 82.0088 228.231 82.0088H235.459ZM231.524 65.1908C231.977 63.8038 232.129 63.5518 232.356 63.5518C232.583 63.5518 232.735 63.7608 233.189 65.0648C233.756 66.6628 239.697 84.0268 242.006 90.4188C243.369 94.1598 244.466 94.8328 245.26 95.0848C245.828 95.2958 246.396 95.3368 246.774 95.3368C247.001 95.3368 247.152 95.3788 247.152 95.5888C247.152 95.8408 246.812 95.9258 246.396 95.9258C245.828 95.9258 243.066 95.9258 240.454 95.8408C239.735 95.7998 239.319 95.7998 239.319 95.5478C239.319 95.3788 239.432 95.2958 239.584 95.2528C239.811 95.1688 240.038 94.7908 239.811 94.1178L236.292 83.7748C236.216 83.6068 236.14 83.5228 235.951 83.5228H227.815C227.626 83.5228 227.512 83.6488 227.437 83.8588L225.166 91.3008C224.825 92.3518 224.637 93.3608 224.637 94.1178C224.637 94.9588 225.431 95.3368 226.074 95.3368H226.453C226.718 95.3368 226.831 95.4218 226.831 95.5888C226.831 95.8408 226.604 95.9258 226.264 95.9258C225.355 95.9258 223.728 95.7998 223.312 95.7998C222.895 95.7998 220.814 95.9258 219.035 95.9258C218.544 95.9258 218.317 95.8408 218.317 95.5888C218.317 95.4218 218.468 95.3368 218.657 95.3368C218.922 95.3368 219.452 95.2958 219.755 95.2528C221.495 95.0008 222.252 93.4038 222.933 91.3008L231.524 65.1908Z" fill="white"/>
</g>
<mask id="mask22_2006_6" style="mask-type:luminance" maskUnits="userSpaceOnUse" x="0" y="0" width="483" height="154">
<path d="M0.0113525 153.374H482.361V0.524017H0.0113525V153.374Z" fill="white"/>
</mask>
<g mask="url(#mask22_2006_6)">
<path d="M260.888 79.9905C260.888 80.2005 260.964 80.3685 261.152 80.4955C261.72 80.8745 263.461 81.1685 265.126 81.1685C266.035 81.1685 267.094 81.0415 267.964 80.3685C269.289 79.3595 270.272 77.0895 270.272 73.8945C270.272 68.6385 267.776 65.4845 263.726 65.4845C262.59 65.4845 261.569 65.6115 261.19 65.7375C261.001 65.8215 260.888 65.9895 260.888 66.2415V79.9905ZM257.86 76.3325C257.86 69.7745 257.86 68.5965 257.785 67.2505C257.709 65.8215 257.406 65.1495 256.158 64.8545C255.855 64.7695 255.212 64.7285 254.87 64.7285C254.72 64.7285 254.568 64.6445 254.568 64.4755C254.568 64.2235 254.758 64.1405 255.174 64.1405C256.877 64.1405 259.26 64.2665 259.45 64.2665C259.866 64.2665 262.742 64.1405 263.916 64.1405C266.3 64.1405 268.834 64.3925 270.84 65.9895C271.787 66.7465 273.452 68.8065 273.452 71.7075C273.452 74.8195 272.278 77.9305 268.872 81.4205C271.975 85.8355 274.549 89.5775 276.744 92.1835C278.787 94.5805 280.415 95.0425 281.361 95.2115C282.08 95.3365 282.609 95.3365 282.837 95.3365C283.026 95.3365 283.177 95.4625 283.177 95.5885C283.177 95.8405 282.95 95.9265 282.269 95.9265H279.582C277.463 95.9265 276.517 95.7145 275.533 95.1265C273.905 94.1595 272.581 92.0995 270.424 88.9465C268.834 86.6335 267.056 83.8165 266.3 82.7235C266.148 82.5555 266.035 82.4715 265.808 82.4715L261.152 82.3865C260.964 82.3865 260.888 82.5135 260.888 82.7235V83.7325C260.888 87.7685 260.888 91.0905 261.077 92.8565C261.19 94.0755 261.418 95.0005 262.552 95.1685C263.082 95.2525 263.916 95.3365 264.256 95.3365C264.482 95.3365 264.558 95.4625 264.558 95.5885C264.558 95.7995 264.37 95.9265 263.953 95.9265C261.872 95.9265 259.488 95.7995 259.298 95.7995C259.26 95.7995 256.877 95.9265 255.741 95.9265C255.325 95.9265 255.136 95.8405 255.136 95.5885C255.136 95.4625 255.212 95.3365 255.438 95.3365C255.779 95.3365 256.233 95.2525 256.574 95.1685C257.33 95.0005 257.52 94.0755 257.671 92.8565C257.86 91.0905 257.86 87.7685 257.86 83.7325V76.3325Z" fill="white"/>
</g>
<mask id="mask23_2006_6" style="mask-type:luminance" maskUnits="userSpaceOnUse" x="0" y="0" width="483" height="154">
<path d="M0.0113525 153.374H482.361V0.524017H0.0113525V153.374Z" fill="white"/>
</mask>
<g mask="url(#mask23_2006_6)">
<path d="M291.689 76.3325C291.689 69.7735 291.689 68.5965 291.613 67.2515C291.538 65.8225 291.235 65.1485 289.987 64.8545C289.683 64.7705 289.04 64.7285 288.699 64.7285C288.548 64.7285 288.397 64.6445 288.397 64.4765C288.397 64.2235 288.586 64.1395 289.002 64.1395C290.705 64.1395 293.089 64.2655 293.279 64.2655C293.543 64.2655 301.074 64.2655 301.944 64.2235C302.663 64.1815 303.269 64.0975 303.572 64.0135C303.761 63.9715 303.912 63.8035 304.101 63.8035C304.215 63.8035 304.253 63.9715 304.253 64.1815C304.253 64.4765 304.064 64.9805 303.95 66.1575C303.912 66.5785 303.836 68.4285 303.761 68.9325C303.723 69.1435 303.647 69.3955 303.496 69.3955C303.269 69.3955 303.193 69.1845 303.193 68.8495C303.193 68.5545 303.155 67.8405 302.966 67.3345C302.701 66.6625 302.323 66.1575 300.279 65.9055C299.636 65.8225 295.511 65.7795 295.094 65.7795C294.943 65.7795 294.868 65.9055 294.868 66.1995V77.8055C294.868 78.0985 294.906 78.2245 295.094 78.2245C295.587 78.2245 300.241 78.2245 301.112 78.1405C302.02 78.0575 302.55 77.9725 302.891 77.5525C303.155 77.2165 303.306 77.0045 303.459 77.0045C303.572 77.0045 303.647 77.0905 303.647 77.3425C303.647 77.5935 303.459 78.3085 303.344 79.6965C303.269 80.5375 303.193 82.0935 303.193 82.3865C303.193 82.7235 303.193 83.1865 302.929 83.1865C302.739 83.1865 302.663 83.0185 302.663 82.8075C302.663 82.3865 302.663 81.9675 302.512 81.4205C302.361 80.8315 302.02 80.1165 300.544 79.9495C299.522 79.8235 295.777 79.7375 295.132 79.7375C294.943 79.7375 294.868 79.8645 294.868 80.0325V83.7325C294.868 85.1625 294.83 90.0395 294.868 90.9225C294.981 93.8235 295.549 94.3695 299.257 94.3695C300.241 94.3695 301.906 94.3695 302.891 93.9075C303.874 93.4455 304.329 92.6045 304.593 90.8795C304.669 90.4175 304.744 90.2495 304.934 90.2495C305.161 90.2495 305.161 90.5865 305.161 90.8795C305.161 91.2165 304.859 94.0755 304.669 94.9585C304.404 96.0515 304.101 96.0515 302.626 96.0515C296.911 96.0515 294.377 95.7995 293.279 95.7995C293.089 95.7995 290.705 95.9255 289.569 95.9255C289.154 95.9255 288.965 95.8415 288.965 95.5895C288.965 95.4635 289.04 95.3365 289.267 95.3365C289.607 95.3365 290.061 95.2535 290.402 95.1685C291.159 95.0015 291.349 94.0755 291.499 92.8565C291.689 91.0905 291.689 87.7685 291.689 83.7325V76.3325Z" fill="white"/>
</g>
<mask id="mask24_2006_6" style="mask-type:luminance" maskUnits="userSpaceOnUse" x="0" y="0" width="483" height="154">
<path d="M0.0113525 153.374H482.361V0.524017H0.0113525V153.374Z" fill="white"/>
</mask>
<g mask="url(#mask24_2006_6)">
<path d="M360.521 83.7325C360.521 87.7685 360.521 91.0905 360.711 92.8575C360.823 94.0755 361.051 95.0015 362.185 95.1685C362.715 95.2535 363.549 95.3375 363.889 95.3375C364.115 95.3375 364.191 95.4635 364.191 95.5895C364.191 95.7995 364.003 95.9255 363.586 95.9255C361.505 95.9255 359.121 95.7995 358.931 95.7995C358.742 95.7995 356.358 95.9255 355.223 95.9255C354.807 95.9255 354.618 95.8415 354.618 95.5895C354.618 95.4635 354.693 95.3375 354.92 95.3375C355.261 95.3375 355.715 95.2535 356.056 95.1685C356.813 95.0015 357.001 94.0755 357.153 92.8575C357.342 91.0905 357.342 87.7685 357.342 83.7325V79.3185C357.342 79.1505 357.229 79.0655 357.115 79.0655H341.07C340.956 79.0655 340.843 79.1085 340.843 79.3185V83.7325C340.843 87.7685 340.843 91.0905 341.032 92.8575C341.146 94.0755 341.373 95.0015 342.508 95.1685C343.038 95.2535 343.87 95.3375 344.211 95.3375C344.438 95.3375 344.514 95.4635 344.514 95.5895C344.514 95.7995 344.324 95.9255 343.908 95.9255C341.826 95.9255 339.443 95.7995 339.254 95.7995C339.064 95.7995 336.68 95.9255 335.544 95.9255C335.129 95.9255 334.94 95.8415 334.94 95.5895C334.94 95.4635 335.015 95.3375 335.242 95.3375C335.583 95.3375 336.036 95.2535 336.377 95.1685C337.134 95.0015 337.324 94.0755 337.474 92.8575C337.664 91.0905 337.664 87.7685 337.664 83.7325V76.3325C337.664 69.7745 337.664 68.5965 337.588 67.2515C337.513 65.8215 337.21 65.1495 335.962 64.8545C335.659 64.7705 335.015 64.7285 334.674 64.7285C334.523 64.7285 334.372 64.6445 334.372 64.4765C334.372 64.2235 334.562 64.1395 334.977 64.1395C336.68 64.1395 339.064 64.2665 339.254 64.2665C339.443 64.2665 341.826 64.1395 342.962 64.1395C343.378 64.1395 343.568 64.2235 343.568 64.4765C343.568 64.6445 343.416 64.7285 343.265 64.7285C343 64.7285 342.773 64.7705 342.318 64.8545C341.297 65.0645 340.994 65.7795 340.918 67.2515C340.843 68.5965 340.843 69.7745 340.843 76.3325V77.2165C340.843 77.4265 340.956 77.4675 341.07 77.4675H357.115C357.229 77.4675 357.342 77.4265 357.342 77.2165V76.3325C357.342 69.7745 357.342 68.5965 357.267 67.2515C357.191 65.8215 356.888 65.1495 355.639 64.8545C355.337 64.7705 354.693 64.7285 354.353 64.7285C354.201 64.7285 354.05 64.6445 354.05 64.4765C354.05 64.2235 354.239 64.1395 354.656 64.1395C356.358 64.1395 358.742 64.2665 358.931 64.2665C359.121 64.2665 361.505 64.1395 362.641 64.1395C363.056 64.1395 363.245 64.2235 363.245 64.4765C363.245 64.6445 363.094 64.7285 362.943 64.7285C362.678 64.7285 362.451 64.7705 361.997 64.8545C360.975 65.0645 360.672 65.7795 360.597 67.2515C360.521 68.5965 360.521 69.7745 360.521 76.3325V83.7325Z" fill="white"/>
</g>
<mask id="mask25_2006_6" style="mask-type:luminance" maskUnits="userSpaceOnUse" x="0" y="0" width="483" height="154">
<path d="M0.0113525 153.374H482.361V0.524017H0.0113525V153.374Z" fill="white"/>
</mask>
<g mask="url(#mask25_2006_6)">
<path d="M389.737 94.9162C393.142 94.9162 400.181 92.7302 400.181 80.4962C400.181 70.4042 394.656 64.9802 388.677 64.9802C382.357 64.9802 377.627 69.6052 377.627 78.8132C377.627 88.6102 382.925 94.9162 389.737 94.9162ZM388.942 63.5512C397.457 63.5512 403.814 69.5222 403.814 79.3182C403.814 88.7362 397.835 96.5142 388.715 96.5142C378.346 96.5142 374.032 87.5592 374.032 79.9902C374.032 73.1792 378.497 63.5512 388.942 63.5512Z" fill="white"/>
</g>
<mask id="mask26_2006_6" style="mask-type:luminance" maskUnits="userSpaceOnUse" x="0" y="0" width="483" height="154">
<path d="M0.0113525 153.374H482.361V0.524017H0.0113525V153.374Z" fill="white"/>
</mask>
<g mask="url(#mask26_2006_6)">
<path d="M446.051 90.5018C446.202 92.0158 446.467 94.3698 448.094 94.9588C449.192 95.3368 450.175 95.3368 450.554 95.3368C450.743 95.3368 450.857 95.3788 450.857 95.5478C450.857 95.7998 450.516 95.9258 450.062 95.9258C449.23 95.9258 445.143 95.7998 443.743 95.6738C442.872 95.5888 442.683 95.4628 442.683 95.2528C442.683 95.0848 442.759 95.0008 442.948 94.9588C443.137 94.9168 443.175 94.2018 443.099 93.4448L441.283 71.7508H441.169L431.898 93.6128C431.104 95.4628 430.989 95.8408 430.649 95.8408C430.384 95.8408 430.195 95.4218 429.476 93.9078C428.492 91.8478 425.238 84.5738 425.048 84.1528C424.708 83.3958 420.47 73.3058 420.053 72.1708H419.902L418.388 91.6788C418.35 92.3518 418.35 93.1088 418.35 93.8228C418.35 94.4548 418.766 95.0008 419.334 95.1268C419.977 95.2958 420.545 95.3368 420.772 95.3368C420.924 95.3368 421.075 95.4218 421.075 95.5478C421.075 95.8408 420.848 95.9258 420.394 95.9258C418.994 95.9258 417.177 95.7998 416.874 95.7998C416.534 95.7998 414.718 95.9258 413.696 95.9258C413.318 95.9258 413.052 95.8408 413.052 95.5478C413.052 95.4218 413.242 95.3368 413.431 95.3368C413.734 95.3368 413.999 95.3368 414.566 95.2108C415.814 94.9588 415.929 93.3188 416.08 91.7208L418.804 64.3078C418.88 63.8458 418.994 63.5508 419.221 63.5508C419.447 63.5508 419.6 63.7188 419.789 64.1818L431.368 90.6278L442.493 64.2238C442.645 63.8458 442.797 63.5508 443.061 63.5508C443.327 63.5508 443.44 63.8868 443.516 64.6868L446.051 90.5018Z" fill="white"/>
</g>
<mask id="mask27_2006_6" style="mask-type:luminance" maskUnits="userSpaceOnUse" x="0" y="0" width="483" height="154">
<path d="M0.0113525 153.374H482.361V0.524017H0.0113525V153.374Z" fill="white"/>
</mask>
<g mask="url(#mask27_2006_6)">
<path d="M462.926 76.3325C462.926 69.7735 462.926 68.5965 462.85 67.2515C462.774 65.8225 462.472 65.1485 461.224 64.8545C460.92 64.7705 460.277 64.7285 459.936 64.7285C459.785 64.7285 459.634 64.6445 459.634 64.4765C459.634 64.2235 459.823 64.1395 460.239 64.1395C461.942 64.1395 464.326 64.2655 464.516 64.2655C464.78 64.2655 472.311 64.2655 473.181 64.2235C473.9 64.1815 474.506 64.0975 474.809 64.0135C474.998 63.9715 475.149 63.8035 475.338 63.8035C475.452 63.8035 475.49 63.9715 475.49 64.1815C475.49 64.4765 475.301 64.9805 475.187 66.1575C475.149 66.5785 475.073 68.4285 474.998 68.9325C474.96 69.1435 474.884 69.3955 474.733 69.3955C474.506 69.3955 474.43 69.1845 474.43 68.8495C474.43 68.5545 474.392 67.8405 474.203 67.3345C473.938 66.6625 473.56 66.1575 471.516 65.9055C470.873 65.8225 466.748 65.7795 466.331 65.7795C466.18 65.7795 466.105 65.9055 466.105 66.1995V77.8055C466.105 78.0985 466.143 78.2245 466.331 78.2245C466.824 78.2245 471.478 78.2245 472.349 78.1405C473.257 78.0575 473.787 77.9725 474.128 77.5525C474.392 77.2165 474.543 77.0045 474.695 77.0045C474.809 77.0045 474.884 77.0905 474.884 77.3425C474.884 77.5935 474.695 78.3085 474.581 79.6965C474.506 80.5375 474.43 82.0935 474.43 82.3865C474.43 82.7235 474.43 83.1865 474.166 83.1865C473.976 83.1865 473.9 83.0185 473.9 82.8075C473.9 82.3865 473.9 81.9675 473.749 81.4205C473.598 80.8315 473.257 80.1165 471.781 79.9495C470.759 79.8235 467.014 79.7375 466.369 79.7375C466.18 79.7375 466.105 79.8645 466.105 80.0325V83.7325C466.105 85.1625 466.067 90.0395 466.105 90.9225C466.218 93.8235 466.786 94.3695 470.494 94.3695C471.478 94.3695 473.143 94.3695 474.128 93.9075C475.111 93.4455 475.566 92.6045 475.83 90.8795C475.906 90.4175 475.981 90.2495 476.171 90.2495C476.398 90.2495 476.398 90.5865 476.398 90.8795C476.398 91.2165 476.096 94.0755 475.906 94.9585C475.641 96.0515 475.338 96.0515 473.863 96.0515C468.148 96.0515 465.613 95.7995 464.516 95.7995C464.326 95.7995 461.942 95.9255 460.806 95.9255C460.391 95.9255 460.202 95.8415 460.202 95.5895C460.202 95.4635 460.277 95.3365 460.504 95.3365C460.844 95.3365 461.298 95.2535 461.639 95.1685C462.396 95.0015 462.586 94.0755 462.736 92.8565C462.926 91.0905 462.926 87.7685 462.926 83.7325V76.3325Z" fill="white"/>
</g>
</svg>
