<svg xmlns="http://www.w3.org/2000/svg" fill="currentColor" stroke="currentColor"><symbol fill="none" id="bookmark" viewBox="0 0 24 24"><title>bookmark</title><mask id="a" style="mask-type:alpha" maskUnits="userSpaceOnUse" x="0" y="0" width="24" height="24"><path fill="#D9D9D9" d="M0 0h24v24H0z"/></mask><g mask="url(#a)"><path d="M5 21V5c0-.55.196-1.02.588-1.413A1.926 1.926 0 0 1 7 3h10c.55 0 1.02.196 1.413.587.39.393.587.863.587 1.413v16l-7-3-7 3Zm2-3.05 5-2.15 5 2.15V5H7v12.95Z" fill="currentColor"/></g></symbol><symbol id="chevron-left-solid" viewBox="0 0 320 512"><title>chevron-left-solid</title><!--!Font Awesome Free 6.6.0 by @fontawesome - https://fontawesome.com License - https://fontawesome.com/license/free Copyright 2024 Fonticons, Inc.--><path d="M9.4 233.4c-12.5 12.5-12.5 32.8 0 45.3l192 192c12.5 12.5 32.8 12.5 45.3 0s12.5-32.8 0-45.3L77.3 256 246.6 86.6c12.5-12.5 12.5-32.8 0-45.3s-32.8-12.5-45.3 0l-192 192z"/></symbol><symbol id="chevron-right-solid" viewBox="0 0 320 512"><title>chevron-right-solid</title><!--!Font Awesome Free 6.6.0 by @fontawesome - https://fontawesome.com License - https://fontawesome.com/license/free Copyright 2024 Fonticons, Inc.--><path d="M310.6 233.4c12.5 12.5 12.5 32.8 0 45.3l-192 192c-12.5 12.5-32.8 12.5-45.3 0s-12.5-32.8 0-45.3L242.7 256 73.4 86.6c-12.5-12.5-12.5-32.8 0-45.3s32.8-12.5 45.3 0l192 192z"/></symbol><symbol fill="none" id="cloud-fog-svgrepo-com" viewBox="0 0 24 24"><title>cloud-fog-svgrepo-com</title><path d="M3 18h4m3 0h11M5 21h7m4 0h3M8.8 15C6.149 15 4 12.947 4 10.414 4 8.314 5.6 6.375 8 6a5.057 5.057 0 0 1 4.613-3c2.662 0 4.837 1.99 4.987 4.5 1.413.596 2.4 2.057 2.4 3.64 0 2.132-1.79 3.86-4 3.86H8.8Z" stroke-width="2" stroke-linecap="round" stroke-linejoin="round"/></symbol><symbol fill="none" id="cloud-fog-svgrepo" viewBox="0 0 24 24"><title>cloud-fog-svgrepo</title></symbol><symbol id="envelope-solid" viewBox="0 0 512 512"><title>envelope-solid</title><!--!Font Awesome Free 6.6.0 by @fontawesome - https://fontawesome.com License - https://fontawesome.com/license/free Copyright 2024 Fonticons, Inc.--><path d="M48 64C21.5 64 0 85.5 0 112c0 15.1 7.1 29.3 19.2 38.4l217.6 163.2c11.4 8.5 27 8.5 38.4 0l217.6-163.2c12.1-9.1 19.2-23.3 19.2-38.4 0-26.5-21.5-48-48-48H48zM0 176v208c0 35.3 28.7 64 64 64h384c35.3 0 64-28.7 64-64V176L294.4 339.2a63.9 63.9 0 0 1-76.8 0L0 176z"/></symbol><symbol id="facebook-brands-solid" viewBox="0 0 512 512"><title>facebook-brands-solid</title><!--!Font Awesome Free 6.6.0 by @fontawesome - https://fontawesome.com License - https://fontawesome.com/license/free Copyright 2024 Fonticons, Inc.--><path d="M512 256C512 114.6 397.4 0 256 0S0 114.6 0 256c0 120 82.7 220.8 194.2 248.5V334.2h-52.8V256h52.8v-33.7c0-87.1 39.4-127.5 125-127.5 16.2 0 44.2 3.2 55.7 6.4V172c-6-.6-16.5-1-29.6-1-42 0-58.2 15.9-58.2 57.2V256h83.6l-14.4 78.2H287v175.9C413.8 494.8 512 386.9 512 256z"/></symbol><symbol id="location-dot-solid" viewBox="0 0 384 512"><title>location-dot-solid</title><!--!Font Awesome Free 6.6.0 by @fontawesome - https://fontawesome.com License - https://fontawesome.com/license/free Copyright 2024 Fonticons, Inc.--><path d="M215.7 499.2C267 435 384 279.4 384 192 384 86 298 0 192 0S0 86 0 192c0 87.4 117 243 168.3 307.2 12.3 15.3 35.1 15.3 47.4 0zM192 128a64 64 0 1 1 0 128 64 64 0 1 1 0-128z"/></symbol><symbol id="phone-solid" viewBox="0 0 512 512"><title>phone-solid</title><!--!Font Awesome Free 6.6.0 by @fontawesome - https://fontawesome.com License - https://fontawesome.com/license/free Copyright 2024 Fonticons, Inc.--><path d="M164.9 24.6c-7.7-18.6-28-28.5-47.4-23.2l-88 24C12.1 30.2 0 46 0 64c0 247.4 200.6 448 448 448 18 0 33.8-12.1 38.6-29.5l24-88c5.3-19.4-4.6-39.7-23.2-47.4l-96-40c-16.3-6.8-35.2-2.1-46.3 11.6L304.7 368c-70.4-33.3-127.4-90.3-160.7-160.7l49.3-40.3c13.7-11.2 18.4-30 11.6-46.3l-40-96z"/></symbol></svg>