<svg width="104" height="42" viewBox="0 0 104 42" fill="none" xmlns="http://www.w3.org/2000/svg">
<path d="M103 21C103 23.5395 101.73 26.0575 99.223 28.4509C96.7138 30.8467 93.0298 33.0503 88.3951 34.922C79.1309 38.6633 66.2637 41 52 41C37.7363 41 24.8691 38.6633 15.6049 34.922C10.9702 33.0503 7.28619 30.8467 4.77699 28.4509C2.27028 26.0575 1 23.5395 1 21C1 18.4605 2.27028 15.9425 4.77699 13.5491C7.28619 11.1533 10.9702 8.94972 15.6049 7.078C24.8691 3.33669 37.7363 1 52 1C66.2637 1 79.1309 3.33669 88.3951 7.078C93.0298 8.94972 96.7138 11.1533 99.223 13.5491C101.73 15.9425 103 18.4605 103 21Z" stroke="black" stroke-width="2"/>
<path d="M103 21C103 21.3118 102.84 21.7406 102.259 22.2866C101.678 22.8324 100.766 23.4064 99.4997 23.9821C96.9733 25.1308 93.2545 26.1903 88.5807 27.0891C79.2497 28.8835 66.3159 30 52 30C37.6841 30 24.7503 28.8835 15.4193 27.0891C10.7455 26.1903 7.02675 25.1308 4.50031 23.9821C3.234 23.4064 2.32202 22.8324 1.74128 22.2866C1.16022 21.7406 1 21.3118 1 21C1 20.6882 1.16022 20.2594 1.74128 19.7133C2.32202 19.1676 3.234 18.5936 4.50031 18.0179C7.02675 16.8692 10.7455 15.8097 15.4193 14.9109C24.7503 13.1165 37.6841 12 52 12C66.3159 12 79.2497 13.1165 88.5807 14.9109C93.2545 15.8097 96.9733 16.8692 99.4997 18.0179C100.766 18.5936 101.678 19.1676 102.259 19.7133C102.84 20.2594 103 20.6882 103 21Z" stroke="black" stroke-width="2"/>
<circle cx="52.001" cy="21" r="20" transform="rotate(90 52.001 21)" stroke="black" stroke-width="2"/>
<path d="M52 0V42" stroke="black" stroke-width="2"/>
</svg>
