<svg xmlns="http://www.w3.org/2000/svg" width="116.541" height="4.135" viewBox="0 0 116.541 4.135"><g transform="translate(-518.144 -84.959)"><path d="M-749.213-252.266c3.264,0,3.264,3.135,6.528,3.135s3.264-3.135,6.53-3.135,3.263,3.135,6.526,3.135,3.265-3.135,6.531-3.135,3.268,3.135,6.536,3.135,3.268-3.135,6.535-3.135" transform="translate(1267.357 337.725)" fill="none" stroke="#0d2330" stroke-miterlimit="10" stroke-width="1"/><path d="M-706.912-252.266c3.264,0,3.264,3.135,6.528,3.135s3.265-3.135,6.53-3.135,3.263,3.135,6.526,3.135,3.265-3.135,6.531-3.135,3.268,3.135,6.536,3.135,3.268-3.135,6.536-3.135" transform="translate(1263.855 337.725)" fill="none" stroke="#0d2330" stroke-miterlimit="10" stroke-width="1"/><path d="M-749.213-252.266c3.264,0,3.264,3.135,6.528,3.135s3.264-3.135,6.53-3.135,3.263,3.135,6.526,3.135,3.265-3.135,6.531-3.135,3.268,3.135,6.536,3.135,3.268-3.135,6.535-3.135" transform="translate(1332.042 337.725)" fill="none" stroke="#0d2330" stroke-miterlimit="10" stroke-width="1"/><path d="M-706.912-252.266c3.264,0,3.264,3.135,6.528,3.135s3.265-3.135,6.53-3.135" transform="translate(1328.54 337.725)" fill="none" stroke="#0d2330" stroke-miterlimit="10" stroke-width="1"/></g></svg>