<svg width="94" height="80" viewBox="0 0 94 80" fill="none" xmlns="http://www.w3.org/2000/svg">
<path d="M27.5212 17.5097C27.6638 17.5442 27.7907 17.6254 27.8818 17.7405C27.9946 17.9154 28.0866 18.103 28.1558 18.2994L31.5851 28.3168L31.614 28.3962H32.1729L33.3989 24.1195L34.7548 28.3962H35.3389L38.3535 17.4592H39.3055V16.839H36.1755V17.4592H36.2945C37.2465 17.4592 37.2465 17.8955 37.2465 18.0398C37.2465 18.2453 37.2465 18.3427 37.2465 18.3751L35.2452 26.0343L33.8965 21.9739L35.1839 17.4592H36.0205V16.839H33.1321V17.4484H33.2403C33.482 17.4548 33.7185 17.5204 33.929 17.6395C33.9842 17.6876 34.0275 17.7477 34.0556 17.8153C34.0838 17.8828 34.096 17.9559 34.0913 18.029C34.0932 18.1846 34.0823 18.3402 34.0588 18.4941L33.3773 20.7875L32.2414 17.4484H32.9842V16.839H30.222V17.4592H30.341C30.593 17.4533 30.8395 17.5332 31.04 17.6859C31.2405 17.8386 31.3832 18.0549 31.4445 18.2994L32.8869 22.76L31.9493 26.0487L29.0645 17.4592H30.0742V16.839H26.6846V17.4592H26.8036C27.0438 17.4533 27.2841 17.4702 27.5212 17.5097Z" fill="#623C21"/>
<path d="M43.2073 22.9414C42.6051 22.9216 42.0076 23.053 41.4693 23.3237C41.0107 23.5369 40.6318 23.8905 40.3875 24.3333C40.1532 24.7312 40.0287 25.1842 40.0269 25.6459C40.0257 26.06 40.1312 26.4673 40.3334 26.8287C40.5268 27.2242 40.8306 27.5553 41.2082 27.7818C41.5858 28.0084 42.0209 28.1207 42.4609 28.1052C43.0669 28.101 43.6644 27.9618 44.2098 27.6977V27.8816H46.157V27.2542H46.038C45.7946 27.2623 45.5514 27.2332 45.3168 27.1676C45.2267 27.1424 45.1257 27.0811 45.1257 26.8575V22.3176C45.1157 21.9825 45.0161 21.6563 44.8373 21.3728C44.6276 21.0403 44.3374 20.7662 43.9935 20.5759C43.6487 20.3755 43.2563 20.2721 42.8576 20.2766C42.508 20.2679 42.1598 20.3229 41.8299 20.4389C41.5939 20.5197 41.3741 20.6418 41.1808 20.7995L41.1555 20.8247C41.1051 20.8608 41.0582 20.9004 41.0149 20.9365L40.8671 21.0591V20.0242H40.2432V23.4138H40.8671V23.2948C40.872 22.921 40.9556 22.5524 41.1123 22.213C41.2591 21.8474 41.4961 21.5249 41.801 21.2754C42.0511 21.0436 42.3795 20.9148 42.7205 20.9148C42.9625 20.9189 43.1961 21.004 43.384 21.1565C43.6147 21.3395 43.7957 21.5776 43.9105 21.8488C44.036 22.1241 44.1023 22.4226 44.1052 22.7251C44.1112 22.8235 44.1112 22.9223 44.1052 23.0207L43.2073 22.9414ZM44.2026 26.8034C43.7711 27.1824 43.219 27.3958 42.6448 27.4056C42.4218 27.4093 42.2002 27.3688 41.9929 27.2865C41.7856 27.2042 41.5966 27.0817 41.4368 26.926C41.0735 26.558 40.8689 26.0621 40.8671 25.5449C40.8555 25.1822 40.9495 24.824 41.1375 24.5136C41.3122 24.2338 41.5621 24.0089 41.8587 23.8645C42.1496 23.7252 42.4666 23.649 42.7891 23.641C43.0637 23.6105 43.3415 23.6527 43.5947 23.7635C43.8479 23.8742 44.0675 24.0496 44.2314 24.272L44.2026 26.8034Z" fill="#623C21"/>
<path d="M48.3386 18.9213C48.3386 17.2337 48.793 16.3971 49.7269 16.3971C50.176 16.4121 50.616 16.528 51.0142 16.7361V18.64H51.3316C51.3157 18.7729 51.3073 18.9065 51.3063 19.0403V20.5512H50.513V21.3084H51.3063V27.2511H50.513V27.8786H53.2391V27.2511H53.1165C52.7559 27.2511 52.5432 27.1862 52.4675 27.06C52.3721 26.8714 52.3262 26.6617 52.334 26.4506V21.3084H53.8954V20.5512H52.334V18.9213C52.334 17.2337 52.7884 16.3971 53.7187 16.3971C54.1679 16.4116 54.608 16.5275 55.0061 16.7361V16.9596L54.3714 17.7385L54.8114 18.164L55.0205 17.9549V18.6544H55.3522V27.2511H54.5589V27.8786H57.148V27.2511H57.0362C56.8592 27.2641 56.682 27.2279 56.5242 27.1465C56.4557 27.0961 56.38 26.9518 56.38 26.5804V16.3322L56.8379 15.7192L56.2069 15.5028L55.6299 16.224V15.5244H55.0061V15.766C54.7094 15.7164 54.409 15.6923 54.1082 15.6939C53.699 15.6718 53.2908 15.7538 52.9219 15.9322C52.5529 16.1107 52.2353 16.3798 51.9987 16.7144C51.8582 16.9303 51.7375 17.1584 51.6381 17.396V15.5244H51.0178V15.766C50.7199 15.7166 50.4184 15.6924 50.1164 15.6939C49.7075 15.671 49.2996 15.7527 48.9312 15.9313C48.5627 16.1098 48.2458 16.3794 48.0105 16.7144C47.5402 17.4029 47.2969 18.2211 47.3145 19.0547V20.5512H46.5176V21.3084H47.3109V27.2511H46.5176V27.8786H49.2437V27.2511H49.1247C48.7641 27.2511 48.5477 27.1862 48.472 27.06C48.3784 26.8708 48.3326 26.6616 48.3386 26.4506V21.3084H49.9V20.5512H48.3386V18.9213Z" fill="#623C21"/>
<path d="M59.196 27.5526C59.7306 27.8482 60.3305 28.0056 60.9413 28.0105H61.1721C62.0505 28.001 62.9096 27.7516 63.6566 27.2893C64.329 26.8006 64.833 26.1151 65.099 25.3277L65.1495 25.2123L64.5185 24.9959L64.4788 25.1005C64.2344 25.7077 63.812 26.2269 63.2672 26.5898C62.715 26.9599 62.0816 27.1912 61.4209 27.2641C61.374 27.2667 61.3278 27.2764 61.2839 27.2929C61.2697 27.2964 61.2548 27.2964 61.2406 27.2929C60.748 27.2796 60.2691 27.1271 59.8595 26.853C59.3808 26.5455 58.9817 26.1291 58.6948 25.6378C58.4118 25.1593 58.2612 24.6142 58.2585 24.0583C58.2722 23.6524 58.3615 23.2525 58.5217 22.8792H65.0377L64.9945 22.7277C64.8761 22.3168 64.6581 21.9415 64.3598 21.6351C64.0258 21.2632 63.6181 20.9648 63.1626 20.7589C62.6324 20.5293 62.0598 20.4138 61.482 20.42C60.9042 20.4263 60.3342 20.554 59.809 20.7949C59.2029 21.058 58.666 21.4579 58.2404 21.9633C57.7765 22.4961 57.4782 23.1528 57.3822 23.8528C57.3884 23.9513 57.3884 24.05 57.3822 24.1485C57.3676 24.2573 57.3604 24.3669 57.3606 24.4766C57.353 25.1246 57.5334 25.7609 57.8798 26.3085C58.2069 26.8273 58.6596 27.2552 59.196 27.5526ZM59.0842 22.1039C59.6824 21.5585 60.4714 21.2709 61.2803 21.3034C61.3643 21.3289 61.4498 21.3494 61.5363 21.3647L61.8681 21.4476C61.951 21.4729 62.0484 21.5017 62.1457 21.5378L62.409 21.6135L62.6001 21.6712C62.885 21.8695 63.0833 22.0065 63.2131 22.1039H59.0842Z" fill="#623C21"/>
<path d="M34.1267 39.9726C33.4154 39.5389 32.594 39.3198 31.7612 39.3416C30.7465 39.3565 29.7432 39.5569 28.8007 39.9329V39.3416H26.6118V39.9834H26.7272C27.0134 39.9596 27.2998 40.0264 27.5458 40.1745C27.631 40.2729 27.6954 40.3875 27.735 40.5115C27.7747 40.6355 27.7888 40.7662 27.7765 40.8957V49.8242H26.7416V50.448H30.2322V49.8242H30.1132C30.032 49.8227 29.9508 49.8312 29.8716 49.8494C29.7996 49.8536 29.7273 49.8536 29.6553 49.8494C28.8908 49.8494 28.8007 49.5213 28.8007 49.2725V48.27C29.5083 48.5458 30.2535 48.7135 31.0111 48.7676C31.9835 48.7906 32.9429 48.5408 33.7805 48.0464C34.5198 47.5906 35.1227 46.9442 35.5258 46.1749C35.8973 45.4351 36.0923 44.6192 36.0956 43.7914C36.0975 43.0358 35.9313 42.2894 35.6088 41.6061C35.2863 40.9276 34.7708 40.3593 34.1267 39.9726ZM31.2419 48.0356C30.3332 48.0341 29.4616 47.6753 28.8151 47.0367V40.939C29.0885 40.6466 29.4306 40.4272 29.8103 40.3008C30.2693 40.1196 30.7593 40.0302 31.2527 40.0375C32.1505 40.0295 33.0234 40.3327 33.7228 40.8957C34.444 41.4655 34.8695 42.3381 35.0066 43.5245C35.0066 43.5786 35.0066 43.712 35.0462 43.8851C35.0541 44.0052 35.0541 44.1256 35.0462 44.2457C35.0433 44.9003 34.8545 45.5406 34.5017 46.092C34.1449 46.6712 33.6491 47.1521 33.0593 47.4911C32.5109 47.8388 31.8767 48.0273 31.2275 48.0356H31.2419Z" fill="#623C21"/>
<path d="M42.3597 49.7352C42.2696 49.7064 42.1686 49.645 42.1686 49.4251V44.9176C42.1568 44.584 42.0573 44.2594 41.8801 43.9764C41.6822 43.6512 41.4057 43.3808 41.076 43.1903C40.7353 42.9896 40.3462 42.8861 39.9509 42.891C39.6014 42.8839 39.2535 42.9388 38.9232 43.0533C38.6897 43.1349 38.4725 43.2569 38.2813 43.4139L38.0866 43.5726L37.9712 43.6699V42.635H37.351V46.0066H37.9712V45.8912C37.9739 45.5175 38.0563 45.1487 38.2128 44.8094C38.3567 44.4451 38.5913 44.1236 38.8944 43.8755C39.142 43.6444 39.4679 43.5156 39.8067 43.5149C40.047 43.5187 40.2791 43.6024 40.4666 43.7529C40.695 43.9352 40.8757 44.1703 40.993 44.438C41.118 44.7122 41.1843 45.0094 41.1878 45.3107C41.1937 45.4091 41.1937 45.5079 41.1878 45.6063L40.3115 45.5234C39.7137 45.4998 39.1193 45.6236 38.5806 45.884C38.123 46.0987 37.7446 46.452 37.4988 46.8937C37.2648 47.2877 37.1403 47.7371 37.1382 48.1954C37.1356 48.6053 37.2387 49.009 37.4375 49.3674C37.6396 49.7464 37.9334 50.0687 38.2922 50.3049C38.6762 50.5255 39.1114 50.6412 39.5542 50.6403C40.1556 50.6355 40.7482 50.4963 41.2887 50.2328V50.4167H43.2179V49.7929H43.0989C42.851 49.8116 42.6017 49.7921 42.3597 49.7352ZM39.8644 46.2338C40.1337 46.208 40.4051 46.2518 40.6526 46.3611C40.9001 46.4703 41.1155 46.6413 41.2779 46.8576V49.3818C40.8495 49.7561 40.3033 49.9679 39.7345 49.9804C39.2868 49.9847 38.8553 49.8124 38.5338 49.5008C38.172 49.1367 37.9697 48.6438 37.9712 48.1305C37.9575 47.771 38.0517 47.4156 38.2417 47.11C38.4067 46.8302 38.6499 46.6046 38.9412 46.461C39.2297 46.3216 39.5442 46.2442 39.8644 46.2338Z" fill="#623C21"/>
<path d="M49.0055 49.741C49.0055 49.741 48.9334 49.6942 48.9334 49.4237V45.3562C48.9503 44.8637 48.8251 44.3767 48.5728 43.9534C48.3677 43.6388 48.0776 43.3887 47.7362 43.2322C47.4543 43.0992 47.1464 43.0303 46.8347 43.0303C46.523 43.0303 46.2151 43.0992 45.9332 43.2322C45.7601 43.3332 45.5257 43.4919 45.2337 43.701V43.564L45.6628 42.8428L45.212 42.6084L43.3838 44.992L43.8345 45.248L44.1951 44.7792V49.8276H43.5425V50.4514H46.2469V49.8276H46.1568C45.9071 49.8437 45.6577 49.7913 45.4356 49.6761C45.3094 49.604 45.2517 49.4273 45.2517 49.1605V45.6158C45.2243 45.1206 45.3696 44.6311 45.6628 44.2311C45.7695 44.0871 45.908 43.9696 46.0674 43.8877C46.2269 43.8057 46.4031 43.7616 46.5823 43.7587C46.8081 43.7587 47.0275 43.8335 47.2061 43.9715C47.4235 44.1311 47.5951 44.3449 47.7038 44.5917C47.8457 44.914 47.9146 45.2637 47.9057 45.6158V49.8276H47.1016V50.4514H49.8241V49.8276H49.7087C49.4708 49.8496 49.231 49.8201 49.0055 49.741Z" fill="#623C21"/>
<path d="M54.7851 48.965C54.6386 49.2645 54.4099 49.5161 54.1258 49.6905C53.8416 49.8648 53.5137 49.9546 53.1804 49.9495C52.4592 49.8665 52.1166 49.1165 52.1166 47.7138V43.9203H53.5302V43.1486H52.1166V39.8563H51.7993L51.0781 40.7182V43.1486H50.292V43.9203H51.0781V48.2475C51.0657 48.5725 51.1194 48.8967 51.236 49.2004C51.3525 49.5041 51.5294 49.781 51.756 50.0144C51.969 50.2335 52.2242 50.4073 52.5062 50.525C52.7882 50.6428 53.0912 50.7021 53.3967 50.6995C53.7766 50.7181 54.1533 50.6226 54.4785 50.4255C54.7206 50.2777 54.9166 50.0654 55.0447 49.8125C55.1534 49.6378 55.2201 49.4403 55.2394 49.2355V49.0696L54.8175 48.8569L54.7851 48.965Z" fill="#623C21"/>
<path d="M63.7783 43.2899V43.9137H63.8973C64.1235 43.9002 64.3504 43.9258 64.568 43.9894C64.687 44.0579 64.7158 44.2707 64.7158 44.4402C64.6455 45.1343 64.4867 45.8165 64.2434 46.4703C63.9982 47.2312 63.8035 47.7649 63.6629 48.0786L62.1123 43.9137H62.8335V43.2899H60.1867V42.6336H59.5484V43.2105C59.3015 43.1044 59.0346 43.0528 58.7659 43.0591C58.4884 43.0534 58.213 43.1089 57.9593 43.2217C57.7057 43.3345 57.48 43.5018 57.2983 43.7118L57.85 42.9906L57.4245 42.5723L55.4448 44.8152L55.8775 45.2515L56.2742 44.8549V49.8095H55.4881V50.4333H58.1926V49.8095H58.0772C57.5435 49.8095 57.2983 49.5967 57.2983 49.1424V44.7467C57.7022 44.0976 58.1421 43.7731 58.5965 43.7731C58.7163 43.7587 58.8378 43.7757 58.9491 43.8225C59.0604 43.8693 59.1575 43.9442 59.2311 44.0399C59.4004 44.2422 59.4936 44.4973 59.4944 44.7611C59.533 45.1385 59.5511 45.5177 59.5484 45.897V46.016H60.1867V43.9353C60.7817 43.9353 61.1531 44.1805 61.3046 44.6385L63.1075 49.5751C62.8765 50.182 62.6017 50.7713 62.2854 51.3384C61.9472 51.9206 61.5777 52.484 61.1783 53.026C60.7276 53.5922 60.4968 53.6751 60.3959 53.6751C60.3828 53.6748 60.37 53.6717 60.3582 53.6661C60.3464 53.6605 60.3359 53.6525 60.3273 53.6426L60.2913 53.6138H59.7468V55.0562H59.8766C60.4108 54.9768 60.9039 54.7233 61.2793 54.335C61.7481 53.8701 62.1498 53.3421 62.4729 52.7664C62.8747 52.0297 63.23 51.2685 63.5367 50.4874C63.8756 49.6652 64.2579 48.6159 64.6906 47.379L65.8337 43.9245H66.6522V43.3007L63.7783 43.2899Z" fill="#623C21"/>
<path d="M91.6282 48.6808C88.4359 49.7029 85.3599 51.0578 82.4509 52.7232C82.862 51.8541 83.2442 50.9743 83.594 50.0691C86.3057 49.7771 92.0284 48.1688 93.2761 39.8317C93.2761 39.8317 89.699 41.0037 85.0941 45.2696C85.2924 44.4546 85.4547 43.6252 85.6026 42.7887C88.2061 41.797 93.2437 38.7355 92.5549 30.0559C92.5549 30.0559 89.4357 31.8589 86.1651 37.34C86.1651 36.9037 86.1975 36.4674 86.1975 36.0274C86.1975 35.4072 86.1723 34.7978 86.1435 34.1848C88.3539 32.6955 92.5657 28.7037 90.3949 20.7957C88.5552 23.2703 86.9164 25.8882 85.4944 28.6243C85.3249 27.7517 85.1338 26.8971 84.9102 26.0424C86.5437 24.3657 89.7891 19.851 86.1831 12.9816C86.1831 12.9816 84.2106 16.5226 83.6373 22.0218C83.2442 21.0013 82.8187 19.9916 82.3464 19.0108C83.4065 17.0707 85.1266 12.181 80.7237 5.57125C80.0072 8.46588 79.6774 11.4427 79.7428 14.424C79.2091 13.6162 78.6442 12.8301 78.048 12.0656C78.4879 9.76502 79.0793 3.5555 73.6199 0C73.6199 0 72.7292 2.05902 74.3411 7.93317C74.1499 7.74206 73.9408 7.57258 73.7425 7.38146C72.5648 5.48828 70.9527 3.90312 69.04 2.75738C67.1273 1.61164 64.9691 0.938349 62.7442 0.793317C62.7442 0.793317 64.7708 5.76958 73.6199 9.77584C73.6199 9.77584 68.4741 8.23247 65.3874 10.3925C65.3874 10.3925 71.8493 14.7629 77.0167 13.2772C77.6009 14.0453 78.167 14.8314 78.6899 15.6392C76.8003 15.1199 72.8626 14.2328 69.9201 14.835C69.9201 14.835 75.8844 20.4207 81.0987 20.0096C81.5494 20.9724 81.9641 21.9496 82.3283 22.9485C80.3595 21.9424 76.3352 20.1647 73.6235 20.7849C73.6235 20.7849 78.6718 27.2432 83.5291 26.8358C83.8873 28.2824 84.1594 29.749 84.3441 31.2279C84.3441 31.2279 84.3441 31.2639 84.3224 31.2819C84.3008 31.3 80.0529 25.4186 75.2317 26.1362C75.2317 26.1362 78.1165 32.5404 84.6073 34.7906C84.6073 35.2017 84.6434 35.6127 84.6434 36.0274C84.6434 37.0119 84.5929 37.9855 84.5172 38.9519C83.4786 37.1813 80.4352 32.5116 77.1105 32.014C77.1105 32.014 75.9962 36.489 83.9618 43.1096C83.7599 44.1661 83.5147 45.2011 83.2406 46.2252C82.4906 44.5484 80.1287 39.8642 76.6056 38.1838C76.6056 38.1838 75.5995 44.5412 81.9713 49.9574C81.4467 51.2954 80.8447 52.6017 80.1683 53.8699C80.0529 52.4419 79.2488 45.7275 74.644 44.3537C74.644 44.3537 74.0598 52.1246 78.3726 56.8123C77.6599 57.8898 76.892 58.9297 76.0719 59.9279C76.007 58.4675 75.5274 51.4322 72.5849 49.4958C72.5849 49.4958 70.1076 54.2665 73.4287 62.8199C72.3148 63.9188 71.1346 64.9484 69.8949 65.903L69.6028 65.9607C69.6028 65.9607 73.0501 58.4495 68.8059 54.5406C68.8059 54.5406 65.7155 57.0179 67.5366 67.5798C66.4681 68.2791 65.3644 68.923 64.2299 69.509C65.7094 66.0853 66.0063 62.2663 65.0737 58.655C65.0737 58.655 59.744 60.3426 60.5914 71.157C51.605 74.6656 41.6137 74.5856 32.6847 70.9334C33.4455 60.3174 28.188 58.673 28.188 58.673C27.2913 62.142 27.5302 65.8071 28.8695 69.1304C27.8094 68.5498 26.7781 67.9224 25.7864 67.2481C27.4776 56.971 24.4558 54.5514 24.4558 54.5514C20.8174 57.9014 22.8295 63.8945 23.4786 65.5388C22.2536 64.5662 21.0903 63.5185 19.9952 62.4016C23.0711 54.1079 20.6767 49.5066 20.6767 49.5066C18.0624 51.2231 17.3917 56.9494 17.2294 59.2428C16.5082 58.3413 15.8399 57.4061 15.2245 56.4373C19.1658 51.7207 18.6141 44.3645 18.6141 44.3645C14.7016 45.5364 13.5657 50.5884 13.2051 52.9323C12.6537 51.8414 12.1578 50.7234 11.7195 49.5823C17.608 44.2527 16.6452 38.1874 16.6452 38.1874C13.5946 39.6406 11.4093 43.3873 10.3997 45.4355C10.1653 44.5267 9.97777 43.6 9.80829 42.6661C17.2222 36.2835 16.1548 32.0031 16.1548 32.0031C13.27 32.4323 10.6088 35.9914 9.271 38.0901C9.23133 37.4013 9.20969 36.7126 9.20969 36.0166C9.20969 35.5298 9.20969 35.0466 9.23854 34.5742C15.3291 32.1546 18.0299 26.1362 18.0299 26.1362C14.3699 25.6025 11.0019 28.884 9.61717 30.467C9.79747 29.2458 10.0379 28.0438 10.3384 26.861C15.0262 26.7492 19.6598 20.7957 19.6598 20.7957C17.251 20.226 13.8001 21.5746 11.6798 22.5987C12.0091 21.7333 12.3697 20.8799 12.7616 20.0385C17.8316 20.0385 23.3704 14.8422 23.3704 14.8422C20.7561 14.305 17.3664 14.9504 15.311 15.4589C15.769 14.7629 16.2486 14.0742 16.7534 13.4035C21.8343 14.5213 27.8995 10.4177 27.8995 10.4177C25.2023 8.53177 20.94 9.46933 19.9014 9.73617L19.9808 9.65323C28.5594 5.68664 30.5608 0.818559 30.5608 0.818559C28.0941 0.972056 25.7111 1.77107 23.6504 3.13554C21.5898 4.50002 19.9239 6.38204 18.8197 8.59307L18.6718 8.74452C20.619 2.25735 19.6526 0 19.6526 0C13.6234 3.92692 14.9649 11.0956 15.3507 12.6534C14.6968 13.5357 14.0814 14.4456 13.5044 15.3831C13.6665 12.0793 13.3482 8.76932 12.5597 5.55683C7.65191 12.9311 10.36 18.1778 11.2651 19.5445C10.6992 20.7779 10.1962 22.0392 9.7578 23.3235C9.3936 17.0816 7.10019 12.9816 7.10019 12.9816C3.09754 20.6299 7.55094 25.3537 8.83107 26.4932C8.58586 27.4848 8.37311 28.4909 8.20723 29.5078C6.21312 25.1806 2.88479 20.7849 2.88479 20.7849C0.508444 29.4393 5.76958 33.4059 7.70239 34.5309C7.68076 35.025 7.66633 35.519 7.66633 36.0166C7.66633 36.8316 7.70239 37.6429 7.75287 38.4507C4.26228 32.0717 0.721198 30.0451 0.721198 30.0451C-0.0324539 39.482 5.99315 42.2766 8.29377 42.9942C8.47407 44.0111 8.70125 45.0136 8.96449 46.0052C3.98462 41.1263 0 39.8209 0 39.8209C1.34864 48.8359 7.93317 49.9898 10.2843 50.1052C10.6906 51.1582 11.1389 52.1871 11.6293 53.1919C8.48571 51.3114 5.13667 49.7978 1.64794 48.6808C3.68532 57.7283 11.7447 57.5227 13.948 57.2955C14.4913 58.1321 15.0658 58.9471 15.6716 59.7404C10.58 58.298 4.63009 57.9374 4.63009 57.9374C9.28542 65.6903 16.6741 64.2118 18.9567 63.5231C19.6562 64.2443 20.3774 64.9186 21.1203 65.5749C15.8267 65.0556 9.76862 65.9607 9.76862 65.9607C15.7798 73.1078 22.9701 69.7759 25.0328 68.5859C26.3731 69.4881 27.7676 70.307 29.2085 71.038C20.6731 70.0607 16.1584 73.4756 16.1584 73.4756C24.3657 78.9134 30.3877 74.067 32.1185 72.365C34.9383 73.5209 37.8842 74.3415 40.8955 74.8098C40.9929 74.9433 40.964 75.0731 40.7008 75.1704C40.4844 75.2209 40.2717 75.2642 40.0661 75.3183H40.0265C38.3066 75.6444 36.6576 76.2705 35.1548 77.1682V79.8149C46.3333 73.252 56.7907 79.5156 56.7907 79.5156V77.0491C55.3192 76.3366 53.7818 75.769 52.2003 75.3543C52.2003 75.3543 51.5079 75.1344 51.4466 74.9937C54.8393 74.6014 58.1659 73.7661 61.3415 72.5092C63.2635 74.3122 69.1773 78.7368 77.1357 73.4612C77.1357 73.4612 72.877 70.2158 64.8032 70.937C66.0961 70.275 67.3505 69.5407 68.5607 68.7374C70.9622 70.0319 77.7812 72.7616 83.5183 65.9391C83.5183 65.9391 77.9362 65.1025 72.8049 65.4992C73.4936 64.897 74.1572 64.2767 74.799 63.6313C77.4927 64.3308 84.2864 65.2071 88.6604 57.9158C85.1918 58.1618 81.7495 58.6949 78.3689 59.5096C78.9026 58.7884 79.4075 58.0672 79.8943 57.3136C82.6565 57.4795 89.753 57.0539 91.6462 48.6592" fill="#623C21"/>
</svg>
