<svg width="7" height="12" viewBox="0 0 7 12" fill="none" xmlns="http://www.w3.org/2000/svg">
<path d="M0.823329 11.9999C0.662835 12.0038 0.505228 11.9523 0.372421 11.8527C0.239613 11.753 0.138204 11.61 0.0822921 11.4438C0.0263804 11.2775 0.0187443 11.0961 0.0604452 10.9248C0.102146 10.7535 0.191112 10.6008 0.314974 10.488L5.04101 6.01386L0.314974 1.54132C0.229292 1.47173 0.157536 1.38338 0.104199 1.28173C0.0508615 1.18008 0.0170925 1.06732 0.005006 0.95057C-0.00708052 0.833825 0.00277616 0.715604 0.0339587 0.603264C0.0651411 0.490924 0.116977 0.386875 0.186222 0.297699C0.255466 0.208522 0.340627 0.136185 0.436371 0.085063C0.532115 0.0339403 0.636379 0.00522709 0.742635 0.000697136C0.84889 -0.00383282 0.954847 0.0158634 1.05387 0.0586805C1.15289 0.101499 1.24285 0.166446 1.31811 0.249461L6.72899 5.36542C6.81396 5.44555 6.8822 5.54501 6.92898 5.65711C6.97577 5.7692 7 5.89121 7 6.01465C7 6.13809 6.97577 6.2601 6.92898 6.37219C6.8822 6.48429 6.81396 6.58384 6.72899 6.66398L1.31811 11.7849C1.18142 11.919 1.0061 11.9951 0.823329 11.9999Z" fill="white"/>
</svg>
