<svg width="35" height="35" viewBox="0 0 35 35" fill="none" xmlns="http://www.w3.org/2000/svg">
<g opacity="0.5">
<path d="M17.5002 0C27.1651 0 35 7.83492 35 17.4998C35 27.1648 27.1651 35 17.5002 35C7.83524 35 0 27.1648 0 17.4998C0.0108948 7.83941 7.83941 0.0108947 17.5002 0ZM17.5002 33.2498C26.1987 33.2498 33.2501 26.1983 33.2501 17.4998C33.2501 8.80135 26.1987 1.74989 17.5002 1.74989C8.80167 1.74989 1.75021 8.80135 1.75021 17.4998C1.76014 26.1942 8.80583 33.2399 17.5002 33.2498Z" fill="#676767"/>
<path d="M19.549 10.7163C19.913 10.3981 20.4658 10.4352 20.784 10.7989C21.1018 11.1629 21.0647 11.7157 20.701 12.0339L14.4538 17.4998L20.7013 22.9661C21.0653 23.2843 21.1022 23.8371 20.7843 24.2008C20.4661 24.5648 19.9133 24.6019 19.5493 24.2837L12.5495 18.1587C12.3594 17.9927 12.2505 17.7523 12.2505 17.4998C12.2505 17.2473 12.3594 17.0073 12.5495 16.841L19.549 10.7163Z" fill="#676767"/>
</g>
</svg>
