<svg width="24" height="24" viewBox="0 0 24 24" fill="none" xmlns="http://www.w3.org/2000/svg">
<path d="M4.95557 21.4738C4.95557 22.8398 6.06722 23.9515 7.43325 23.9515C8.79928 23.9515 9.91093 22.8398 9.91093 21.4738C9.91093 20.1077 8.79928 18.9961 7.43325 18.9961C6.06722 18.9961 4.95557 20.1077 4.95557 21.4738ZM8.25914 21.4738C8.25914 21.9288 7.88832 22.2997 7.43325 22.2997C6.97818 22.2997 6.60736 21.9288 6.60736 21.4738C6.60736 21.0187 6.97818 20.6479 7.43325 20.6479C7.88832 20.6479 8.25914 21.0187 8.25914 21.4738Z" fill="#7E7E7E"/>
<path d="M19.8216 21.4738C19.8216 20.1077 18.7099 18.9961 17.3439 18.9961C15.9779 18.9961 14.8662 20.1077 14.8662 21.4738C14.8662 22.8398 15.9779 23.9515 17.3439 23.9515C18.7099 23.9515 19.8216 22.8398 19.8216 21.4738ZM16.518 21.4738C16.518 21.0187 16.8888 20.6479 17.3439 20.6479C17.799 20.6479 18.1698 21.0187 18.1698 21.4738C18.1698 21.9288 17.799 22.2997 17.3439 22.2997C16.8888 22.2997 16.518 21.9288 16.518 21.4738Z" fill="#7E7E7E"/>
<path d="M2.56027 1.65179C2.66268 2.62717 3.80242 13.453 3.97833 15.1254C4.1113 16.3899 5.17092 17.3438 6.4428 17.3438H19.3127C20.4731 17.3438 21.4923 16.5195 21.7359 15.3848L23.7197 6.12731C23.8246 5.63673 23.704 5.13211 23.3885 4.74311C23.073 4.35329 22.6047 4.12947 22.1034 4.12947H4.48213L4.12534 0.740001C4.08074 0.318795 3.72644 0 3.30358 0H0.825894C0.370001 0 0 0.370001 0 0.825894C0 1.28179 0.370001 1.65179 0.825894 1.65179H2.56027ZM22.1034 5.78126L20.1204 15.0387C20.0387 15.417 19.6992 15.692 19.3119 15.692H6.4428C6.01829 15.692 5.66564 15.374 5.62104 14.9528L4.65557 5.78126H22.1034Z" fill="#7E7E7E"/>
</svg>
