<svg width="19" height="14" viewBox="0 0 19 14" fill="none" xmlns="http://www.w3.org/2000/svg">
<path d="M11.0879 9.10633C10.6152 9.41637 10.0661 9.58026 9.5 9.58026C8.93393 9.58026 8.38486 9.41637 7.91216 9.10633L0.126506 3.99971C0.0833105 3.97138 0.0412285 3.94184 0 3.91147V12.2792C0 13.2386 0.791357 14 1.74908 14H17.2509C18.226 14 19 13.2214 19 12.2792V3.91143C18.9587 3.94188 18.9165 3.97149 18.8732 3.99985L11.0879 9.10633Z" fill="#8A8A8A"/>
<path d="M0.744043 3.08837L8.5297 8.19503C8.82442 8.38835 9.16219 8.48499 9.49996 8.48499C9.83777 8.48499 10.1756 8.38831 10.4703 8.19503L18.256 3.08837C18.7219 2.78297 19 2.27185 19 1.7202C19 0.771655 18.2156 0 17.2515 0H1.74848C0.784381 3.6509e-05 0 0.771691 0 1.72111C0 2.27185 0.278172 2.78297 0.744043 3.08837Z" fill="#8A8A8A"/>
</svg>
