<svg width="30" height="27" viewBox="0 0 30 27" fill="none" xmlns="http://www.w3.org/2000/svg">
<path d="M15 27C14.5729 27 14.1611 26.8435 13.8403 26.5591C12.6283 25.4871 11.4599 24.4797 10.429 23.591L10.4237 23.5864C7.40135 20.9809 4.79141 18.7309 2.97546 16.5144C0.945511 14.0364 0 11.687 0 9.12045C0 6.62679 0.845261 4.32624 2.37991 2.64227C3.93288 0.938389 6.06377 -3.05176e-05 8.38074 -3.05176e-05C10.1125 -3.05176e-05 11.6984 0.553806 13.0943 1.64597C13.7988 2.19726 14.4374 2.87196 15 3.65895C15.5628 2.87196 16.2012 2.19726 16.9059 1.64597C18.3018 0.553806 19.8878 -3.05176e-05 21.6195 -3.05176e-05C23.9362 -3.05176e-05 26.0674 0.938389 27.6203 2.64227C29.155 4.32624 30 6.62679 30 9.12045C30 11.687 29.0547 14.0364 27.0248 16.5141C25.2088 18.7309 22.5991 20.9807 19.5772 23.586C18.5445 24.476 17.3742 25.485 16.1595 26.5596C15.8389 26.8435 15.4269 27 15 27ZM8.38074 1.77771C6.56044 1.77771 4.88823 2.51261 3.67172 3.84719C2.43713 5.20191 1.75713 7.07458 1.75713 9.12045C1.75713 11.2791 2.5502 13.2096 4.32838 15.3801C6.04706 17.478 8.60344 19.6818 11.5633 22.2335L11.5688 22.2382C12.6036 23.1303 13.7766 24.1416 14.9975 25.2215C16.2257 24.1396 17.4005 23.1266 18.4373 22.2331C21.397 19.6813 23.9532 17.478 25.6718 15.3801C27.4498 13.2096 28.2429 11.2791 28.2429 9.12045C28.2429 7.07458 27.5629 5.20191 26.3283 3.84719C25.112 2.51261 23.4396 1.77771 21.6195 1.77771C20.286 1.77771 19.0617 2.20652 17.9807 3.05209C17.0174 3.80598 16.3463 4.75898 15.9528 5.42581C15.7505 5.76872 15.3944 5.97339 15 5.97339C14.6056 5.97339 14.2495 5.76872 14.0472 5.42581C13.6539 4.75898 12.9829 3.80598 12.0193 3.05209C10.9383 2.20652 9.71397 1.77771 8.38074 1.77771Z" fill="#B8B8B8"/>
</svg>
