<svg width="20" height="20" viewBox="0 0 20 20" fill="none" xmlns="http://www.w3.org/2000/svg">
<path d="M10 20C15.5133 20 20 15.5133 20 10C20 4.48668 15.5134 0 10 0C4.48662 0 0 4.48668 0 10C0 15.5133 4.48668 20 10 20ZM10 1.33331C14.78 1.33331 18.6667 5.21996 18.6667 10C18.6667 14.78 14.78 18.6667 10 18.6667C5.21996 18.6667 1.33331 14.78 1.33331 10C1.33331 5.21996 5.22002 1.33331 10 1.33331Z" fill="#676767"/>
<path d="M12.9167 13.1867C13.04 13.2867 13.1867 13.3334 13.3333 13.3334C13.53 13.3334 13.7233 13.2467 13.8533 13.0834C14.0833 12.7967 14.0366 12.3767 13.75 12.1467L10.6667 9.68003V4.6667C10.6667 4.30003 10.3667 4.00004 10 4.00004C9.63333 4.00004 9.33335 4.30003 9.33335 4.6667V10.0001C9.33335 10.2034 9.4267 10.3934 9.58334 10.52L12.9167 13.1867Z" fill="#676767"/>
</svg>
