<svg width="14" height="14" viewBox="0 0 14 14" fill="none" xmlns="http://www.w3.org/2000/svg">
<path d="M6.04628 4.52824e-06C7.18657 -0.00113142 8.30383 0.321079 9.26858 0.929289C10.2333 1.5375 11.006 2.40681 11.4972 3.43645C11.9883 4.46609 12.1777 5.61391 12.0435 6.74687C11.9093 7.87983 11.4569 8.95154 10.7388 9.83778L13.8059 12.9065C13.8666 12.9652 13.9151 13.0354 13.9484 13.113C13.9817 13.1906 13.9992 13.274 14 13.3585C14.0007 13.4429 13.9846 13.5267 13.9527 13.6048C13.9207 13.683 13.8735 13.754 13.8138 13.8137C13.7541 13.8734 13.6832 13.9207 13.605 13.9526C13.5269 13.9846 13.4432 14.0007 13.3588 14C13.2744 13.9992 13.191 13.9817 13.1134 13.9484C13.0359 13.915 12.9657 13.8666 12.9071 13.8058L9.83998 10.7371C9.08879 11.3459 8.2025 11.7654 7.25561 11.9602C6.30873 12.1551 5.32892 12.1197 4.39855 11.857C3.46819 11.5943 2.61446 11.1119 1.90913 10.4505C1.20381 9.78901 0.667502 8.96781 0.345299 8.0559C0.0230942 7.14398 -0.0755901 6.168 0.0575409 5.20999C0.190672 4.25198 0.551728 3.33996 1.11036 2.55057C1.66898 1.76119 2.40886 1.11753 3.26778 0.673694C4.1267 0.229857 5.07957 -0.00117952 6.04628 4.52824e-06ZM6.04628 10.8121C7.30079 10.8128 8.50461 10.3168 9.39501 9.43264C9.40136 9.42565 9.40391 9.41547 9.4109 9.40847C9.41789 9.40148 9.42806 9.39893 9.43505 9.39257C10.2082 8.60828 10.6859 7.58029 10.7871 6.48337C10.8883 5.38646 10.6067 4.28834 9.9901 3.37571C9.37353 2.46308 8.46007 1.79228 7.40503 1.47735C6.34999 1.16241 5.2185 1.22279 4.20293 1.64822C3.18736 2.07365 2.3504 2.83786 1.83434 3.81093C1.31828 4.784 1.15499 5.90586 1.37222 6.98578C1.58945 8.0657 2.17379 9.03702 3.0259 9.73458C3.87801 10.4322 4.94529 10.8129 6.04628 10.8121Z" fill="#8A8A8A"/>
</svg>
