<svg width="20" height="23" viewBox="0 0 20 23" fill="none" xmlns="http://www.w3.org/2000/svg">
<path d="M16.2388 15.4708C15.1378 15.4708 14.1459 15.9467 13.4575 16.7037L7.26519 12.865C7.43051 12.4414 7.5222 11.9813 7.5222 11.5C7.5222 11.0185 7.43051 10.5584 7.26519 10.135L13.4575 6.29608C14.1459 7.05308 15.1378 7.52915 16.2388 7.52915C18.3128 7.52915 20 5.84037 20 3.76449C20 1.68861 18.3128 0 16.2388 0C14.1648 0 12.4776 1.68878 12.4776 3.76466C12.4776 4.24599 12.5695 4.70609 12.7346 5.12969L6.54254 8.96841C5.85409 8.2114 4.86216 7.73534 3.76119 7.73534C1.68722 7.73534 0 9.42429 0 11.5C0 13.5759 1.68722 15.2647 3.76119 15.2647C4.86216 15.2647 5.85409 14.7888 6.54254 14.0316L12.7346 17.8703C12.5695 18.2939 12.4776 18.754 12.4776 19.2355C12.4776 21.3112 14.1648 23 16.2388 23C18.3128 23 20 21.3112 20 19.2355C20 17.1596 18.3128 15.4708 16.2388 15.4708ZM13.8491 3.76466C13.8491 2.44579 14.9212 1.37275 16.2388 1.37275C17.5565 1.37275 18.6285 2.44579 18.6285 3.76466C18.6285 5.08354 17.5565 6.15658 16.2388 6.15658C14.9212 6.15658 13.8491 5.08354 13.8491 3.76466ZM3.76119 13.8919C2.44335 13.8919 1.37131 12.8189 1.37131 11.5C1.37131 10.1811 2.44335 9.10808 3.76119 9.10808C5.07885 9.10808 6.15072 10.1811 6.15072 11.5C6.15072 12.8189 5.07885 13.8919 3.76119 13.8919ZM13.8491 19.2353C13.8491 17.9165 14.9212 16.8434 16.2388 16.8434C17.5565 16.8434 18.6285 17.9165 18.6285 19.2353C18.6285 20.5542 17.5565 21.6273 16.2388 21.6273C14.9212 21.6273 13.8491 20.5542 13.8491 19.2353Z" fill="#B8B8B8"/>
</svg>
