<svg width="36" height="35" viewBox="0 0 36 35" fill="none" xmlns="http://www.w3.org/2000/svg">
<path fill-rule="evenodd" clip-rule="evenodd" d="M18.0445 0C8.08889 0 0 7.80631 0 17.5002C0 27.1937 8.08889 35 18.0445 35C28 35 36 27.1937 36 17.5002C36 7.80631 28 0 18.0445 0ZM19.4667 22.2183C18.1333 22.1323 17.6 21.4463 16.5333 20.8458C16 23.7622 15.2889 26.5072 13.2445 27.9656C12.6222 23.5908 14.1333 20.3312 14.8445 16.8137C13.6 14.8407 15.0222 10.7232 17.6 11.7524C20.8 12.9536 14.8445 19.3014 18.8444 20.0734C23.1111 20.9312 24.8 12.9536 22.2222 10.3799C18.4 6.69112 11.2 10.294 12.0889 15.6126C12.3556 16.8997 13.6889 17.3284 12.7111 19.1301C10.2222 18.6154 9.51112 16.7278 9.59999 14.326C9.77775 10.294 13.3333 7.46304 16.9778 7.03436C21.5111 6.51974 25.7778 8.66418 26.3111 12.7817C27.0222 17.5002 24.2667 22.5615 19.4667 22.2183Z" fill="#F4C22F"/>
</svg>
