<svg width="35" height="35" viewBox="0 0 35 35" fill="none" xmlns="http://www.w3.org/2000/svg">
<path d="M17.5 0C7.85054 0 0 7.85054 0 17.5C0 27.1488 7.85054 35 17.5 35C27.1488 35 35 27.1488 35 17.5C35 7.85054 27.1502 0 17.5 0ZM25.3068 13.4947C25.3146 13.6681 25.3188 13.8429 25.3188 14.0178C25.3188 19.3405 21.2684 25.476 13.8578 25.476C11.583 25.476 9.46548 24.8113 7.68348 23.6679C7.99857 23.7053 8.3193 23.7243 8.64426 23.7243C10.532 23.7243 12.2682 23.08 13.647 22.0001C11.8847 21.9677 10.3967 20.8032 9.88419 19.2023C10.1295 19.2489 10.3826 19.275 10.6413 19.275C11.0085 19.275 11.3652 19.227 11.7029 19.1347C9.86023 18.7653 8.47227 17.1377 8.47227 15.1851C8.47227 15.1682 8.47227 15.1505 8.47297 15.1343C9.01575 15.4353 9.63677 15.6172 10.2966 15.6376C9.21665 14.9165 8.5054 13.6829 8.5054 12.2858C8.5054 11.5471 8.70348 10.8549 9.05029 10.2599C11.036 12.6975 14.0051 14.3004 17.352 14.4696C17.2829 14.1743 17.2483 13.8676 17.2483 13.5511C17.2483 11.3271 19.0515 9.52328 21.2755 9.52328C22.4343 9.52328 23.4797 10.0125 24.2156 10.7949C25.1341 10.6145 25.9941 10.2804 26.7745 9.81723C26.4713 10.7583 25.8348 11.5471 25.0009 12.0461C25.8165 11.9489 26.5947 11.7332 27.3144 11.4124C26.7773 12.2188 26.0942 12.9287 25.3068 13.4947Z" fill="#F4C22F"/>
</svg>
