<svg xmlns="http://www.w3.org/2000/svg" fill="currentColor" stroke="currentColor"><symbol fill="none" id="arrow-left" viewBox="0 0 35 35"><title>arrow-left</title><g opacity=".5" fill="currentColor"><path d="M17.5 0C27.165 0 35 7.835 35 17.5S27.165 35 17.5 35 0 27.165 0 17.5C.01 7.84 7.84.01 17.5 0Zm0 33.25c8.699 0 15.75-7.052 15.75-15.75 0-8.7-7.05-15.75-15.75-15.75C8.802 1.75 1.75 8.8 1.75 17.5c.01 8.694 7.056 15.74 15.75 15.75Z"/><path d="M19.549 10.716a.875.875 0 1 1 1.152 1.318L14.454 17.5l6.247 5.466a.875.875 0 1 1-1.152 1.318l-7-6.125a.875.875 0 0 1 0-1.318l7-6.125Z"/></g></symbol><symbol fill="none" id="arrow-right" viewBox="0 0 7 12"><title>arrow-right</title><path d="M.823 12a.721.721 0 0 1-.45-.147.847.847 0 0 1-.29-.41.939.939 0 0 1-.023-.518.867.867 0 0 1 .255-.437l4.726-4.474L.315 1.54a.83.83 0 0 1-.21-.26.917.917 0 0 1-.071-.678.883.883 0 0 1 .152-.305.787.787 0 0 1 .25-.213.714.714 0 0 1 .882.164L6.73 5.365a.85.85 0 0 1 .2.292.93.93 0 0 1 0 .715.85.85 0 0 1-.2.292l-5.41 5.12A.734.734 0 0 1 .822 12Z" fill="currentColor"/></symbol><symbol fill="none" id="basket" viewBox="0 0 24 24"><title>basket</title><path d="M4.956 21.474a2.48 2.48 0 0 0 2.477 2.477 2.48 2.48 0 0 0 2.478-2.477 2.48 2.48 0 0 0-2.478-2.478 2.48 2.48 0 0 0-2.477 2.478Zm3.303 0c0 .455-.37.826-.826.826a.827.827 0 0 1-.826-.826.827.827 0 0 1 1.652 0Zm11.563 0a2.48 2.48 0 0 0-2.478-2.478 2.48 2.48 0 0 0-2.478 2.478 2.48 2.48 0 0 0 2.478 2.477 2.48 2.48 0 0 0 2.478-2.477Zm-3.304 0a.827.827 0 0 1 1.652 0 .828.828 0 0 1-.826.826.827.827 0 0 1-.826-.826ZM2.56 1.652l1.418 13.473a2.473 2.473 0 0 0 2.465 2.219h12.87c1.16 0 2.18-.825 2.423-1.96l1.984-9.257a1.642 1.642 0 0 0-.331-1.384 1.646 1.646 0 0 0-1.286-.614H4.483L4.124.74a.826.826 0 0 0-.82-.74H.826a.826.826 0 0 0 0 1.652H2.56Zm19.543 4.13-1.983 9.257a.832.832 0 0 1-.808.653H6.442a.824.824 0 0 1-.821-.74l-.965-9.17h17.447Z" fill="currentColor"/></symbol><symbol fill="none" id="circle-arrow" viewBox="0 0 35 35"><title>circle-arrow</title><g opacity=".5" fill="currentColor"><path d="M17.5 0C27.165 0 35 7.835 35 17.5S27.165 35 17.5 35 0 27.165 0 17.5C.01 7.84 7.84.01 17.5 0Zm0 33.25c8.699 0 15.75-7.052 15.75-15.75 0-8.7-7.05-15.75-15.75-15.75C8.802 1.75 1.75 8.8 1.75 17.5c.01 8.694 7.056 15.74 15.75 15.75Z"/><path d="M19.549 10.716a.875.875 0 1 1 1.152 1.318L14.454 17.5l6.247 5.466a.875.875 0 1 1-1.152 1.318l-7-6.125a.875.875 0 0 1 0-1.318l7-6.125Z"/></g></symbol><symbol fill="none" id="e-mail" viewBox="0 0 19 14"><title>e-mail</title><path d="M11.088 9.106A2.888 2.888 0 0 1 9.5 9.58a2.887 2.887 0 0 1-1.588-.474L.127 4A2.834 2.834 0 0 1 0 3.91v8.368C0 13.24.791 14 1.75 14h15.5c.976 0 1.75-.779 1.75-1.72V3.91c-.041.03-.084.06-.127.089l-7.785 5.106Z" fill="currentColor"/><path d="M.744 3.088 8.53 8.195a1.767 1.767 0 0 0 1.94 0l7.786-5.107c.466-.305.744-.816.744-1.368C19 .772 18.216 0 17.252 0H1.748C.784 0 0 .772 0 1.721c0 .55.278 1.062.744 1.367Z" fill="currentColor"/></symbol><symbol fill="none" id="favorite" viewBox="0 0 30 27"><title>favorite</title><path d="M15 27c-.427 0-.839-.157-1.16-.44a350.5 350.5 0 0 0-3.411-2.969l-.005-.005C7.4 20.981 4.79 18.731 2.975 16.514.945 14.036 0 11.687 0 9.12c0-2.493.845-4.794 2.38-6.478A8.025 8.025 0 0 1 8.38 0c1.732 0 3.318.554 4.714 1.646A9.708 9.708 0 0 1 15 3.659a9.709 9.709 0 0 1 1.906-2.013C18.302.554 19.888 0 21.619 0c2.317 0 4.448.938 6.001 2.642C29.155 4.326 30 6.627 30 9.12c0 2.567-.945 4.916-2.975 7.394-1.816 2.217-4.426 4.467-7.448 7.072a339.82 339.82 0 0 0-3.418 2.974c-.32.284-.732.44-1.159.44ZM8.38 1.778c-1.82 0-3.492.735-4.708 2.07C2.437 5.201 1.757 7.074 1.757 9.12c0 2.16.793 4.09 2.571 6.26 1.72 2.098 4.275 4.302 7.235 6.853l.006.005c1.035.892 2.208 1.904 3.428 2.983a413.715 413.715 0 0 1 3.44-2.988c2.96-2.552 5.516-4.755 7.235-6.853 1.778-2.17 2.57-4.1 2.57-6.26 0-2.045-.68-3.918-1.914-5.273a6.295 6.295 0 0 0-4.709-2.07c-1.333 0-2.557.43-3.638 1.275-.964.754-1.635 1.707-2.028 2.374a1.098 1.098 0 0 1-.953.547c-.394 0-.75-.204-.953-.547-.393-.667-1.064-1.62-2.028-2.374-1.08-.845-2.305-1.274-3.638-1.274Z" fill="currentColor"/></symbol><symbol fill="none" id="oclock" viewBox="0 0 20 20"><title>oclock</title><path d="M10 20c5.513 0 10-4.487 10-10S15.513 0 10 0 0 4.487 0 10s4.487 10 10 10Zm0-18.667c4.78 0 8.667 3.887 8.667 8.667 0 4.78-3.887 8.667-8.667 8.667-4.78 0-8.667-3.887-8.667-8.667 0-4.78 3.887-8.667 8.667-8.667Z" fill="currentColor"/><path d="M12.917 13.187a.663.663 0 0 0 .937-.103.667.667 0 0 0-.104-.937L10.667 9.68V4.667c0-.367-.3-.667-.667-.667-.367 0-.667.3-.667.667V10c0 .203.094.393.25.52l3.334 2.667Z" fill="currentColor"/></symbol><symbol fill="none" id="phone" viewBox="0 0 17 17"><title>phone</title><path d="m16.554 12.476-2.377-2.372c-.85-.847-2.293-.508-2.632.593-.255.763-1.104 1.186-1.868 1.017-1.698-.424-3.99-2.627-4.415-4.406-.255-.763.254-1.61 1.018-1.864 1.104-.34 1.444-1.78.595-2.627L4.497.445c-.679-.593-1.698-.593-2.292 0L.592 2.055c-1.614 1.694.17 6.185 4.16 10.167s8.49 5.846 10.189 4.152l1.613-1.61c.595-.678.595-1.695 0-2.288Z" fill="currentColor"/></symbol><symbol fill="none" id="search" viewBox="0 0 14 14"><title>search</title><path d="M6.046 0a6.03 6.03 0 0 1 5.451 3.436 6.04 6.04 0 0 1-.758 6.402l3.067 3.069a.637.637 0 1 1-.899.899L9.84 10.737A6.037 6.037 0 0 1 .345 8.056 6.045 6.045 0 0 1 3.268.674 6.036 6.036 0 0 1 6.046 0Zm0 10.812a4.749 4.749 0 0 0 3.349-1.38c.006-.006.009-.017.016-.024.007-.007.017-.01.024-.015a4.768 4.768 0 0 0-5.232-7.745 4.765 4.765 0 0 0-2.83 5.338 4.767 4.767 0 0 0 4.673 3.826Z" fill="currentColor"/></symbol><symbol fill="none" id="share" viewBox="0 0 20 23"><title>share</title><path d="M16.239 15.47a3.75 3.75 0 0 0-2.782 1.234l-6.192-3.839a3.746 3.746 0 0 0 0-2.73l6.192-3.839A3.75 3.75 0 0 0 16.24 7.53 3.767 3.767 0 0 0 20 3.764 3.767 3.767 0 0 0 16.239 0a3.767 3.767 0 0 0-3.504 5.13L6.543 8.968A3.751 3.751 0 0 0 3.76 7.735 3.767 3.767 0 0 0 0 11.5a3.767 3.767 0 0 0 3.761 3.765 3.75 3.75 0 0 0 2.782-1.233l6.192 3.838A3.767 3.767 0 0 0 16.239 23 3.767 3.767 0 0 0 20 19.235a3.767 3.767 0 0 0-3.761-3.764Zm-2.39-11.705a2.394 2.394 0 0 1 2.39-2.392 2.394 2.394 0 0 1 2.39 2.392 2.394 2.394 0 0 1-2.39 2.392 2.394 2.394 0 0 1-2.39-2.392ZM3.761 13.892a2.394 2.394 0 0 1-2.39-2.392 2.394 2.394 0 0 1 2.39-2.392 2.393 2.393 0 0 1 2.39 2.392 2.393 2.393 0 0 1-2.39 2.392Zm10.088 5.343a2.394 2.394 0 0 1 2.39-2.392 2.394 2.394 0 0 1 2.39 2.392 2.394 2.394 0 0 1-2.39 2.392 2.394 2.394 0 0 1-2.39-2.392Z" fill="currentColor"/></symbol><symbol fill="none" id="soc-facebook" viewBox="0 0 35 35"><title>soc-facebook</title><path d="M35 17.5C35 7.834 27.166 0 17.5 0S0 7.834 0 17.5 7.834 35 17.5 35c.102 0 .205 0 .308-.007V21.376h-3.76v-4.382h3.76v-3.226c0-3.74 2.283-5.777 5.619-5.777 1.6 0 2.973.116 3.37.171v3.91H24.5c-1.811 0-2.167.862-2.167 2.126v2.79h4.34l-.567 4.381h-3.773v12.954C29.648 32.225 35 25.491 35 17.5Z" fill="currentColor"/></symbol><symbol fill="none" id="soc-instagram" viewBox="0 0 35 35"><title>soc-instagram</title><path d="M20.85 17.5a3.35 3.35 0 1 1-6.7 0 3.35 3.35 0 0 1 6.7 0Z" fill="currentColor"/><path d="M25.334 11.574a3.114 3.114 0 0 0-.752-1.156 3.112 3.112 0 0 0-1.156-.752c-.354-.137-.886-.3-1.865-.345-1.06-.049-1.378-.06-4.061-.06s-3.001.011-4.06.06c-.98.044-1.513.208-1.866.345a3.11 3.11 0 0 0-1.156.752c-.334.324-.59.719-.752 1.156-.137.354-.301.886-.346 1.866-.048 1.06-.058 1.377-.058 4.06s.01 3.001.058 4.061c.045.98.209 1.512.346 1.866.161.436.418.831.752 1.155.324.334.719.59 1.155.752.354.138.887.301 1.866.346 1.06.048 1.377.058 4.06.058 2.684 0 3.002-.01 4.061-.058.98-.045 1.512-.208 1.866-.346a3.328 3.328 0 0 0 1.908-1.907c.137-.354.3-.886.346-1.866.048-1.06.058-1.378.058-4.06 0-2.684-.01-3.002-.058-4.061-.045-.98-.209-1.512-.346-1.866ZM17.5 22.66a5.16 5.16 0 1 1 0-10.32 5.16 5.16 0 0 1 0 10.32Zm5.364-9.318a1.206 1.206 0 1 1 0-2.412 1.206 1.206 0 0 1 0 2.412Z" fill="currentColor"/><path d="M17.5 0C7.836 0 0 7.836 0 17.5 0 27.163 7.836 35 17.5 35 27.163 35 35 27.163 35 17.5 35 7.836 27.163 0 17.5 0Zm9.988 21.643c-.048 1.07-.218 1.8-.467 2.44a5.139 5.139 0 0 1-2.939 2.938c-.639.248-1.37.418-2.439.467-1.071.05-1.414.06-4.143.06s-3.071-.01-4.143-.06c-1.07-.049-1.8-.218-2.439-.467a4.923 4.923 0 0 1-1.78-1.159 4.924 4.924 0 0 1-1.159-1.78c-.248-.639-.418-1.37-.467-2.439-.05-1.072-.06-1.414-.06-4.143s.01-3.071.06-4.143c.048-1.07.218-1.8.467-2.44a4.923 4.923 0 0 1 1.159-1.779 4.922 4.922 0 0 1 1.78-1.16c.639-.248 1.37-.417 2.439-.466 1.072-.05 1.414-.06 4.143-.06s3.071.01 4.143.06c1.07.049 1.8.218 2.44.467.67.252 1.277.648 1.78 1.159a4.94 4.94 0 0 1 1.158 1.78c.249.639.419 1.37.467 2.439.05 1.072.06 1.414.06 4.143s-.01 3.071-.06 4.143Z" fill="currentColor"/></symbol><symbol fill="none" id="soc-linkedin" viewBox="0 0 35 35"><title>soc-linkedin</title><path d="M17.5 0C7.836 0 0 7.836 0 17.5 0 27.163 7.836 35 17.5 35 27.163 35 35 27.163 35 17.5 35 7.836 27.163 0 17.5 0Zm-5.085 26.455H8.153V13.633h4.262v12.822Zm-2.131-14.573h-.028c-1.43 0-2.355-.985-2.355-2.215 0-1.259.953-2.216 2.411-2.216 1.458 0 2.355.957 2.383 2.216 0 1.23-.925 2.215-2.411 2.215Zm17.499 14.573H23.52v-6.86c0-1.724-.617-2.9-2.159-2.9-1.177 0-1.878.794-2.187 1.56-.112.273-.14.656-.14 1.04v7.16h-4.262s.056-11.62 0-12.822h4.262v1.815c.567-.874 1.58-2.116 3.841-2.116 2.804 0 4.907 1.832 4.907 5.77v7.353Z" fill="currentColor"/></symbol><symbol fill="none" id="soc-pinterest" viewBox="0 0 36 35"><title>soc-pinterest</title><path fill-rule="evenodd" clip-rule="evenodd" d="M18.044 0C8.09 0 0 7.806 0 17.5 0 27.194 8.089 35 18.044 35 28 35 36 27.194 36 17.5 36 7.806 28 0 18.044 0Zm1.423 22.218c-1.334-.086-1.867-.772-2.934-1.372-.533 2.916-1.244 5.661-3.289 7.12-.622-4.375.89-7.635 1.6-11.152-1.244-1.973.178-6.09 2.756-5.062 3.2 1.202-2.756 7.55 1.244 8.321 4.267.858 5.956-7.12 3.378-9.693C18.4 6.69 11.2 10.294 12.09 15.613c.267 1.287 1.6 1.715.622 3.517-2.489-.515-3.2-2.402-3.111-4.804.178-4.032 3.733-6.863 7.378-7.292 4.533-.514 8.8 1.63 9.333 5.748.711 4.718-2.044 9.78-6.844 9.436Z" fill="currentColor"/></symbol><symbol fill="none" id="soc-x" viewBox="0 0 35 35"><title>soc-x</title><path d="M17.5 0C7.85 0 0 7.85 0 17.5 0 27.149 7.85 35 17.5 35 27.149 35 35 27.149 35 17.5 35 7.85 27.15 0 17.5 0Zm7.807 13.495c.008.173.012.348.012.523 0 5.322-4.05 11.458-11.461 11.458-2.275 0-4.393-.665-6.175-1.808.316.037.636.056.961.056A8.084 8.084 0 0 0 13.647 22a4.032 4.032 0 0 1-3.763-2.798 4.054 4.054 0 0 0 1.819-.067 4.029 4.029 0 0 1-3.23-3.95v-.05a4.01 4.01 0 0 0 1.824.503 4.025 4.025 0 0 1-1.792-3.352c0-.739.198-1.431.545-2.026a11.437 11.437 0 0 0 8.302 4.21 4.028 4.028 0 0 1 6.864-3.675 8.038 8.038 0 0 0 2.558-.978 4.046 4.046 0 0 1-1.773 2.23 8.003 8.003 0 0 0 2.313-.635 8.1 8.1 0 0 1-2.007 2.083Z" fill="currentColor"/></symbol><symbol fill="none" id="star-5" viewBox="0 0 120 16"><title>star-5</title><path d="M16.845 6.045a.894.894 0 0 0-.772-.609l-4.876-.438L9.271.54A.898.898 0 0 0 8.444 0a.896.896 0 0 0-.825.54L5.692 4.997l-4.876.438a.897.897 0 0 0-.772.61.882.882 0 0 0 .262.943l3.685 3.194-1.086 4.732a.882.882 0 0 0 .349.916.9.9 0 0 0 .986.043l4.204-2.485 4.204 2.485a.906.906 0 0 0 .987-.043.882.882 0 0 0 .35-.916l-1.087-4.732 3.685-3.194a.882.882 0 0 0 .262-.944Zm103.111 0a.894.894 0 0 0-.772-.609l-4.875-.438L112.382.54a.898.898 0 0 0-.826-.539.898.898 0 0 0-.826.54l-1.926 4.458-4.877.438a.895.895 0 0 0-.771.61.88.88 0 0 0 .261.943l3.686 3.194-1.087 4.732a.883.883 0 0 0 .349.916.9.9 0 0 0 .987.043l4.204-2.485 4.203 2.485a.905.905 0 0 0 .987-.043.881.881 0 0 0 .349-.916l-1.086-4.732 3.685-3.194a.883.883 0 0 0 .262-.944Zm-77.334 0a.894.894 0 0 0-.772-.609l-4.875-.438L35.048.54a.898.898 0 0 0-.826-.54.896.896 0 0 0-.826.54L31.47 4.997l-4.877.438a.897.897 0 0 0-.771.61.882.882 0 0 0 .261.943l3.686 3.194-1.087 4.732a.882.882 0 0 0 .35.916.9.9 0 0 0 .986.043l4.204-2.485 4.203 2.485a.906.906 0 0 0 .987-.043.882.882 0 0 0 .35-.916l-1.087-4.732L42.36 6.99a.882.882 0 0 0 .262-.944Zm25.778 0a.895.895 0 0 0-.772-.609l-4.875-.438L60.826.54A.898.898 0 0 0 60 0a.896.896 0 0 0-.825.54l-1.927 4.458-4.876.438a.897.897 0 0 0-.772.61.882.882 0 0 0 .262.943l3.685 3.194-1.087 4.732a.882.882 0 0 0 .35.916.9.9 0 0 0 .986.043L60 13.39l4.203 2.485a.906.906 0 0 0 .988-.043.882.882 0 0 0 .349-.916l-1.087-4.732 3.685-3.194a.882.882 0 0 0 .262-.944Zm25.778 0a.894.894 0 0 0-.772-.609l-4.876-.438L86.604.54a.898.898 0 0 0-.826-.54.896.896 0 0 0-.826.54l-1.927 4.458-4.876.438a.897.897 0 0 0-.772.61.882.882 0 0 0 .262.943l3.685 3.194-1.086 4.732a.882.882 0 0 0 .349.916.9.9 0 0 0 .986.043l4.205-2.485 4.203 2.485a.906.906 0 0 0 .987-.043.882.882 0 0 0 .35-.916l-1.087-4.732 3.685-3.194a.882.882 0 0 0 .262-.944Z" fill="currentColor"/></symbol><symbol fill="none" id="star" viewBox="0 0 17 16"><title>star</title><path d="M16.956 6.045a.894.894 0 0 0-.772-.609l-4.875-.438L9.382.54A.898.898 0 0 0 8.556 0a.896.896 0 0 0-.826.54L5.804 4.997l-4.877.438a.897.897 0 0 0-.771.61.882.882 0 0 0 .261.943l3.686 3.194-1.087 4.732a.882.882 0 0 0 .35.916.9.9 0 0 0 .986.043l4.204-2.485 4.203 2.485a.906.906 0 0 0 .987-.043.882.882 0 0 0 .35-.916l-1.087-4.732 3.685-3.194a.882.882 0 0 0 .262-.944Z" fill="currentColor"/></symbol><symbol fill="none" id="user" viewBox="0 0 18 22"><title>user</title><path d="M15.33 11.146a.818.818 0 0 0-.582-.243.826.826 0 0 0-.584.24.806.806 0 0 0-.168.89.807.807 0 0 0 .184.262 7.216 7.216 0 0 1 1.62 2.366c.375.887.566 1.84.564 2.8 0 .988-2.869 2.424-7.364 2.424-4.495 0-7.364-1.436-7.364-2.425a7.14 7.14 0 0 1 .557-2.783 7.215 7.215 0 0 1 1.6-2.356.807.807 0 0 0 .246-.573.798.798 0 0 0-.24-.577.82.82 0 0 0-.583-.236.827.827 0 0 0-.58.244 8.819 8.819 0 0 0-1.956 2.88A8.727 8.727 0 0 0 0 17.462C0 20.085 4.637 21.5 9 21.5s9-1.415 9-4.038a8.722 8.722 0 0 0-.69-3.424 8.814 8.814 0 0 0-1.98-2.892Z" fill="currentColor"/><path d="M9 11.808a5.78 5.78 0 0 0 3.182-.953 5.67 5.67 0 0 0 2.11-2.538 5.586 5.586 0 0 0 .325-3.266 5.632 5.632 0 0 0-1.567-2.895A5.75 5.75 0 0 0 10.117.609 5.796 5.796 0 0 0 6.808.93a5.712 5.712 0 0 0-2.57 2.083 5.602 5.602 0 0 0-.965 3.14 5.624 5.624 0 0 0 1.68 3.997A5.772 5.772 0 0 0 9 11.808Zm0-9.693c.81 0 1.6.237 2.273.681a4.05 4.05 0 0 1 1.507 1.812c.31.738.39 1.55.232 2.334a4.023 4.023 0 0 1-1.12 2.067 4.108 4.108 0 0 1-2.094 1.106 4.14 4.14 0 0 1-2.364-.23A4.08 4.08 0 0 1 5.6 8.398a4.002 4.002 0 0 1-.69-2.244A4.017 4.017 0 0 1 6.11 3.3 4.123 4.123 0 0 1 9 2.115Z" fill="currentColor"/></symbol></svg>