<svg width="17" height="16" viewBox="0 0 17 16" fill="none" xmlns="http://www.w3.org/2000/svg">
<path d="M16.956 6.04546C16.8448 5.70739 16.5415 5.46803 16.1841 5.43606L11.3087 4.9985L9.38199 0.539056C9.23974 0.211426 8.91606 -3.05176e-05 8.55578 -3.05176e-05C8.19551 -3.05176e-05 7.8717 0.211426 7.73034 0.539056L5.80359 4.9985L0.927499 5.43606C0.570058 5.46867 0.26738 5.70802 0.155535 6.04546C0.0443343 6.38354 0.147031 6.75435 0.417367 6.98874L4.10272 10.1834L3.01609 14.9147C2.93659 15.2625 3.07318 15.6223 3.36516 15.8309C3.5221 15.9437 3.70649 16 3.89153 16C4.05053 16 4.20967 15.9582 4.35179 15.8741L8.55578 13.3891L12.759 15.8741C13.0673 16.0563 13.4551 16.0396 13.7464 15.8309C14.0384 15.6223 14.175 15.2625 14.0955 14.9147L13.0088 10.1834L16.6942 6.98874C16.9644 6.75435 17.0672 6.3843 16.956 6.04546Z" fill="#F4C22F"/>
</svg>
