<svg width="120" height="16" viewBox="0 0 120 16" fill="none" xmlns="http://www.w3.org/2000/svg">
<path d="M16.8447 6.04546C16.7335 5.70739 16.4302 5.46803 16.0727 5.43606L11.1974 4.9985L9.27067 0.539056C9.12841 0.211426 8.80473 -3.05176e-05 8.44445 -3.05176e-05C8.08418 -3.05176e-05 7.76037 0.211426 7.61902 0.539056L5.69226 4.9985L0.816171 5.43606C0.45873 5.46867 0.156052 5.70802 0.0442071 6.04546C-0.0669938 6.38354 0.0357027 6.75435 0.306038 6.98874L3.99139 10.1834L2.90477 14.9147C2.82526 15.2625 2.96185 15.6223 3.25383 15.8309C3.41077 15.9437 3.59516 16 3.7802 16C3.9392 16 4.09834 15.9582 4.24046 15.8741L8.44445 13.3891L12.6477 15.8741C12.956 16.0563 13.3437 16.0396 13.6351 15.8309C13.9271 15.6223 14.0636 15.2625 13.9841 14.9147L12.8975 10.1834L16.5829 6.98874C16.8531 6.75435 16.9559 6.3843 16.8447 6.04546Z" fill="#F4C22F"/>
<path d="M119.956 6.04546C119.845 5.70739 119.542 5.46803 119.184 5.43606L114.309 4.9985L112.382 0.539056C112.24 0.211426 111.916 -3.05176e-05 111.556 -3.05176e-05C111.196 -3.05176e-05 110.872 0.211426 110.73 0.539056L108.804 4.9985L103.927 5.43606C103.57 5.46867 103.267 5.70802 103.156 6.04546C103.044 6.38354 103.147 6.75435 103.417 6.98874L107.103 10.1834L106.016 14.9147C105.937 15.2625 106.073 15.6223 106.365 15.8309C106.522 15.9437 106.706 16 106.892 16C107.051 16 107.21 15.9582 107.352 15.8741L111.556 13.3891L115.759 15.8741C116.067 16.0563 116.455 16.0396 116.746 15.8309C117.038 15.6223 117.175 15.2625 117.095 14.9147L116.009 10.1834L119.694 6.98874C119.964 6.75435 120.067 6.3843 119.956 6.04546Z" fill="#F4C22F"/>
<path d="M42.622 6.04546C42.5108 5.70739 42.2075 5.46803 41.8501 5.43606L36.9748 4.9985L35.048 0.539056C34.9058 0.211426 34.5821 -3.05176e-05 34.2218 -3.05176e-05C33.8615 -3.05176e-05 33.5377 0.211426 33.3964 0.539056L31.4696 4.9985L26.5935 5.43606C26.2361 5.46867 25.9334 5.70802 25.8216 6.04546C25.7103 6.38354 25.813 6.75435 26.0834 6.98874L29.7687 10.1834L28.6821 14.9147C28.6026 15.2625 28.7392 15.6223 29.0312 15.8309C29.1881 15.9437 29.3725 16 29.5575 16C29.7165 16 29.8757 15.9582 30.0178 15.8741L34.2218 13.3891L38.425 15.8741C38.7334 16.0563 39.1211 16.0396 39.4124 15.8309C39.7044 15.6223 39.841 15.2625 39.7615 14.9147L38.6749 10.1834L42.3602 6.98874C42.6304 6.75435 42.7332 6.3843 42.622 6.04546Z" fill="#F4C22F"/>
<path d="M68.4004 6.04546C68.2892 5.70739 67.9858 5.46803 67.6284 5.43606L62.7531 4.9985L60.8263 0.539056C60.6841 0.211426 60.3604 -3.05176e-05 60.0001 -3.05176e-05C59.6398 -3.05176e-05 59.316 0.211426 59.1747 0.539056L57.2479 4.9985L52.3718 5.43606C52.0144 5.46867 51.7117 5.70802 51.5999 6.04546C51.4887 6.38354 51.5914 6.75435 51.8617 6.98874L55.5471 10.1834L54.4604 14.9147C54.3809 15.2625 54.5175 15.6223 54.8095 15.8309C54.9664 15.9437 55.1508 16 55.3359 16C55.4949 16 55.654 15.9582 55.7961 15.8741L60.0001 13.3891L64.2033 15.8741C64.5117 16.0563 64.8994 16.0396 65.1907 15.8309C65.4827 15.6223 65.6193 15.2625 65.5398 14.9147L64.4532 10.1834L68.1385 6.98874C68.4087 6.75435 68.5116 6.3843 68.4004 6.04546Z" fill="#F4C22F"/>
<path d="M94.1777 6.04546C94.0665 5.70739 93.7632 5.46803 93.4057 5.43606L88.5304 4.9985L86.6037 0.539056C86.4614 0.211426 86.1377 -3.05176e-05 85.7775 -3.05176e-05C85.4172 -3.05176e-05 85.0934 0.211426 84.952 0.539056L83.0253 4.9985L78.1492 5.43606C77.7917 5.46867 77.4891 5.70802 77.3772 6.04546C77.266 6.38354 77.3687 6.75435 77.639 6.98874L81.3244 10.1834L80.2378 14.9147C80.1583 15.2625 80.2949 15.6223 80.5868 15.8309C80.7438 15.9437 80.9282 16 81.1132 16C81.2722 16 81.4313 15.9582 81.5735 15.8741L85.7775 13.3891L89.9807 15.8741C90.289 16.0563 90.6767 16.0396 90.9681 15.8309C91.2601 15.6223 91.3967 15.2625 91.3172 14.9147L90.2305 10.1834L93.9159 6.98874C94.1861 6.75435 94.2889 6.3843 94.1777 6.04546Z" fill="#F4C22F"/>
</svg>
