<svg width="18" height="22" viewBox="0 0 18 22" fill="none" xmlns="http://www.w3.org/2000/svg">
<path d="M15.3305 11.1464C15.2546 11.0697 15.1639 11.0088 15.0639 10.9671C14.9639 10.9254 14.8564 10.9038 14.7479 10.9035C14.6393 10.9032 14.5317 10.9242 14.4315 10.9654C14.3312 11.0066 14.2403 11.067 14.1639 11.1432C14.0876 11.2194 14.0273 11.3099 13.9868 11.4093C13.9462 11.5087 13.926 11.6151 13.9275 11.7223C13.929 11.8295 13.9521 11.9353 13.9955 12.0336C14.0388 12.1318 14.1015 12.2206 14.18 12.2947C14.8741 12.969 15.4248 13.7734 15.7998 14.6607C16.1748 15.5479 16.3665 16.5002 16.3636 17.4615C16.3636 18.4494 13.4952 19.8846 9 19.8846C4.50485 19.8846 1.63639 18.4487 1.63639 17.4599C1.63364 16.5052 1.82275 15.5593 2.19279 14.6772C2.56282 13.7951 3.10642 12.9942 3.79213 12.3208C3.86969 12.2462 3.93146 12.1571 3.97386 12.0587C4.01626 11.9603 4.03845 11.8545 4.03913 11.7476C4.03982 11.6407 4.01899 11.5347 3.97786 11.4358C3.93672 11.3369 3.8761 11.247 3.79951 11.1714C3.72292 11.0958 3.63188 11.0359 3.53168 10.9953C3.43147 10.9547 3.3241 10.9342 3.21578 10.9348C3.10747 10.9355 3.00037 10.9574 2.9007 10.9993C2.80102 11.0411 2.71076 11.1021 2.63515 11.1787C1.79686 12.0019 1.13232 12.981 0.679996 14.0595C0.227676 15.138 -0.00343706 16.2943 3.86275e-05 17.4615C3.86275e-05 20.0846 4.63665 21.5 9 21.5C13.3633 21.5 18 20.0846 18 17.4615C18.0036 16.2864 17.7693 15.1224 17.3109 14.038C16.8525 12.9535 16.1792 11.9704 15.3305 11.1464Z" fill="#7E7E7E"/>
<path d="M9 11.8077C10.1327 11.8077 11.24 11.4761 12.1819 10.8548C13.1237 10.2336 13.8578 9.35059 14.2913 8.31748C14.7248 7.28438 14.8382 6.14758 14.6172 5.05084C14.3962 3.9541 13.8507 2.94668 13.0498 2.15598C12.2488 1.36527 11.2283 0.826794 10.1173 0.60864C9.00635 0.390485 7.85479 0.50245 6.80828 0.930376C5.76176 1.3583 4.86728 2.08297 4.23797 3.01274C3.60865 3.94251 3.27275 5.03562 3.27275 6.15385C3.27451 7.65281 3.87847 9.08988 4.95216 10.1498C6.02585 11.2097 7.48158 11.806 9 11.8077ZM9 2.11539C9.8091 2.11539 10.6 2.35224 11.2728 2.79599C11.9455 3.23974 12.4699 3.87046 12.7795 4.6084C13.0891 5.34633 13.1701 6.15833 13.0123 6.94171C12.8544 7.7251 12.4648 8.44468 11.8927 9.00947C11.3206 9.57426 10.5916 9.95889 9.79809 10.1147C9.00454 10.2705 8.182 10.1906 7.43448 9.8849C6.68697 9.57924 6.04806 9.06162 5.59855 8.3975C5.14903 7.73337 4.90911 6.95258 4.90911 6.15385C4.91038 5.08317 5.3418 4.0567 6.10871 3.29962C6.87563 2.54253 7.91542 2.11665 9 2.11539Z" fill="#7E7E7E"/>
</svg>
