<svg width="112" height="24" viewBox="0 0 112 24" fill="none" xmlns="http://www.w3.org/2000/svg">
<path d="M72.5248 13.877L72.4816 22.7381H67.8653V15.623C67.8653 12.2183 66.7435 10.4722 62.9469 10.4722C59.8406 10.4722 56.5186 12.0873 55.0948 13.746V22.7381H50.4785V6.71826H55.0948V9.51192C57.3383 7.72223 60.4878 6.45636 64.3275 6.45636C68.5124 6.45636 72.4816 7.98414 72.5248 13.877Z" fill="black"/>
<path d="M97.3314 13.877L97.2882 22.7381H92.6719V15.623C92.6719 12.2183 91.5502 10.4722 87.7536 10.4722C84.6473 10.4722 81.3252 12.0873 79.9015 13.746V22.7381H75.2852V6.71826H79.9015V9.51192C82.1449 7.72223 85.2944 6.45636 89.1342 6.45636C93.3191 6.45636 97.2451 7.98414 97.3314 13.877Z" fill="black"/>
<path d="M39.6919 18.9841C38.8722 19.1587 37.8799 19.246 36.7581 19.246C33.695 19.246 31.2789 18.4167 30.7612 15.8413H39.6919H47.846C47.846 8.5516 43.0139 6.45636 37.017 6.45636C30.5886 6.45636 26.0586 8.85715 26.0586 14.75C26.0586 20.6429 30.7181 23 36.7581 23C37.7936 23 38.7859 22.9564 39.6919 22.8254V18.9841ZM37.017 9.99207C39.9076 9.99207 42.1942 10.6032 42.9708 12.873H30.9338C31.6672 10.6032 33.8675 9.99207 37.017 9.99207Z" fill="black"/>
<path d="M23.298 9.7738V22.7381H18.6816V9.7738H23.298Z" fill="black"/>
<path d="M4.61633 1V22.7818H0V1H4.61633Z" fill="black"/>
<path d="M21.0103 9.7738H0.603516V13.9206H21.0103V9.7738Z" fill="black"/>
<path d="M23.3409 1H18.7246V5.67064H23.3409V1Z" fill="#FB35FF"/>
<path d="M104.665 1H100.049V5.05952H104.665V1Z" fill="black"/>
<path d="M104.665 6.71826H100.049V22.7381H104.665V6.71826Z" fill="black"/>
<path d="M112 1H107.384V5.05952H112V1Z" fill="black"/>
<path d="M111.999 6.71826H107.383V22.7381H111.999V6.71826Z" fill="black"/>
</svg>
