<svg width="892" height="347" viewBox="0 0 892 347" fill="none" xmlns="http://www.w3.org/2000/svg">
<path d="M884.241 211.855L881.072 212.195C820.383 218.622 757.628 225.36 703.672 263.433C699.3 266.518 694.873 269.759 690.584 272.898C673.401 285.476 655.685 298.476 636.729 304.939C603.666 316.213 569.685 306.867 540.709 296.227C521.872 289.304 502.962 281.033 484.686 273.036C459.677 262.093 433.815 250.773 407.824 242.74C354.446 226.352 309.774 227.628 271.256 246.66C259.197 252.618 244.328 264.728 228.587 277.553C210.466 292.362 191.721 307.593 177.073 313.22C139.831 327.423 110.167 306.674 78.7569 284.641C67.2124 276.562 55.2823 268.207 42.5163 261.202C39.2345 259.403 35.9466 257.591 32.6526 255.767C-11.9363 231.108 -58.0405 205.613 -105.789 211.635L-106 210.001C-57.7191 203.942 -11.3393 229.556 33.4516 254.344C36.7395 256.18 40.0244 257.992 43.3062 259.779C56.1639 266.83 68.1033 275.212 79.6936 283.309C110.736 305.04 140.061 325.541 176.485 311.669C190.895 306.16 209.548 290.994 227.549 276.314C243.364 263.461 258.306 251.259 270.53 245.218C309.444 226.003 354.51 224.69 408.292 241.206C434.384 249.221 460.283 260.559 485.328 271.503C503.596 279.49 522.469 287.753 541.269 294.657C569.933 305.196 603.638 314.469 636.187 303.351C654.858 296.98 672.519 284.071 689.602 271.54C693.9 268.4 698.336 265.113 702.717 262.065C757.022 223.745 819.988 217.024 880.888 210.533L884.057 210.194L884.241 211.855Z" fill="url(#paint0_radial_399_771)"/>
<path d="M884.645 199.183C777.099 206.363 729.993 231.775 698.097 255.682C693.009 259.483 687.857 263.486 682.879 267.36C669.663 277.652 655.988 288.292 642.056 296.041C638.384 298.069 634.61 299.907 630.75 301.549C611.252 309.812 589.927 311.942 565.543 307.976C554.486 306.197 543.722 302.927 533.545 298.253C528.329 295.839 522.855 293.103 516.803 289.899C503.329 282.802 489.746 275.209 476.613 267.791L467.796 262.834C444.836 249.981 422.068 240.332 400.082 234.135C355.713 221.621 318.462 220.85 286.199 231.794C279.936 233.918 273.829 236.476 267.922 239.45C256.387 245.308 242.308 256.802 227.402 268.967C209.594 283.509 191.18 298.547 176.595 303.991C140.538 317.551 111.728 297.491 81.1356 276.192C69.9494 268.407 58.3957 260.364 46.0615 253.616L38.5489 249.531C22.7706 240.919 6.45038 232.014 -9.87899 224.743C-46.992 208.089 -77.3822 201.883 -105.513 205.215L-105.706 203.59C-77.2353 200.221 -46.5971 206.464 -9.20855 223.246C7.17592 230.591 23.5328 239.505 39.3387 248.126L46.8513 252.221C59.259 259.005 70.8586 267.084 82.0724 274.888C112.261 295.857 140.768 315.715 176.017 302.467C190.353 297.106 208.657 282.159 226.364 267.709C241.343 255.48 255.487 243.94 267.178 237.991C273.154 234.982 279.331 232.393 285.666 230.242C318.233 219.225 355.796 219.95 400.467 232.556C422.583 238.789 445.47 248.503 468.531 261.411L477.357 266.368C490.481 273.713 504.055 281.37 517.501 288.448C523.535 291.652 528.99 294.37 534.17 296.766C544.213 301.376 554.834 304.607 565.745 306.369C589.807 310.317 610.839 308.205 630.034 300.08C633.842 298.435 637.563 296.597 641.183 294.572C654.959 286.878 668.625 276.274 681.795 266.029C686.782 262.154 691.898 258.142 697.041 254.332C754.221 211.467 823.864 201.552 884.461 197.513L884.645 199.183Z" fill="url(#paint1_radial_399_771)"/>
<path d="M885.031 186.523C804.973 188.855 741.997 208.943 692.504 247.943C686.727 252.533 680.895 257.307 675.265 261.962C662.481 272.52 649.265 283.445 635.957 291.845C632.219 294.205 628.445 296.353 624.744 298.272C604.685 308.536 583.332 312.438 559.472 310.207C547.873 309.219 536.606 305.826 526.391 300.246C521.413 297.491 516.288 294.351 509.924 290.147C497.746 282.086 485.448 273.621 473.555 265.359L462.414 257.665C441.098 242.964 417.391 232.073 392.349 225.477C348.118 214.047 313.136 213.772 282.259 224.614C276.218 226.722 270.334 229.256 264.653 232.198C253.567 237.954 240.223 248.879 226.079 260.456C208.63 274.732 190.638 289.486 176.155 294.774C141.338 307.627 113.381 288.347 83.7899 267.828C72.8883 260.291 61.6102 252.487 49.5974 245.987L46.4748 244.298C28.878 234.787 10.7027 224.963 -7.58291 217.215C-45.0817 201.341 -76.1148 195.447 -105.228 198.688L-105.412 197.054C-76.0229 193.785 -44.7143 199.707 -6.94002 215.7C11.4282 223.448 29.6311 233.327 47.2463 242.875L50.378 244.564C62.4644 251.101 73.7792 258.932 84.7175 266.497C113.95 286.695 141.558 305.818 175.585 293.25C189.802 288.053 207.729 273.392 225.023 259.207C239.231 247.575 252.64 236.586 263.872 230.747C269.623 227.77 275.577 225.202 281.689 223.063C312.915 212.11 348.182 212.367 392.744 223.889C417.973 230.534 441.857 241.505 463.333 256.316L474.501 264.018C486.385 272.281 498.673 280.736 510.842 288.806C517.216 293.029 522.258 296.151 527.199 298.905C537.231 304.322 548.281 307.592 559.646 308.508C583.185 310.712 604.245 306.874 624.018 296.757C627.692 294.921 631.365 292.754 635.094 290.422C648.31 282.086 661.489 271.198 674.237 260.667C679.876 256.013 685.708 251.193 691.503 246.621C741.281 207.4 804.578 187.193 885.003 184.852L885.031 186.523Z" fill="url(#paint2_radial_399_771)"/>
<path d="M885.471 172.212L885.471 173.855C831.937 173.516 754.037 184.762 686.956 240.205C680.252 245.713 673.52 251.616 667.018 257.29C654.895 267.866 642.358 278.801 629.895 287.642C626.222 290.249 622.484 292.691 618.792 294.904C598.109 307.289 576.738 312.99 553.447 312.347C540.442 311.98 528.944 308.611 519.254 302.322C513.66 298.618 508.256 294.635 503.063 290.387C493.539 282.748 483.951 274.779 474.665 267.077C468.83 262.26 462.959 257.403 457.05 252.507C435.919 235.288 411.151 223.092 384.615 216.84C340.743 206.475 307.955 206.667 278.3 217.464C272.479 219.563 266.814 222.07 261.346 224.965C250.738 230.611 238.11 240.976 224.738 251.947C207.702 265.938 190.077 280.407 175.713 285.558C142.044 297.667 114.942 279.067 86.26 259.374C75.6891 252.121 64.7691 244.621 53.1972 238.387L52.6645 238.102C33.8187 228.003 14.3392 217.519 -5.25057 209.715C-43.1259 194.668 -74.7927 189.059 -104.944 192.208L-105.119 190.564C-74.71 187.397 -42.7769 193.006 -4.68116 208.21C15.0004 216.05 34.5258 226.571 53.3992 236.67L53.9319 236.955C65.6233 243.234 76.5891 250.726 87.1876 258.07C115.521 277.525 142.292 295.895 175.162 284.07C189.26 279.003 206.765 264.626 223.7 250.735C237.127 239.718 249.82 229.298 260.574 223.569C266.103 220.633 271.833 218.093 277.721 215.967C307.707 205.051 340.789 204.85 384.983 215.288C411.764 221.597 436.762 233.907 458.088 251.286C464.015 256.146 469.89 261.002 475.712 265.856C484.988 273.558 494.577 281.518 504.082 289.157C508.334 292.572 514.001 296.997 520.136 300.981C529.605 307.068 540.791 310.346 553.484 310.704C576.444 311.337 597.567 305.709 617.938 293.49C621.611 291.305 625.285 288.899 628.959 286.301C641.357 277.515 653.857 266.599 665.952 256.051C672.464 250.368 679.205 244.492 685.928 238.938C753.357 183.174 831.661 171.872 885.471 172.212Z" fill="url(#paint3_radial_399_771)"/>
<path d="M885.949 159.543L885.884 161.186C811.127 158.061 737.992 183.549 681.382 232.456C673.548 239.223 665.769 246.393 658.201 253.333C646.409 264.167 635.241 274.449 623.806 283.437C620.188 286.292 616.459 289.019 612.785 291.553C591.469 306.242 570.079 313.725 547.376 314.505C533.719 314.982 521.853 311.567 512.1 304.342C506.517 300.108 501.205 295.53 496.193 290.635C488.708 283.492 481.177 276.102 473.894 268.95C466.611 261.798 459.199 254.527 451.687 247.348C430.844 227.641 404.949 214.088 376.873 208.192C348.099 202.013 310.444 196.67 274.286 210.276C268.689 212.362 263.248 214.844 258.003 217.703C247.9 223.211 235.961 233.026 223.416 243.409C206.746 257.134 189.508 271.328 175.227 276.35C142.733 287.77 116.448 269.923 88.6846 250.928C78.4535 243.96 67.8734 236.744 56.6688 230.73C38.4108 220.999 17.7098 209.963 -3.02797 202.197C-40.5818 188.122 -73.7916 182.733 -104.669 185.717L-104.825 184.083C-73.7365 181.053 -40.242 186.497 -2.42181 200.718C18.4261 208.531 39.1731 219.585 57.477 229.344C68.7643 235.357 79.3811 242.592 89.6214 249.542C117.054 268.252 142.981 285.916 174.694 274.771C188.7 269.85 205.819 255.748 222.378 242.114C235.024 231.703 246.973 221.862 257.222 216.252C262.548 213.356 268.073 210.841 273.754 208.724C310.27 194.953 348.237 200.314 377.222 206.548C405.596 212.503 431.765 226.2 452.826 246.117C460.357 253.306 467.823 260.641 475.051 267.738C482.279 274.835 489.856 282.28 497.332 289.405C502.291 294.26 507.549 298.801 513.073 303.001C522.643 310.098 533.848 313.321 547.312 312.843C569.684 312.063 590.799 304.645 611.849 290.176C615.522 287.66 619.196 284.952 622.769 282.124C634.184 273.127 645.297 262.909 657.071 252.094C664.621 245.144 672.436 237.965 680.289 231.189C737.22 182.01 810.771 156.387 885.949 159.543Z" fill="url(#paint4_radial_399_771)"/>
<path d="M886.408 146.873L886.289 148.516C812.255 143.256 735.531 171.037 675.789 224.717C666.604 232.979 657.503 241.775 648.714 250.276C638.042 260.595 627.967 270.336 617.708 279.241C614.145 282.335 610.471 285.346 606.788 288.202C584.838 305.278 563.421 314.596 541.324 316.662C527.043 318.012 514.809 314.551 504.964 306.361C499.386 301.586 494.167 296.406 489.351 290.864C483.106 283.905 476.833 276.717 470.772 269.748C462.864 260.669 454.681 251.277 446.342 242.151C426.238 220.181 399.503 205.428 369.14 199.525C316.019 189.187 288.448 196.008 270.365 203.105C264.995 205.186 259.778 207.64 254.752 210.45C245.127 215.866 233.977 225.084 222.167 234.843C205.874 248.311 189.021 262.238 174.823 267.113C143.495 277.855 118.083 260.687 91.1736 242.454C81.2823 235.77 71.0604 228.848 60.2598 223.174C38.7966 211.818 19.3905 201.838 -0.695142 194.769C-38.4878 181.411 -72.3955 176.306 -104.384 179.235L-104.531 177.592C-72.3037 174.663 -38.1663 179.777 -0.162458 193.199C20.0426 200.314 39.4946 210.321 61.0221 221.659C71.8961 227.416 82.1456 234.356 92.0828 241.068C118.643 259.034 143.725 275.955 174.281 265.525C188.195 260.751 204.928 246.925 221.12 233.549C232.986 223.744 244.19 214.48 253.944 208.99C259.037 206.139 264.325 203.651 269.768 201.544C288.053 194.356 315.918 187.452 369.452 197.872C400.21 203.858 427.211 218.768 447.517 241.022C455.875 250.157 464.049 259.549 471.975 268.637C478.036 275.587 484.3 282.776 490.536 289.753C495.311 295.227 500.473 300.351 505.983 305.085C515.618 313.091 527.107 316.332 541.14 315.01C563.182 312.926 583.755 303.993 605.75 286.87C609.424 284.034 613.098 281.032 616.597 277.965C626.828 269.087 636.894 259.356 647.538 249.064C656.346 240.572 665.53 231.777 674.714 223.496C734.769 169.522 811.934 141.594 886.408 146.873Z" fill="url(#paint5_radial_399_771)"/>
<path d="M886.867 134.205L886.711 135.839C812.476 128.366 733.492 157.947 670.214 216.979C659.349 227.078 648.686 237.948 638.382 248.423C629.152 257.806 620.436 266.675 611.61 275.047C608.083 278.389 604.446 281.694 600.791 284.871C577.923 304.766 557.093 315.562 535.253 318.84C520.421 321.098 507.802 317.582 497.828 308.42C492.255 303.082 487.126 297.3 482.491 291.132C476.98 284.063 471.47 276.755 466.18 269.695C458.07 258.917 449.648 247.771 440.978 237.03C415.896 206.026 383.853 194.798 361.389 190.915C332.78 185.911 299.12 182.652 266.388 195.983C261.242 198.058 256.246 200.488 251.436 203.254C242.307 208.542 231.893 217.199 220.863 226.353C204.946 239.564 188.498 253.225 174.363 257.944C144.203 268.043 119.617 251.517 93.589 234.074C84.0467 227.647 74.183 221.046 63.805 215.602C42.9111 204.631 22.4764 194.211 1.58257 187.316C-36.3111 174.702 -70.8801 169.937 -104.099 172.746L-104.237 171.112C-70.7883 168.284 -35.9988 173.067 2.11525 185.737C23.0734 192.668 43.6183 203.116 64.5672 214.124C75.0279 219.632 84.9284 226.261 94.5075 232.687C120.223 249.92 144.451 266.197 173.84 256.392C187.68 251.802 204.019 238.205 219.816 225.095C230.901 215.914 241.371 207.192 250.61 201.84C255.487 199.042 260.554 196.588 265.773 194.495C298.891 180.963 332.817 184.295 361.673 189.327C384.413 193.302 416.852 204.631 442.255 236.038C450.971 246.798 459.374 257.953 467.493 268.749C472.81 275.8 478.303 283.099 483.795 290.159C488.367 296.261 493.436 301.976 498.948 307.244C508.527 316.058 520.66 319.427 535.014 317.261C556.524 314.011 577.087 303.333 599.717 283.659C603.344 280.501 606.972 277.232 610.48 273.881C619.279 265.536 627.994 256.686 637.215 247.312C647.529 236.782 658.183 225.939 669.093 215.786C732.758 156.423 812.136 126.686 886.867 134.205Z" fill="url(#paint6_radial_399_771)"/>
<path d="M887.336 121.543L887.124 123.168C813.495 113.693 730.315 145.863 664.612 209.237C651.644 221.751 639.08 235.191 626.957 248.191C619.554 256.105 612.565 263.588 605.521 270.84C602.013 274.448 598.403 278.038 594.794 281.508C571.025 304.405 550.802 316.588 529.201 320.986C513.753 324.153 500.804 320.591 490.71 310.419C484.878 304.534 480.029 297.777 475.658 291.35C470.661 284.006 465.674 276.395 460.862 269.05C452.798 256.739 444.45 244.005 435.652 231.84C416.273 205.051 387.15 187.433 353.665 182.264C326.177 177.995 293.84 175.434 262.43 188.81C257.508 190.879 252.736 193.287 248.149 196.017C239.525 201.168 229.835 209.256 219.568 217.812C204.046 230.776 187.993 244.17 173.913 248.733C144.928 258.134 121.169 242.307 96.0137 225.598C86.8296 219.483 77.3148 213.158 67.3593 207.97C46.2358 196.954 25.4154 186.497 3.88783 179.813C-34.0426 167.979 -69.2728 163.554 -103.814 166.262L-103.943 164.619C-69.181 161.865 -33.7579 166.354 4.37459 178.243C26.0399 184.963 46.8879 195.448 68.1215 206.511C78.1506 211.735 87.6929 218.088 96.9229 224.23C121.72 240.755 145.176 256.362 173.408 247.182C187.184 242.711 203.11 229.417 218.521 216.564C228.825 207.961 238.57 199.827 247.304 194.612C251.958 191.831 256.801 189.377 261.796 187.268C293.573 173.726 326.195 176.297 353.913 180.603C387.839 185.872 417.348 203.72 436.983 230.867C445.8 243.069 454.158 255.811 462.24 268.132C467.052 275.477 472.03 283.069 477.017 290.414C481.342 296.776 486.137 303.469 491.877 309.253C501.557 319.012 514.001 322.409 528.87 319.352C550.141 314.991 570.125 302.936 593.655 280.269C597.246 276.817 600.846 273.237 604.336 269.638C611.371 262.394 618.36 254.948 625.754 247.016C637.913 234.007 650.496 220.548 663.5 207.998C729.534 144.339 813.211 111.995 887.336 121.543Z" fill="url(#paint7_radial_399_771)"/>
<path d="M887.786 108.872L887.538 110.497C813.275 98.9566 727.854 132.971 659.102 201.497C643.415 217.104 628.482 233.96 614.044 250.256C609.112 255.819 604.254 261.273 599.46 266.634C595.924 270.564 592.351 274.438 588.825 278.156C571.448 296.518 550.059 316.284 523.167 323.142C507.15 327.237 493.852 323.638 483.63 312.437C477.825 306.084 473.105 298.666 468.862 291.588C464.205 283.811 459.604 275.797 455.15 268.039C447.27 254.268 439.124 240.129 430.353 226.679C411.13 197.264 381.126 178.407 345.923 173.615C321.172 170.245 288.871 168.106 258.472 181.648C253.77 183.706 249.216 186.086 244.843 188.772C236.733 193.776 227.76 201.304 218.264 209.282C203.138 221.979 187.488 235.117 173.464 239.523C145.636 248.254 122.694 233.097 98.4112 217.132C89.5761 211.311 80.4379 205.279 70.8589 200.358C50.2497 189.699 28.2629 178.756 6.12922 172.329C-31.1583 161.423 -68.0693 157.199 -103.538 159.779L-103.658 158.136C-67.9958 155.547 -30.8828 159.788 6.62516 170.75C28.9058 177.223 50.9661 188.194 71.6487 198.898C81.2553 203.865 90.4302 209.915 99.3113 215.764C123.263 231.545 145.875 246.455 172.959 237.954C186.68 233.648 202.192 220.62 217.199 208.024C226.741 200.009 235.76 192.417 243.97 187.367C248.398 184.653 253.004 182.239 257.756 180.142C288.532 166.444 321.126 168.593 346.098 171.98C381.787 176.837 412.168 195.961 431.648 225.817C440.446 239.312 448.602 253.515 456.445 267.259C460.899 275.007 465.5 283.022 470.148 290.78C474.336 297.785 479.001 305.12 484.714 311.372C494.495 322.086 507.251 325.52 522.635 321.581C549.122 314.797 570.291 295.251 587.502 277.036C591.011 273.364 594.583 269.453 598.11 265.533C602.904 260.208 607.762 254.727 612.685 249.172C627.141 232.858 642.074 215.984 657.807 200.331C727.064 131.447 813.009 97.2489 887.786 108.872Z" fill="url(#paint8_radial_399_771)"/>
<path d="M888.254 96.2046L887.96 97.8296C812.907 84.2696 725.227 120.13 653.471 193.75C634.184 213.535 616.248 234.99 598.908 255.73L593.306 262.432C589.715 266.719 586.17 270.878 582.772 274.807C564.165 296.309 543.28 317.305 517.05 325.302C500.473 330.36 486.816 326.715 476.456 314.478C470.67 307.638 466.078 299.559 461.992 291.838C457.611 283.575 453.303 275.074 449.134 266.829C441.52 251.773 433.649 236.202 424.961 221.522C405.904 189.389 375.082 169.247 338.162 164.932C314.614 162.178 283.829 160.773 254.486 174.443C250.012 176.499 245.683 178.855 241.527 181.494C233.932 186.332 225.675 193.319 216.941 200.709C202.246 213.159 186.982 226.03 172.995 230.271C146.361 238.36 124.2 223.918 100.78 208.632C92.3033 203.124 83.5325 197.377 74.4402 192.713C53.4912 181.971 31.1371 170.973 8.45233 164.813C-27.878 154.762 -65.6362 150.867 -103.254 153.291L-103.364 151.647C-65.5681 149.233 -27.6343 153.158 8.86562 163.261C31.6973 169.467 54.1433 180.512 75.1658 191.29C84.3499 195.99 93.1482 201.738 101.662 207.292C124.751 222.367 146.563 236.597 172.499 228.738C186.165 224.598 201.254 211.827 215.857 199.488C224.637 192.061 232.94 185.047 240.654 180.144C244.869 177.463 249.264 175.073 253.806 172.993C283.517 159.148 314.605 160.562 338.364 163.334C375.799 167.705 407.061 188.123 426.385 220.723C435.1 235.413 442.98 251.02 450.603 266.132C454.764 274.394 459.071 282.868 463.461 291.103C467.511 298.742 472.048 306.711 477.733 313.458C487.624 325.146 500.693 328.616 516.582 323.768C542.463 315.855 563.081 295.06 581.532 273.742C584.921 269.822 588.457 265.663 592.048 261.385L597.65 254.683C615.008 233.916 632.963 212.452 652.296 192.612C724.446 118.597 812.659 82.5528 888.254 96.2046Z" fill="url(#paint9_radial_399_771)"/>
<path d="M888.704 83.5815L888.374 85.1881C812.421 69.6451 722.508 107.35 647.878 186.057C625.901 209.239 605.852 234.449 587.19 258.282C583.736 262.689 580.246 267.124 576.747 271.512C559.123 293.619 538.045 318.003 510.961 327.515C493.833 333.546 479.827 329.865 469.33 316.571C463.562 309.227 459.108 300.514 455.15 292.15C451.008 283.373 446.957 274.312 443.045 265.526C435.698 249.166 428.194 232.255 419.625 216.409C400.715 181.421 369.03 160.076 330.42 156.321C297.357 153.098 272.68 156.486 250.518 167.338C246.268 169.383 242.16 171.711 238.221 174.306C231.149 178.97 223.6 185.405 215.609 192.227C201.301 204.428 186.496 217.015 172.527 221.119C147.023 228.546 125.688 214.793 103.15 200.223C95.0313 194.981 86.6186 189.564 77.9764 185.167C56.6692 174.333 33.8926 163.261 10.7303 157.386C-26.3981 147.972 -64.769 144.41 -102.997 146.828L-103.098 145.185C-64.6952 142.751 -26.148 146.322 11.1527 155.77C34.5079 161.692 57.3488 172.8 78.7386 183.679C87.4727 188.114 95.9038 193.558 104.059 198.828C126.294 213.186 147.298 226.746 172.086 219.521C185.715 215.546 200.382 203.051 214.563 190.951C222.589 184.111 230.176 177.639 237.33 172.91C241.331 170.279 245.504 167.917 249.82 165.841C272.257 154.87 297.174 151.427 330.595 154.687C369.802 158.497 401.946 180.145 421.086 215.629C429.682 231.53 437.241 248.468 444.56 264.856C448.464 273.614 452.505 282.667 456.647 291.48C460.559 299.743 464.958 308.4 470.634 315.58C480.645 328.222 494.035 331.719 510.429 325.954C537.063 316.571 557.984 292.389 575.471 270.456C578.97 266.068 582.46 261.643 585.904 257.236C604.584 233.366 624.67 208.128 646.693 184.9C721.719 105.771 812.191 67.8824 888.704 83.5815Z" fill="url(#paint10_radial_399_771)"/>
<path d="M889.172 70.8749L888.805 72.4816C811.842 54.9738 719.698 94.5154 642.303 178.281C623.494 198.644 604.648 222.009 581.091 254.041L578.666 257.346C576.04 260.932 573.398 264.525 570.741 268.124C552.042 293.454 531.552 319.077 504.89 329.635C487.441 336.548 472.746 332.729 462.221 318.563C456.38 310.668 452.118 301.303 448.335 292.361C444.275 282.786 440.363 272.889 436.579 263.313C429.718 245.943 422.619 227.976 414.307 211.231C395.783 173.902 362.39 150.72 322.696 147.645C291.966 145.258 267.775 149.224 246.578 160.121C242.551 162.159 238.663 164.463 234.942 167.016C228.403 171.496 221.551 177.39 214.305 183.633C200.419 195.568 186.055 207.971 172.058 211.864C147.702 218.649 127.203 205.566 105.492 191.712C97.7402 186.764 89.7132 181.613 81.5026 177.51C59.8097 166.575 36.6474 155.43 13.0075 149.848C-23.3065 141.236 -62.238 138.023 -102.712 140.291L-102.804 138.657C-62.1553 136.371 -23.0585 139.575 13.4024 148.25C37.2168 153.878 60.4802 165.06 82.2833 176.041C90.549 180.218 98.6218 185.359 106.41 190.326C127.8 203.978 148.005 216.868 171.617 210.276C185.237 206.484 199.454 194.237 213.203 182.394C220.486 176.114 227.374 170.193 233.977 165.657C237.77 163.08 241.724 160.749 245.816 158.68C267.297 147.663 291.736 143.623 322.815 146.029C363.106 149.159 396.986 172.653 415.777 210.533C424.116 227.343 431.225 245.337 438.094 262.735C441.878 272.301 445.781 282.189 449.841 291.746C453.56 300.605 457.794 309.86 463.534 317.617C473.637 331.306 487.413 334.841 504.275 328.129C530.532 317.709 550.848 292.324 569.409 267.151C572.06 263.558 574.702 259.965 577.335 256.372L579.759 253.067C603.317 220.99 622.227 197.579 641.091 177.17C718.89 92.973 811.631 53.2387 889.172 70.8749Z" fill="url(#paint11_radial_399_771)"/>
<path d="M889.622 58.2133L889.218 59.8107C810.951 40.2924 716.557 81.6885 636.71 170.54C616.946 192.39 596.75 218.326 574.974 249.844L567.939 260.08L564.716 264.781C545.006 293.498 525.132 320.233 498.801 331.8C480.828 339.705 465.738 335.84 455.103 320.609C449.28 312.264 445.129 302.247 441.511 292.626C437.662 282.527 434.007 272.07 430.49 261.962C423.951 243.307 417.2 224.009 408.999 206.088C390.585 165.821 356.31 141.364 314.972 139.004C286.226 137.352 263.238 141.758 242.638 152.959C238.823 154.994 235.142 157.269 231.617 159.771C225.629 164.049 219.475 169.42 212.955 175.103C199.5 186.827 185.595 198.973 171.626 202.645C148.436 208.806 128.736 196.384 107.87 183.246C100.523 178.592 92.8448 173.772 85.0842 169.897C62.9689 158.88 39.3657 147.634 15.2849 142.355C-20.8362 134.405 -59.3452 131.604 -102.455 133.799L-102.538 132.155C-59.2809 129.952 -20.625 132.77 15.6339 140.748C39.8708 146.064 63.575 157.329 85.7822 168.419C93.6163 172.33 101.294 177.169 108.743 181.842C129.287 194.786 148.693 207.015 171.194 201.048C184.796 197.44 198.563 185.44 211.871 173.845C218.419 168.135 224.609 162.736 230.662 158.421C234.237 155.891 237.967 153.585 241.83 151.517C262.714 140.207 285.978 135.708 315.045 137.37C357.017 139.775 391.797 164.573 410.478 205.418C418.743 223.403 425.475 242.738 432.023 261.421C435.559 271.519 439.215 281.958 443.044 292.048C446.626 301.55 450.732 311.465 456.444 319.673C469.219 338.034 486.173 335.564 498.14 330.295C524.076 318.883 543.785 292.351 563.347 263.835L566.571 259.134C568.931 255.701 571.273 252.276 573.615 248.898C595.427 217.316 615.669 191.325 635.479 169.42C715.758 80.1278 810.758 38.5481 889.622 58.2133Z" fill="url(#paint12_radial_399_771)"/>
<path d="M890.082 45.5453L889.659 47.1336C810.281 25.6965 713.636 68.9379 631.135 162.811C610.26 186.406 589.302 214.306 568.876 245.649C565.671 250.57 562.448 255.583 559.233 260.614L558.7 261.44C541.875 287.716 520.935 320.399 492.731 333.968C469.339 345.233 455.489 334.042 447.995 322.676C442.191 313.863 438.177 303.167 434.696 292.912C431.023 282.262 427.643 271.245 424.328 260.596C418.137 240.655 411.736 220.044 403.663 200.967C385.295 157.652 350.184 131.918 307.23 130.376C280.862 129.458 258.444 134.47 238.661 145.809C235.097 147.845 231.659 150.096 228.366 152.547C222.929 156.596 217.446 161.443 211.651 166.575C198.646 178.07 185.21 189.959 171.241 193.466C149.199 198.974 129.426 186.7 110.295 174.801C103.278 170.441 96.0229 165.933 88.7032 162.316C66.147 151.161 42.0754 139.859 17.6824 134.911C-18.053 127.649 -56.1028 125.234 -102.124 127.346L-102.207 125.712C-56.0385 123.591 -17.8601 126.006 17.9488 133.304C42.5346 138.289 66.7072 149.646 89.3736 160.847C96.7209 164.519 104.068 169.027 111.094 173.406C130.803 185.662 149.419 197.23 170.791 191.878C184.402 188.462 197.691 176.711 210.54 165.345C216.372 160.186 221.873 155.311 227.365 151.225C230.721 148.734 234.223 146.447 237.853 144.376C257.893 132.891 280.614 127.768 307.285 128.769C350.91 130.339 386.599 156.431 405.188 200.379C413.288 219.53 419.699 240.187 425.907 260.155C429.214 270.805 432.63 281.803 436.267 292.435C439.702 302.589 443.679 313.174 449.382 321.813C462.304 341.423 479.689 338.476 492.024 332.545C519.815 319.169 540.617 286.697 557.332 260.605L557.855 259.779C561.088 254.738 564.284 249.68 567.508 244.805C587.989 213.379 608.983 185.451 629.96 161.765C712.828 67.368 810.088 23.9062 890.082 45.5453Z" fill="url(#paint13_radial_399_771)"/>
<path d="M890.541 32.885L890.081 34.4641C809.555 11.1174 710.661 56.2041 625.579 155.072C602.359 182.151 581.352 211.05 562.76 241.49C559.582 246.632 556.331 252.012 553.236 257.208L552.685 258.126C534.84 287.872 514.626 321.593 486.642 336.163C467.86 345.949 451.613 341.891 440.886 324.742C435.091 315.478 431.206 304.113 427.882 293.206C424.438 281.987 421.241 270.392 418.156 259.173C412.315 237.983 406.281 216.069 398.336 195.825C380.354 150.032 343.397 122.324 299.479 121.718C275.48 121.397 253.686 127.08 234.703 138.638C231.353 140.667 228.127 142.892 225.041 145.304C220.164 149.086 215.352 153.429 210.246 158.019C197.728 169.293 184.778 180.971 170.754 184.258C149.878 189.16 130.932 177.556 112.609 166.346C105.96 162.27 99.0903 158.083 92.2297 154.714C69.1501 143.44 44.5917 132.056 19.8865 127.429C-15.0132 120.864 -52.567 118.845 -101.867 120.864L-101.932 119.221C-52.5027 117.192 -14.8387 119.221 20.2171 125.813C45.106 130.477 69.8113 141.916 92.9186 153.236C99.8526 156.623 106.759 160.856 113.436 164.941C131.483 175.958 150.172 187.407 170.377 182.66C184.025 179.456 196.818 167.971 209.18 156.798C214.305 152.207 219.145 147.828 224.068 144C227.205 141.558 230.48 139.299 233.876 137.234C253.163 125.519 275.205 119.744 299.534 120.075C344.086 120.69 381.63 148.765 399.87 195.219C407.842 215.518 413.885 237.451 419.735 258.714C422.83 269.914 426.017 281.5 429.452 292.682C432.749 303.479 436.588 314.716 442.31 323.824C455.388 344.737 473.242 341.267 485.907 334.666C513.459 320.307 533.572 286.798 551.298 257.236L551.858 256.317C554.981 251.112 558.204 245.732 561.391 240.582C580.02 210.081 601.067 181.123 624.33 153.989C709.852 54.625 809.371 9.35464 890.541 32.885Z" fill="url(#paint14_radial_399_771)"/>
<path d="M890.991 20.2328L890.504 21.8027C808.766 -3.44444 707.639 43.4877 619.968 147.35C596.307 175.459 575.123 205.562 556.652 237.321C553.383 242.894 550.224 248.54 546.66 254.82L546.118 255.738C527.566 288.697 508.372 322.758 480.553 338.365C461.22 349.171 444.606 345.067 433.769 326.816C428.332 317.708 424.759 306.912 421.067 293.508C417.816 281.72 414.841 269.528 411.957 257.703C406.446 235.256 400.816 212.056 393.019 190.683C375.092 141.639 337.226 112.646 291.746 113.069C270.067 113.189 248.885 119.565 230.745 131.43C227.628 133.463 224.623 135.664 221.744 138.022C217.446 141.529 213.075 145.55 208.887 149.443C196.855 160.46 184.42 171.945 170.313 175.021C150.595 179.308 132.484 168.401 114.961 157.853C108.688 154.079 102.204 150.168 95.7935 147.074C71.2627 135.213 47.1728 124.205 22.2563 119.908C-20.0458 112.564 -62.2376 112.922 -101.509 114.354L-101.564 112.711C-62.1917 111.279 -19.908 110.966 22.5318 118.293C47.6595 122.626 71.8689 133.68 96.5098 145.596C102.939 148.727 109.505 152.647 115.796 156.448C133.044 166.822 150.871 177.564 169.983 173.414C183.667 170.43 195.937 159.147 207.803 148.231C212.046 144.329 216.436 140.29 220.78 136.746C223.72 134.353 226.785 132.118 229.964 130.053C248.334 118.033 269.782 111.566 291.737 111.425C313.101 111.217 333.968 117.869 351.268 130.402C370.298 144.063 385.249 164.729 394.562 190.151C402.396 211.588 408.072 234.833 413.555 257.317C416.429 269.096 419.405 281.279 422.656 293.039C426.33 306.324 429.838 317.001 435.183 325.953C442.475 338.236 456.123 350.107 479.754 336.896C507.168 321.573 526.244 287.705 544.685 254.948L545.227 254.03C548.763 247.742 551.959 242.095 555.229 236.504C573.741 204.655 594.974 174.467 618.691 146.276C706.859 41.8903 808.609 -5.23469 890.991 20.2328Z" fill="url(#paint15_radial_399_771)"/>
<path d="M891.459 7.55434L890.954 9.11507C771.055 -30.096 628.958 92.1001 550.554 233.071C546.724 239.956 542.848 247.273 539.101 254.343C520.962 288.55 502.227 323.924 474.5 340.458C464.609 346.352 455.002 348.317 446.746 346.132C438.783 344.03 432.051 338.2 426.697 328.799C421.241 319.196 417.788 307.83 414.289 293.71C411.221 281.343 408.457 268.555 405.794 256.179C400.678 232.502 395.397 208.017 387.728 185.542C370.104 133.873 330.374 102.787 284.049 104.421C264.073 105.128 244.814 111.811 226.823 124.288C220.1 128.943 213.671 134.993 207.398 140.914C195.9 151.784 184.006 163.012 169.799 165.831C151.237 169.503 133.98 159.303 117.238 149.425C111.342 145.936 105.243 142.337 99.2921 139.491C74.1643 127.501 49.5417 116.411 24.4874 112.454C-17.1901 105.88 -58.785 106.541 -101.28 107.863L-101.335 106.22C-58.7574 104.871 -17.0707 104.2 24.7446 110.811C50.0193 114.804 74.7613 125.95 99.9992 137.995C106.015 140.868 112.141 144.486 118.074 147.993C134.522 157.715 151.531 167.768 169.505 164.206C183.281 161.452 194.963 150.435 206.296 139.702C212.569 133.781 219.062 127.648 225.877 122.92C244.135 110.26 263.679 103.475 283.975 102.722C331.062 101.07 371.408 132.578 389.281 184.954C396.977 207.521 402.267 232.052 407.392 255.784C410.055 268.141 412.81 280.912 415.878 293.26C419.349 307.242 422.757 318.498 428.12 327.936C433.171 336.97 439.6 342.552 447.131 344.544C454.956 346.609 464.113 344.709 473.627 339.035C500.987 322.739 519.622 287.577 537.632 253.562C541.379 246.484 545.264 239.167 549.103 232.263C627.875 90.7046 770.706 -31.9414 891.459 7.55434Z" fill="url(#paint16_radial_399_771)"/>
<path d="M891.275 11.5093L890.798 13.0792C847.816 -0.0309558 800.095 6.65267 748.967 32.7812C704.121 55.7331 658.265 93.3008 616.349 141.399C594.132 166.841 574.113 194.12 556.505 222.942C552.537 229.442 548.524 236.365 544.648 243.048C541.241 248.915 537.724 254.983 534.16 260.887C519.585 285.197 502.971 309.425 480.653 321.902C461.367 332.735 444.78 328.769 433.814 310.711C427.909 300.988 424.079 289.154 420.81 277.807C417.54 266.459 414.473 254.57 411.534 243.177C405.821 221.015 399.907 198.09 391.926 177.14C373.383 128.482 334.406 100.269 290.184 103.51C270.558 104.951 251.06 112.415 232.241 125.7C225.509 130.465 219.016 136.496 212.734 142.335C200.703 153.508 188.268 165.067 173.555 168.299C167.47 169.596 161.187 169.662 155.077 168.491C141.778 166.104 128.764 158.852 116.173 151.837C111.103 149.01 105.859 146.09 100.762 143.575C94.8287 140.674 88.8774 137.69 82.9536 134.724L80.4372 133.467C64.6313 125.636 45.8131 117.024 26.1223 112.608C12.1769 109.497 -1.92578 107.137 -16.1246 105.539C-44.3433 102.348 -72.7844 101.592 -101.133 103.28L-101.225 101.646C-72.781 99.9552 -44.2445 100.717 -15.9317 103.923C-1.69011 105.532 12.4553 107.901 26.4438 111.02C46.309 115.482 65.2375 124.139 81.1352 132.016L83.6516 133.274C89.5754 136.239 95.5175 139.214 101.45 142.115C106.584 144.631 111.847 147.559 116.935 150.378C129.407 157.328 142.301 164.516 155.334 166.848C161.228 167.983 167.289 167.923 173.16 166.674C187.441 163.534 199.711 152.14 211.577 141.114C217.896 135.239 224.435 129.179 231.259 124.341C250.325 110.873 270.098 103.308 290.037 101.848C335.039 98.5522 374.623 127.169 393.432 176.534C401.45 197.576 407.373 220.537 413.095 242.745C416.034 254.139 419.074 265.909 422.362 277.329C425.595 288.567 429.388 300.281 435.22 309.839C442.567 321.994 456.343 333.709 479.854 320.451C501.896 308.149 518.299 284.142 532.764 260.024C536.318 254.12 539.836 248.089 543.234 242.204C547.119 235.511 551.132 228.589 555.109 222.07C572.767 193.171 592.841 165.818 615.118 140.306C657.163 92.0706 703.185 54.3743 748.187 31.3214C799.737 4.93584 847.871 -1.72938 891.275 11.5093Z" fill="url(#paint17_radial_399_771)"/>
<path d="M891.11 15.4589L890.66 17.038C813.302 -4.74793 715.39 39.586 622.034 138.665C600.194 161.72 580.275 186.52 562.475 212.818C558.351 218.932 554.209 225.451 550.131 231.758C546.834 236.899 543.427 242.224 539.983 247.42C525.371 269.647 508.821 291.8 486.835 303.34C462.892 315.909 448.665 304.451 440.914 292.617C434.852 283.326 430.646 271.869 427.321 261.889C423.841 251.469 420.553 240.773 417.384 230.427C411.029 209.697 404.453 188.259 396.095 168.732C376.643 123.241 338.401 97.9023 296.301 102.63C277.014 104.779 257.305 113.023 237.651 127.143C230.928 131.981 224.398 137.958 218.089 143.733C205.543 155.19 192.548 167.125 177.293 170.798C171.107 172.243 164.703 172.505 158.42 171.569C143.293 169.485 128.36 161.525 113.923 153.832C110.074 151.784 106.089 149.654 102.222 147.717C96.1789 144.697 89.6398 141.245 81.6588 136.838C65.9172 128.153 47.2 118.476 27.7389 112.821C13.9144 108.789 -0.129663 105.553 -14.3244 103.126C-43.7136 98.0584 -73.7089 96.5436 -100.94 98.7469L-101.068 97.1036C-73.7089 94.8911 -43.6125 96.415 -14.0397 101.51C0.215811 103.951 14.3209 107.2 28.2073 111.242C47.8153 116.98 66.6336 126.675 82.4578 135.397C90.4205 139.794 96.932 143.237 102.966 146.248C106.842 148.195 110.837 150.325 114.694 152.381C129.012 160.01 143.808 167.897 158.64 169.944C164.722 170.847 170.919 170.595 176.907 169.2C191.74 165.629 204.588 153.878 217.014 142.521C223.361 136.709 229.927 130.705 236.723 125.812C256.616 111.517 276.61 103.172 296.163 101.024C339.007 96.2498 377.902 121.965 397.648 168.154C406.033 187.755 412.627 209.238 418.991 230.014C422.16 240.342 425.42 251.028 428.919 261.439C432.207 271.318 436.368 282.656 442.328 291.782C455.627 312.126 473.462 308.509 486.072 301.899C507.728 290.533 524.122 268.564 538.605 246.521C542.049 241.334 545.457 236.018 548.708 230.913C552.758 224.597 556.974 218.06 561.079 211.946C578.914 185.571 598.88 160.699 620.776 137.582C663.023 92.7519 708.135 57.6079 751.254 35.9596C801.978 10.483 849.01 3.60656 891.11 15.4589Z" fill="url(#paint18_radial_399_771)"/>
<path d="M890.936 19.4146L890.523 21.0029C790.994 -4.62064 683.145 82.0183 627.719 135.909C606.277 156.616 586.458 178.939 568.436 202.681C563.963 208.63 559.399 215.011 554.981 221.18C551.95 225.413 548.901 229.691 545.797 233.923C530.992 254.185 514.351 274.319 493.025 284.757C480.213 291.064 462.01 294.333 448.096 274.539C441.888 265.707 437.443 255.158 433.916 245.996C430.389 236.834 426.872 227.249 423.547 218.087C416.2 197.76 409.165 178.609 400.367 160.349C379.978 118.172 342.507 95.6977 302.51 101.684C283.361 104.557 263.936 113.334 243.134 128.528C236.458 133.421 229.928 139.306 223.618 144.998C210.457 156.86 196.856 169.125 181.031 173.229C174.736 174.831 168.204 175.294 161.745 174.597C144.212 172.871 126.781 163.801 109.919 155.024C107.825 153.941 105.74 152.848 103.664 151.792C97.0795 148.432 90.274 144.622 82.8717 140.133C66.1841 130.034 48.1465 119.751 29.3466 112.958C15.6397 107.998 1.64133 103.883 -12.5697 100.637C-43.4375 93.5769 -73.9471 91.3276 -100.792 94.1278L-100.967 92.4936C-73.938 89.6751 -43.2446 91.9427 -12.2023 99.0303C2.0743 102.294 16.1371 106.43 29.9069 111.415C48.8445 118.255 66.9647 128.583 83.7258 138.728C91.0731 143.19 97.8601 146.991 104.418 150.323C106.493 151.388 108.578 152.481 110.681 153.573C127.396 162.267 144.662 171.265 161.901 172.963C168.166 173.642 174.502 173.194 180.609 171.641C196.038 167.629 209.493 155.501 222.507 143.777C228.853 138.058 235.411 132.145 242.152 127.197C263.183 111.847 282.847 102.969 302.253 100.059C342.966 93.9625 381.126 116.786 401.836 159.633C410.671 177.921 418 198.054 425.081 217.527C428.406 226.707 431.85 236.145 435.441 245.409C438.931 254.47 443.321 264.908 449.428 273.593C462.681 292.442 480.057 289.283 492.29 283.325C513.294 273.079 529.78 253.084 544.465 232.996C547.56 228.755 550.609 224.495 553.649 220.262C558.067 214.084 562.632 207.703 567.123 201.726C585.197 177.918 605.071 155.531 626.571 134.762C682.245 80.5953 790.627 -6.39256 890.936 19.4146Z" fill="url(#paint19_radial_399_771)"/>
<path d="M890.762 23.3619L890.394 24.9685C819.824 8.59002 733.392 45.0193 633.386 133.219C610.426 153.499 591.139 172.917 574.378 192.6C569.51 198.329 564.753 204.223 559.729 210.466C557.038 213.799 554.329 217.159 551.592 220.501C536.677 238.734 519.99 256.93 499.206 266.276C481.407 274.217 466.235 270.866 455.214 256.453C448.785 248.043 443.954 237.953 440.446 230.104C436.938 222.254 433.411 214.129 430.059 206.344C421.793 187.165 413.977 169.052 404.564 151.957C383.257 113.251 346.502 93.6407 308.645 100.774C289.946 104.3 270.292 113.875 248.572 129.941C241.977 134.862 235.493 140.628 229.221 146.201C215.444 158.457 201.2 171.117 184.769 175.698C178.37 177.441 171.723 178.099 165.106 177.645C144.249 176.369 122.575 165.012 105.152 155.886C97.9516 152.105 90.9502 147.956 84.1759 143.456C64.6137 130.603 48.0915 120.504 31.0458 113.159C17.4662 107.255 3.50927 102.259 -10.7328 98.2036C-32.9308 91.8872 -66.5446 85.2679 -100.563 89.5737L-100.765 87.9395C-66.4804 83.597 -32.6369 90.2714 -10.2827 96.6245C4.02708 100.699 18.0513 105.717 31.6978 111.644C48.8538 119.044 65.4495 129.179 85.0759 142.124C91.8247 146.59 98.7951 150.711 105.961 154.473C123.245 163.525 144.754 174.79 165.253 176.047C171.689 176.49 178.152 175.847 184.375 174.147C200.438 169.676 214.535 157.135 228.174 145.007C234.465 139.407 240.976 133.623 247.635 128.656C269.548 112.406 289.432 102.766 308.406 99.1951C346.979 91.9239 384.405 111.846 406.07 151.204C415.52 168.372 423.345 186.513 431.629 205.729C434.982 213.514 438.453 221.547 442.017 229.461C445.479 237.237 450.282 247.217 456.583 255.498C467.181 269.397 481.306 272.519 498.563 264.779C519.035 255.599 535.566 237.595 550.38 219.5C553.105 216.158 555.811 212.816 558.499 209.475C563.32 203.498 568.298 197.319 573.193 191.581C589.963 171.833 609.324 152.352 632.367 132.026C732.721 43.4035 819.677 6.86403 890.762 23.3619Z" fill="url(#paint20_radial_399_771)"/>
<path d="M890.587 27.3201L890.256 28.936C803.209 11.0518 705.215 78.3193 639.071 130.494C615.642 148.984 596.429 165.987 580.292 182.503C574.855 188.085 569.528 193.869 563.889 199.992C561.731 202.333 559.554 204.693 557.369 207.043C543.381 222.21 526.593 239.056 505.377 247.695C487.928 254.81 473.444 251.671 462.396 238.377C455.875 230.537 450.769 221.347 447.04 214.213C444.009 208.402 441.043 202.599 438.104 196.852C428.47 178.023 419.377 160.23 408.825 143.604C386.608 108.506 350.588 91.7508 314.834 99.885C296.301 104.108 276.968 114.115 254.026 131.384C247.552 136.287 241.169 141.905 234.96 147.34C220.532 160.019 205.571 173.129 188.516 178.188C182.009 180.085 175.242 180.944 168.467 180.731C147.132 180.18 125.238 169.953 106.64 160.019C99.2705 156.086 92.1681 151.673 85.3785 146.808C67.8552 134.313 50.6442 122.35 32.6433 113.307C19.195 106.472 5.28368 100.588 -8.98831 95.6986C-31.719 87.9776 -66.0309 79.8434 -100.425 84.9479L-100.673 83.3229C-65.9482 78.1725 -31.3608 86.3342 -8.45563 94.147C5.8884 99.0486 19.8704 104.951 33.3872 111.811C51.4891 120.909 68.7552 132.927 86.3336 145.449C93.0789 150.273 100.135 154.646 107.457 158.541C125.844 168.383 147.546 178.518 168.513 179.06C175.117 179.268 181.713 178.435 188.057 176.59C204.79 171.624 219.577 158.642 233.876 146.083C240.085 140.629 246.505 134.983 253.035 130.044C276.178 112.6 295.695 102.501 314.476 98.26C350.928 89.9973 387.609 106.991 410.212 142.695C420.801 159.422 429.911 177.233 439.601 196.099C442.54 201.847 445.518 207.631 448.537 213.451C452.211 220.511 457.28 229.609 463.691 237.321C474.243 250 488.065 252.974 504.799 246.162C525.693 237.652 542.316 220.924 556.23 205.914C558.416 203.563 560.586 201.216 562.741 198.872C568.39 192.739 573.762 186.937 579.181 181.346C595.317 164.821 614.576 147.726 638.069 129.199C685.009 92.1731 723.941 66.9168 760.595 49.7212C808.912 27.0631 852.647 19.5165 890.587 27.3201Z" fill="url(#paint21_radial_399_771)"/>
<path d="M890.422 31.2488L890.128 32.8646C810.493 18.7262 721.71 74.3984 644.738 127.766C619.793 145.054 601.765 158.816 586.281 172.394C579.925 177.967 573.671 183.815 567.049 190.012L563.219 193.592C548.984 206.868 532.085 221.658 511.559 229.14C494.669 235.301 480.535 232.326 469.55 220.299C464.306 214.561 459.393 207.786 453.616 198.32L447.986 189.085C436.368 169.961 425.384 151.902 413.087 135.193C389.97 103.841 354.694 89.9506 321.025 98.9386C297.541 105.209 275.802 120.311 259.491 132.77C253.191 137.608 246.928 143.043 240.875 148.304C225.74 161.451 210.081 175.047 192.282 180.629C185.659 182.672 178.77 183.724 171.838 183.751C153.58 183.897 132.741 177.471 108.128 164.085C100.6 160.01 93.4131 155.334 86.6371 150.103C70.6108 137.81 52.4539 123.874 34.2877 113.444C20.9757 105.694 7.10627 98.9429 -7.20618 93.2465C-39.9476 80.32 -73.0012 75.748 -100.26 80.3935L-100.535 78.7776C-72.9828 74.1046 -39.6169 78.7042 -6.60002 91.7409C7.78291 97.4709 21.7226 104.256 35.1051 112.04C53.3539 122.524 71.5568 136.497 87.6198 148.827C94.3294 154.001 101.442 158.631 108.89 162.672C133.256 175.919 153.837 182.282 171.801 182.135C178.572 182.102 185.301 181.066 191.768 179.059C209.218 173.551 224.766 160.101 239.782 147.064C245.853 141.794 252.126 136.341 258.472 131.457C274.912 118.907 296.825 103.694 320.575 97.3412C354.914 88.1604 390.87 102.299 414.391 134.211C426.743 150.984 437.764 169.08 449.391 188.24L455.021 197.421C460.743 206.785 465.592 213.487 470.763 219.142C481.251 230.628 494.788 233.455 510.998 227.552C531.203 220.207 547.983 205.518 562.09 192.344L565.919 188.763C572.55 182.566 578.777 176.709 585.206 171.109C600.746 157.494 618.82 143.695 643.819 126.371C721.039 72.9019 810.162 17.0002 890.422 31.2488Z" fill="url(#paint22_radial_399_771)"/>
<path d="M890.238 35.2333L889.999 36.8582C815.975 25.8413 736.385 73.5813 666.173 115.62C660.837 118.815 655.574 121.973 650.404 125.049C630.97 136.598 610.48 148.983 592.213 162.286C584.866 167.666 577.638 173.303 569.005 180.133C553.897 192.068 537.485 204.27 517.73 210.586C501.419 215.801 487.615 212.991 476.704 202.213C470.648 196.097 465.118 189.482 460.173 182.438C446.057 162.846 432.161 143.879 417.302 126.821C392.964 98.9203 359.258 88.1513 327.15 98.0206C304.511 104.98 283.847 119.513 264.9 134.184C258.83 138.912 252.777 144.117 246.927 149.148C231.02 162.818 214.571 176.966 195.983 183.117C189.239 185.297 182.227 186.533 175.144 186.789C150.576 187.79 125.917 177.223 109.56 168.18C101.883 163.943 94.6144 159.005 87.849 153.427L84.7907 150.92C68.1766 137.241 52.4809 124.296 35.922 113.6C22.7583 104.931 8.94051 97.2969 -5.40655 90.7678C-24.6932 82.1103 -62.6052 68.6513 -100.086 75.7664L-100.389 74.1506C-62.4766 66.9529 -24.1605 80.5312 -4.73611 89.2621C9.69441 95.8231 23.5922 103.497 36.8312 112.214C53.4728 122.992 69.894 136.543 85.856 149.635L88.9143 152.15C95.5986 157.671 102.784 162.555 110.378 166.739C126.56 175.681 150.916 186.138 175.098 185.1C182.033 184.846 188.899 183.625 195.496 181.474C213.772 175.451 230.093 161.414 245.88 147.845C251.749 142.795 257.819 137.581 263.918 132.834C282.993 118.062 303.804 103.456 326.691 96.3956C359.442 86.2967 393.79 97.3136 418.532 125.682C433.438 142.768 447.361 161.799 461.496 181.419C466.381 188.391 471.847 194.939 477.834 200.992C488.267 211.302 501.511 213.983 517.206 208.97C536.695 202.727 552.96 190.609 567.958 178.793C576.609 171.963 583.81 166.298 591.212 160.909C609.534 147.551 630.07 135.148 649.531 123.58C654.711 120.52 659.967 117.38 665.3 114.16C735.779 71.9931 815.635 24.1337 890.238 35.2333Z" fill="url(#paint23_radial_399_771)"/>
<path d="M890.063 39.1809L889.871 40.8151C825.977 33.2685 756.517 69.8447 695.241 102.115C681.584 109.304 668.69 116.097 656.052 122.313L647.832 126.352C630.272 134.982 613.686 143.126 598.128 152.178C591.442 156.071 584.242 160.542 574.782 166.674C558.71 177.104 542.729 186.872 523.902 192.022C508.151 196.319 494.687 193.666 483.868 184.136C477.771 178.678 472.062 172.801 466.786 166.546C450.172 147.202 435.808 131.916 421.582 118.439C396.417 94.5685 363.419 86.6088 333.332 97.0932C310.279 105.136 288.743 121.174 270.365 135.588C264.607 140.133 258.839 145.044 253.264 149.8C236.513 164.067 219.201 178.83 199.739 185.55C192.876 187.889 185.739 189.33 178.506 189.837C157.814 191.325 133.853 185.091 111.048 172.284C103.207 167.891 95.8524 162.681 89.1075 156.741L81.9623 150.461C66.8636 137.167 52.5731 124.617 37.5755 113.738C24.5499 104.163 10.7718 95.6551 -3.62449 88.2981C-36.8985 71.5615 -71.9911 65.3461 -99.9291 71.1759L-100.26 69.5693C-71.9727 63.6385 -36.4853 69.9274 -2.90813 86.8292C11.5716 94.2269 25.4269 102.787 38.5214 112.425C53.6201 123.341 68.5719 136.506 83.0277 149.24L90.1729 155.52C96.8308 161.379 104.09 166.518 111.829 170.852C134.367 183.512 157.998 189.672 178.368 188.203C185.461 187.718 192.461 186.308 199.188 184.008C218.346 177.388 235.548 162.727 252.172 148.561C257.765 143.796 263.541 138.866 269.327 134.303C287.815 119.816 309.48 103.676 332.771 95.5509C363.455 84.8645 397.06 92.9711 422.702 117.254C436.965 130.777 451.357 146.1 468.007 165.481C473.236 171.683 478.892 177.511 484.934 182.924C495.312 192.105 508.271 194.611 523.452 190.462C542.05 185.385 557.911 175.681 573.864 165.325C583.351 159.174 590.57 154.693 597.283 150.782C612.896 141.703 629.501 133.541 647.089 124.911L655.308 120.871C667.918 114.647 680.813 107.862 694.46 100.674C755.966 68.2748 825.664 31.57 890.063 39.1809Z" fill="url(#paint24_radial_399_771)"/>
<path d="M889.889 43.1396L889.742 44.7829C834.206 39.9998 776.116 67.3218 719.928 93.7349C699.511 103.329 680.225 112.39 661.7 119.597C655.023 122.195 648.402 124.683 642 127.079C628.702 132.074 616.147 136.829 603.997 142.081C596.649 145.303 588.935 148.957 580.504 153.235C565.763 160.727 549.039 169.219 529.991 173.433C514.8 176.83 501.667 174.351 490.958 166.024C484.801 161.211 478.905 156.072 473.297 150.628C458.282 136.196 442.43 122.658 425.825 110.086C399.512 90.0901 368.029 85.0223 339.494 96.1861C317.186 104.908 296.641 120.469 275.811 137.013C270.457 141.291 265.075 145.836 259.877 150.243C242.197 165.198 223.912 180.658 203.477 188.031C196.49 190.518 189.228 192.151 181.849 192.896C159.752 195.137 135.129 189.279 112.518 176.371C104.514 171.82 97.0723 166.345 90.3472 160.057C86.6736 156.66 83.0459 153.257 79.464 149.848C66.3767 137.527 52.8301 124.784 39.2193 113.896C26.3466 103.396 12.6105 94.0018 -1.84293 85.8119C-35.5303 67.0464 -71.2289 60.0414 -99.7548 66.5322L-100.131 64.9348C-71.2014 58.3063 -35.0894 65.3847 -1.03473 84.3338C13.5067 92.576 27.3313 102.022 40.2938 112.574C53.9781 123.508 67.5339 136.269 80.6304 148.608C84.1755 152.069 87.8491 155.485 91.4677 158.863C98.1001 165.067 105.44 170.468 113.335 174.957C135.652 187.673 159.926 193.456 181.683 191.253C188.931 190.52 196.064 188.914 202.926 186.47C223.076 179.208 241.242 163.839 258.811 148.976C264.028 144.569 269.41 140.006 274.783 135.719C295.722 119.101 316.378 103.448 338.897 94.6529C368.02 83.2688 400.082 88.4192 426.853 108.764C443.521 121.394 459.43 134.992 474.5 149.49C480.064 154.891 485.914 159.991 492.024 164.766C502.475 172.882 514.8 175.214 529.679 171.872C548.479 167.668 565.102 159.221 579.76 151.767C588.218 147.47 595.924 143.816 603.335 140.575C615.486 135.269 628.068 130.541 641.385 125.546C647.814 123.141 654.399 120.662 661.067 118.073C679.582 110.875 698.823 101.832 719.193 92.2476C775.611 65.7427 833.902 38.3289 889.889 43.1396Z" fill="url(#paint25_radial_399_771)"/>
<path d="M889.705 47.0961L889.623 48.6936C841.213 46.1689 790.434 67.7896 741.363 88.6942C715.345 99.7754 690.777 110.241 667.33 116.824C657.852 119.496 648.549 121.828 639.548 124.086C629.244 126.666 619.499 129.108 609.92 131.926C601.884 134.277 594.16 136.829 586.299 139.73L582.873 141.034C568.344 146.414 553.319 151.977 536.218 154.924C521.578 157.449 508.785 155.117 498.196 147.993C491.978 143.806 485.843 139.372 479.974 134.791C461.56 120.451 443.669 109.58 430.141 101.74C403.158 86.041 372.364 83.6907 345.647 95.3136C322.375 105.412 300.526 122.984 281.248 138.463C276.427 142.365 271.559 146.45 266.848 150.398C248.121 166.152 228.752 182.439 207.206 190.518C200.088 193.163 192.694 194.992 185.164 195.972C162.094 198.964 136.139 193.337 113.96 180.52C105.793 175.81 98.2677 170.067 91.5688 163.435C86.7839 158.707 82.0357 153.933 77.3151 149.186C65.4584 137.251 53.2068 124.922 40.845 114.097C26.3892 101.4 12.9987 91.3567 -0.0702717 83.3786C-33.6749 62.8963 -70.889 54.9182 -99.6261 62.0241L-100.021 60.4267C-70.4298 53.082 -33.6841 60.9591 0.783854 81.9831C13.9631 90.0071 27.427 100.106 41.9287 112.83C54.3272 123.701 66.6064 136.049 78.4815 148.002C83.2021 152.749 87.9411 157.513 92.726 162.232C99.3218 168.765 106.73 174.424 114.768 179.07C136.635 191.703 162.213 197.257 184.935 194.31C192.335 193.348 199.603 191.553 206.6 188.957C227.879 180.97 247.129 164.775 265.755 149.113C270.466 145.156 275.343 141.061 280.174 137.178C299.534 121.571 321.502 103.98 344.959 93.7896C372.162 81.9739 403.498 84.3609 430.94 100.317C444.514 108.213 462.469 119.128 480.957 133.524C486.798 138.114 492.896 142.494 499.086 146.652C509.455 153.63 521.505 155.833 535.915 153.327C552.859 150.407 567.811 144.871 582.276 139.556L585.683 138.298C593.582 135.388 601.296 132.789 609.415 130.458C619.022 127.63 628.775 125.188 639.098 122.599C648.089 120.34 657.384 118.008 666.843 115.355C690.226 108.736 714.748 98.2698 740.711 87.2528C789.975 66.2472 840.947 44.5531 889.705 47.0961Z" fill="url(#paint26_radial_399_771)"/>
<path d="M889.521 51.0523L889.521 52.6957C847.348 52.0071 803.098 69.3221 760.3 86.0586C729.561 98.0854 700.521 109.451 672.987 114.133C661.534 116.089 650.385 117.429 639.594 118.724C631.328 119.715 623.595 120.661 615.825 121.836C607.293 123.121 599.514 124.59 592.066 126.298C589.09 126.986 586.096 127.703 583.065 128.419C570.254 131.476 557.01 134.634 542.426 136.351C528.126 138.04 516.021 135.938 505.423 129.924C500.151 126.922 493.245 122.965 486.632 118.907C468.668 107.89 450.952 100.124 434.494 93.3298C418.33 86.6645 386.103 77.9336 351.837 94.3489C329.483 105.054 309.526 121.294 288.393 138.481L286.712 139.84C282.58 143.218 278.447 146.67 274.351 150.113C254.421 166.813 233.812 184.082 210.98 192.96C203.743 195.76 196.228 197.779 188.562 198.982C164.27 202.801 137.636 197.55 115.493 184.587C107.156 179.719 99.5421 173.708 92.8724 166.73C87.0497 160.662 81.2361 154.419 75.6063 148.369C64.8609 136.837 53.7573 124.912 42.5435 114.216C27.8489 100.169 14.8993 89.5748 1.76599 80.8715C-32.2152 58.3694 -70.0263 49.5926 -99.4154 57.3963L-99.8379 55.808C-70.0079 47.885 -31.6826 56.7261 2.6752 79.5036C15.8911 88.2528 28.9142 98.9117 43.6823 113.032C54.9145 123.755 66.0456 135.699 76.8002 147.248C82.4209 153.28 88.2344 159.523 94.048 165.61C100.619 172.47 108.115 178.381 116.319 183.173C138.141 195.943 164.38 201.121 188.305 197.366C195.841 196.169 203.229 194.178 210.346 191.426C232.921 182.64 253.429 165.463 273.258 148.855C277.381 145.403 281.523 141.951 285.638 138.573L287.319 137.205C307.597 120.679 328.564 103.658 351.093 92.8615C385.919 76.1801 418.661 85.0395 435.073 91.8149C451.485 98.5904 469.384 106.458 487.422 117.521C494.016 121.551 500.895 125.499 506.158 128.538C516.444 134.386 528.199 136.433 542.159 134.79C556.652 133.073 569.849 129.934 582.569 126.885C585.631 126.157 588.634 125.45 591.579 124.765C599.083 123.039 606.889 121.57 615.458 120.275C623.246 119.091 631.071 118.155 639.281 117.163C650.045 115.859 661.185 114.51 672.592 112.573C699.961 107.909 728.918 96.5798 759.584 84.5897C802.621 67.7338 847.026 50.3546 889.521 51.0523Z" fill="url(#paint27_radial_399_771)"/>
<path d="M889.375 56.6609C852.749 57.4413 814.35 71.442 777.219 84.9928C742.466 97.6714 709.614 109.652 678.572 111.388C665.815 112.104 653.426 111.948 641.431 111.801C634.617 111.718 628.179 111.635 621.667 111.7C612.63 111.791 605.035 112.159 597.788 112.829C591.975 113.371 586.171 114.05 580.026 114.757C569.988 115.923 559.601 117.135 548.571 117.805C534.795 118.64 523.039 116.694 512.606 111.837C508.629 110.001 504.753 108.229 500.96 106.522C498.352 105.337 495.79 104.181 493.255 103.015C474.538 94.4307 456.032 89.2435 438.811 84.9377C418.827 79.9342 388.583 77.3452 357.991 93.4208C336.445 104.75 316.24 121.413 296.687 137.488L292.15 141.216C288.917 143.887 285.721 146.587 282.47 149.277C261.135 167.124 239.066 185.577 214.701 195.392C207.329 198.352 199.681 200.569 191.869 202.011C166.099 206.616 139.531 201.886 116.936 188.671C108.434 183.633 100.736 177.351 94.0947 170.034C87.3628 162.69 80.6767 154.996 74.2019 147.597C64.4484 136.433 54.3642 124.892 44.1882 114.362C29.4936 99.1312 16.5716 87.7379 3.54853 78.3919C-30.7909 53.8792 -69.1989 44.3036 -99.2677 52.8142L-99.7085 51.2351C-69.1897 42.5868 -30.2307 52.2542 4.50367 77.079C17.6094 86.4434 30.5957 97.9377 45.3638 113.242C55.5765 123.8 65.6699 135.359 75.4418 146.532C81.8707 153.931 88.5934 161.57 95.307 168.942C101.837 176.148 109.409 182.337 117.771 187.303C140.026 200.32 166.194 204.978 191.575 200.441C199.276 199.021 206.817 196.838 214.085 193.923C238.203 184.219 260.162 165.848 281.405 148.083C284.638 145.384 287.87 142.694 291.103 140.013L295.631 136.277C315.248 120.118 335.527 103.4 357.22 91.9978C381.438 79.264 410.552 76.1976 439.188 83.377C456.482 87.7103 475.089 92.9066 493.925 101.555C496.451 102.712 499.013 103.868 501.622 105.053C505.411 106.76 509.296 108.532 513.276 110.368C523.452 115.106 534.96 117.015 548.461 116.189C559.482 115.519 569.795 114.353 579.815 113.15C585.978 112.443 591.754 111.764 597.614 111.222C604.961 110.543 612.566 110.176 621.649 110.084C628.179 110.02 634.626 110.084 641.459 110.185C653.398 110.332 665.778 110.488 678.48 109.781C709.302 108.055 742.016 96.1107 776.658 83.478C813.918 69.8813 852.446 55.8255 889.338 55.0176L889.375 56.6609Z" fill="url(#paint28_radial_399_771)"/>
<path d="M889.255 60.6287C857.653 62.5567 824.59 73.9959 792.62 85.0587C754.423 98.279 718.339 110.765 684.192 108.653C670.627 107.809 657.448 105.899 644.7 103.98C639.052 103.154 633.211 102.291 627.535 101.557C618.241 100.354 610.6 99.6562 603.482 99.3532C592.911 98.8942 582.12 99.0135 570.686 99.1329C565.469 99.188 560.142 99.2522 554.705 99.2522C541.407 99.2522 529.973 97.462 519.806 93.7438C512.982 91.2742 506.351 89.1534 499.931 87.1244C479.487 80.6153 459.751 78.1181 443.146 76.5298C423.125 74.611 393.175 75.8321 364.162 92.4952C343.37 104.43 323.752 120.836 304.76 136.701L297.605 142.668L291.498 147.773C268.473 167.052 244.659 186.993 218.447 197.881C210.949 200.996 203.176 203.402 195.23 205.07C168.669 210.578 140.676 206.126 118.423 192.786C109.753 187.579 101.969 181.024 95.3618 173.369C87.8308 164.693 80.3917 155.631 73.1913 146.873C64.3103 136.058 55.1353 124.839 45.8594 114.529C31.1648 98.1138 18.307 85.8483 5.35742 75.9698C-21.4143 55.4508 -62.9081 37.4106 -99.0844 48.2531L-99.5527 46.6832C-62.8163 35.6662 -20.7346 53.8992 6.35849 74.6661C19.3816 84.6457 32.322 96.9754 47.0809 113.473C56.3752 123.848 65.5685 135.039 74.4679 145.863C81.6499 154.612 89.089 163.665 96.6016 172.331C103.095 179.854 110.746 186.294 119.268 191.409C141.163 204.537 168.734 208.944 194.89 203.5C202.748 201.856 210.435 199.48 217.85 196.403C243.823 185.607 267.536 165.749 290.469 146.552L296.586 141.438C298.974 139.455 301.355 137.466 303.731 135.47C322.77 119.569 342.46 103.117 363.373 91.1089C392.762 74.2255 423.069 72.9952 443.32 74.9324C460.017 76.5206 479.855 79.0362 500.418 85.5821C506.847 87.6385 513.533 89.7501 520.384 92.2381C530.413 95.9104 541.655 97.6364 554.751 97.6272C560.188 97.6272 565.506 97.563 570.722 97.5079C582.175 97.3885 592.994 97.2692 603.611 97.7282C610.774 98.0312 618.461 98.7381 627.802 99.9408C633.487 100.675 639.337 101.538 644.994 102.374C657.696 104.256 670.838 106.193 684.339 107.028C718.164 109.122 754.138 96.6908 792.124 83.5256C824.204 72.426 857.377 60.95 889.2 59.0037L889.255 60.6287Z" fill="url(#paint29_radial_399_771)"/>
<path d="M889.136 64.5685C862.134 67.3228 833.976 76.779 806.745 85.8955C767.419 99.0515 726.742 112.657 689.804 105.873C675.835 103.311 662.251 99.4463 649.054 95.774C643.92 94.3142 638.611 92.8086 633.441 91.4223C623.862 88.8609 616.395 87.1532 609.24 85.9138C593.187 83.0494 576.517 81.7458 560.886 80.7634C549.455 80.1796 538.107 78.5011 526.997 75.7507C519.897 73.9146 512.963 72.5191 506.534 71.2889C488.782 67.9746 470.009 66.9923 447.471 68.1949C418.725 69.7281 392.771 77.6236 370.325 91.661C350.258 104.119 331.155 120.305 312.695 135.912C309.474 138.642 306.253 141.363 303.033 144.074L301.784 145.093C276.674 166.209 250.702 188.096 222.167 200.315C214.535 203.588 206.631 206.187 198.545 208.082C170.91 214.509 142.237 210.405 119.883 196.845C111.034 191.475 103.159 184.646 96.5922 176.647C88.2347 166.549 80.0608 155.991 72.1349 145.745C64.209 135.499 55.8698 124.675 47.5031 114.65C32.7442 96.9859 19.8865 83.8849 7.14809 73.4831C-19.8257 51.3574 -61.8614 31.8942 -98.9377 43.6456L-99.4336 42.0757C-61.7328 30.1407 -19.1185 49.8151 8.18588 72.207C21.0436 82.6822 33.9014 95.8566 48.7705 113.658C57.1464 123.711 65.4305 134.434 73.4391 144.799C81.4476 155.164 89.5113 165.621 97.8596 175.665C104.306 183.52 112.039 190.225 120.728 195.496C142.77 208.835 170.956 212.856 198.178 206.512C206.17 204.642 213.982 202.074 221.524 198.837C249.829 186.719 275.71 164.942 300.728 143.872L301.977 142.825C305.203 140.114 308.421 137.397 311.629 134.673C330.135 118.992 349.284 102.779 369.434 90.1737C392.119 75.9894 418.339 68.0113 447.361 66.4598C470.037 65.2571 488.929 66.2486 506.819 69.5812C513.248 70.8207 520.246 72.2161 527.392 74.0707C538.4 76.7934 549.643 78.4536 560.969 79.0283C576.646 80.0198 593.38 81.3326 609.516 84.2062C616.716 85.4915 624.211 87.2083 633.845 89.7789C639.052 91.1744 644.37 92.6801 649.458 94.1306C662.591 97.858 676.156 101.705 690.052 104.229C726.577 110.931 767.042 97.399 806.185 84.3072C833.498 75.1723 861.739 65.7253 888.924 62.9068L889.136 64.5685Z" fill="url(#paint30_radial_399_771)"/>
<path d="M889.016 68.5252C866.267 71.8946 842.646 79.7074 819.823 87.254C778.1 101.025 734.953 115.31 695.434 103.091C681.584 98.8034 668.001 93.1114 654.867 87.6029C649.77 85.473 644.508 83.2696 639.337 81.1764C629.997 77.3939 622.264 74.5662 614.981 72.2894C599.324 67.5048 583.28 64.092 567.031 62.0895L563.219 61.5938C553.649 60.3452 543.758 59.0599 534.207 57.5634C527.842 56.5627 520.963 55.8099 513.175 55.2682C493.649 53.9462 473.573 55.3784 451.798 59.6566C424.855 64.7766 399.233 75.315 376.488 90.6326C357.247 103.697 338.713 119.598 320.786 134.976C316.69 138.495 312.594 141.999 308.498 145.488C280.459 169.303 254.89 190.06 225.923 202.803C218.155 206.254 210.117 209.06 201.888 211.194C173.216 218.539 143.863 214.812 121.353 201.022C112.34 195.48 104.383 188.384 97.8508 180.062C88.9606 168.853 80.3183 156.973 71.9608 145.497C64.5584 135.334 56.908 124.822 49.1658 114.888C34.4712 96.0217 21.6869 82.0853 8.94858 71.0316C-32.6647 34.8227 -75.0861 31.1871 -98.7719 39.0734L-99.2954 37.5126C-82.6814 32.0042 -63.1192 32.5917 -42.7029 39.2662C-24.4724 45.197 -5.74601 56.0394 10.0231 69.7647C22.8809 80.8826 35.6927 94.8925 50.4332 113.832C58.1938 123.784 65.8534 134.306 73.2558 144.478C81.6133 155.954 90.2464 167.806 99.1091 178.998C105.52 187.167 113.331 194.133 122.18 199.572C144.313 213.132 173.206 216.767 201.448 209.56C209.582 207.457 217.531 204.693 225.216 201.298C253.972 188.637 279.402 167.962 307.386 144.221C311.495 140.744 315.588 137.246 319.666 133.727C337.63 118.313 356.2 102.384 375.514 89.2646C398.444 73.8288 424.272 63.2093 451.43 58.05C473.353 53.7442 493.576 52.3028 513.239 53.6341C521.082 54.1849 528.007 54.9377 534.418 55.9476C543.951 57.4441 553.824 58.7018 563.385 59.9688L567.196 60.4737C583.549 62.4777 599.695 65.9091 615.449 70.7286C622.797 73.0146 630.557 75.8515 639.934 79.6523C645.114 81.7364 650.386 83.949 655.483 86.0789C668.579 91.5874 682.117 97.2519 695.893 101.512C734.907 113.575 777.797 99.391 819.272 85.6841C842.233 78.11 865.882 70.2788 888.768 66.8819L889.016 68.5252Z" fill="url(#paint31_radial_399_771)"/>
<path d="M888.906 72.4824C870.097 76.1548 850.654 82.6731 831.854 88.9619C788.156 103.596 742.961 118.726 701.036 100.309C687.186 94.2317 673.484 86.6117 660.203 79.2487C647.346 72.1152 634.075 64.7431 620.712 58.7847C543.152 24.2099 456.371 35.4931 382.632 89.724C364.383 103.146 346.566 118.625 329.364 133.599C290.974 166.953 251.299 201.436 205.259 214.215C162.452 226.095 122.785 214.564 99.1456 183.359C89.7961 171.02 80.7773 157.882 72.0157 145.167C53.326 117.982 34.0026 89.88 10.7851 68.5347C-15.5182 44.3801 -59.9234 20.9692 -98.5885 34.4557L-99.1304 32.9042C-59.7489 19.1789 -14.71 42.8653 11.8872 67.3229C35.2425 88.7967 54.6209 116.982 73.3657 144.239C82.0906 156.936 91.1186 170.065 100.441 182.367C109.138 193.852 142.375 229.96 204.809 212.664C250.472 199.994 290.028 165.631 328.28 132.396C345.537 117.404 363.382 101.898 381.677 88.4387C455.921 33.8406 543.317 22.5024 621.382 57.3158C634.809 63.3017 648.126 70.7014 661.002 77.844C674.237 85.1886 687.912 92.7903 701.697 98.8404C743.026 117 787.927 101.98 831.331 87.4471C850.186 81.1307 869.675 74.594 888.585 70.9217L888.906 72.4824Z" fill="url(#paint32_radial_399_771)"/>
<defs>
<radialGradient id="paint0_radial_399_771" cx="0" cy="0" r="1" gradientUnits="userSpaceOnUse" gradientTransform="translate(389.12 263.492) scale(495.12 54.3913)">
<stop/>
<stop offset="1" stop-opacity="0"/>
</radialGradient>
<radialGradient id="paint1_radial_399_771" cx="0" cy="0" r="1" gradientUnits="userSpaceOnUse" gradientTransform="translate(389.469 253.711) scale(495.175 56.1985)">
<stop/>
<stop offset="1" stop-opacity="0"/>
</radialGradient>
<radialGradient id="paint2_radial_399_771" cx="0" cy="0" r="1" gradientUnits="userSpaceOnUse" gradientTransform="translate(389.809 247.833) scale(495.221 62.9808)">
<stop/>
<stop offset="1" stop-opacity="0"/>
</radialGradient>
<radialGradient id="paint3_radial_399_771" cx="0" cy="0" r="1" gradientUnits="userSpaceOnUse" gradientTransform="translate(390.176 242.3) scale(495.295 70.0957)">
<stop/>
<stop offset="1" stop-opacity="0"/>
</radialGradient>
<radialGradient id="paint4_radial_399_771" cx="0" cy="0" r="1" gradientUnits="userSpaceOnUse" gradientTransform="translate(390.562 236.915) scale(495.387 77.6333)">
<stop/>
<stop offset="1" stop-opacity="0"/>
</radialGradient>
<radialGradient id="paint5_radial_399_771" cx="0" cy="0" r="1" gradientUnits="userSpaceOnUse" gradientTransform="translate(390.939 231.593) scale(495.469 85.3532)">
<stop/>
<stop offset="1" stop-opacity="0"/>
</radialGradient>
<radialGradient id="paint6_radial_399_771" cx="0" cy="0" r="1" gradientUnits="userSpaceOnUse" gradientTransform="translate(391.315 226.281) scale(495.552 93.222)">
<stop/>
<stop offset="1" stop-opacity="0"/>
</radialGradient>
<radialGradient id="paint7_radial_399_771" cx="0" cy="0" r="1" gradientUnits="userSpaceOnUse" gradientTransform="translate(391.696 221) scale(495.639 101.105)">
<stop/>
<stop offset="1" stop-opacity="0"/>
</radialGradient>
<radialGradient id="paint8_radial_399_771" cx="0" cy="0" r="1" gradientUnits="userSpaceOnUse" gradientTransform="translate(392.064 215.708) scale(495.722 109.07)">
<stop/>
<stop offset="1" stop-opacity="0"/>
</radialGradient>
<radialGradient id="paint9_radial_399_771" cx="0" cy="0" r="1" gradientUnits="userSpaceOnUse" gradientTransform="translate(392.445 210.435) scale(495.809 117.074)">
<stop/>
<stop offset="1" stop-opacity="0"/>
</radialGradient>
<radialGradient id="paint10_radial_399_771" cx="0" cy="0" r="1" gradientUnits="userSpaceOnUse" gradientTransform="translate(392.803 205.21) scale(495.901 125.117)">
<stop/>
<stop offset="1" stop-opacity="0"/>
</radialGradient>
<radialGradient id="paint11_radial_399_771" cx="0" cy="0" r="1" gradientUnits="userSpaceOnUse" gradientTransform="translate(393.184 199.874) scale(495.988 133.114)">
<stop/>
<stop offset="1" stop-opacity="0"/>
</radialGradient>
<radialGradient id="paint12_radial_399_771" cx="0" cy="0" r="1" gradientUnits="userSpaceOnUse" gradientTransform="translate(393.542 194.609) scale(496.08 141.189)">
<stop/>
<stop offset="1" stop-opacity="0"/>
</radialGradient>
<radialGradient id="paint13_radial_399_771" cx="0" cy="0" r="1" gradientUnits="userSpaceOnUse" gradientTransform="translate(393.937 189.366) scale(496.144 149.282)">
<stop/>
<stop offset="1" stop-opacity="0"/>
</radialGradient>
<radialGradient id="paint14_radial_399_771" cx="0" cy="0" r="1" gradientUnits="userSpaceOnUse" gradientTransform="translate(394.304 184.079) scale(496.236 157.306)">
<stop/>
<stop offset="1" stop-opacity="0"/>
</radialGradient>
<radialGradient id="paint15_radial_399_771" cx="0" cy="0" r="1" gradientUnits="userSpaceOnUse" gradientTransform="translate(394.713 178.861) scale(496.277 165.414)">
<stop/>
<stop offset="1" stop-opacity="0"/>
</radialGradient>
<radialGradient id="paint16_radial_399_771" cx="0" cy="0" r="1" gradientUnits="userSpaceOnUse" gradientTransform="translate(395.062 173.528) scale(496.397 173.471)">
<stop/>
<stop offset="1" stop-opacity="0"/>
</radialGradient>
<radialGradient id="paint17_radial_399_771" cx="0" cy="0" r="1" gradientUnits="userSpaceOnUse" gradientTransform="translate(395.025 166.392) scale(496.25 161.493)">
<stop/>
<stop offset="1" stop-opacity="0"/>
</radialGradient>
<radialGradient id="paint18_radial_399_771" cx="0" cy="0" r="1" gradientUnits="userSpaceOnUse" gradientTransform="translate(395.021 159.318) scale(496.089 149.489)">
<stop/>
<stop offset="1" stop-opacity="0"/>
</radialGradient>
<radialGradient id="paint19_radial_399_771" cx="0" cy="0" r="1" gradientUnits="userSpaceOnUse" gradientTransform="translate(394.985 152.178) scale(495.951 137.438)">
<stop/>
<stop offset="1" stop-opacity="0"/>
</radialGradient>
<radialGradient id="paint20_radial_399_771" cx="0" cy="0" r="1" gradientUnits="userSpaceOnUse" gradientTransform="translate(394.998 144.992) scale(495.763 125.483)">
<stop/>
<stop offset="1" stop-opacity="0"/>
</radialGradient>
<radialGradient id="paint21_radial_399_771" cx="0" cy="0" r="1" gradientUnits="userSpaceOnUse" gradientTransform="translate(394.957 137.871) scale(495.63 113.531)">
<stop/>
<stop offset="1" stop-opacity="0"/>
</radialGradient>
<radialGradient id="paint22_radial_399_771" cx="0" cy="0" r="1" gradientUnits="userSpaceOnUse" gradientTransform="translate(394.943 130.627) scale(495.478 101.632)">
<stop/>
<stop offset="1" stop-opacity="0"/>
</radialGradient>
<radialGradient id="paint23_radial_399_771" cx="0" cy="0" r="1" gradientUnits="userSpaceOnUse" gradientTransform="translate(394.924 123.369) scale(495.313 89.7611)">
<stop/>
<stop offset="1" stop-opacity="0"/>
</radialGradient>
<radialGradient id="paint24_radial_399_771" cx="0" cy="0" r="1" gradientUnits="userSpaceOnUse" gradientTransform="translate(394.902 116.092) scale(495.162 77.9247)">
<stop/>
<stop offset="1" stop-opacity="0"/>
</radialGradient>
<radialGradient id="paint25_radial_399_771" cx="0" cy="0" r="1" gradientUnits="userSpaceOnUse" gradientTransform="translate(394.879 117.975) scale(495.01 75.3888)">
<stop/>
<stop offset="1" stop-opacity="0"/>
</radialGradient>
<radialGradient id="paint26_radial_399_771" cx="0" cy="0" r="1" gradientUnits="userSpaceOnUse" gradientTransform="translate(394.842 121.825) scale(494.863 74.9331)">
<stop/>
<stop offset="1" stop-opacity="0"/>
</radialGradient>
<radialGradient id="paint27_radial_399_771" cx="0" cy="0" r="1" gradientUnits="userSpaceOnUse" gradientTransform="translate(394.842 125.617) scale(494.679 74.5846)">
<stop/>
<stop offset="1" stop-opacity="0"/>
</radialGradient>
<radialGradient id="paint28_radial_399_771" cx="0" cy="0" r="1" gradientUnits="userSpaceOnUse" gradientTransform="translate(394.833 125.929) scale(494.542 77.799)">
<stop/>
<stop offset="1" stop-opacity="0"/>
</radialGradient>
<radialGradient id="paint29_radial_399_771" cx="0" cy="0" r="1" gradientUnits="userSpaceOnUse" gradientTransform="translate(394.851 125.371) scale(494.404 82.0066)">
<stop/>
<stop offset="1" stop-opacity="0"/>
</radialGradient>
<radialGradient id="paint30_radial_399_771" cx="0" cy="0" r="1" gradientUnits="userSpaceOnUse" gradientTransform="translate(394.851 124.763) scale(494.285 86.2922)">
<stop/>
<stop offset="1" stop-opacity="0"/>
</radialGradient>
<radialGradient id="paint31_radial_399_771" cx="0" cy="0" r="1" gradientUnits="userSpaceOnUse" gradientTransform="translate(394.861 124.332) scale(494.156 90.5538)">
<stop/>
<stop offset="1" stop-opacity="0"/>
</radialGradient>
<radialGradient id="paint32_radial_399_771" cx="0" cy="0" r="1" gradientUnits="userSpaceOnUse" gradientTransform="translate(394.888 123.832) scale(494.018 94.9678)">
<stop/>
<stop offset="1" stop-opacity="0"/>
</radialGradient>
</defs>
</svg>
