<svg width="1920" height="1000" viewBox="0 0 1920 1000" fill="none" xmlns="http://www.w3.org/2000/svg">
<g clip-path="url(#clip0_1332_17193)">
<path d="M1439.52 503.949L1436.77 505.564C1384.12 536.432 1329.72 568.436 1296.26 625.363C1293.54 629.975 1290.85 634.753 1288.23 639.381C1277.76 657.923 1266.98 677.069 1252.37 690.77C1226.89 714.669 1192.08 720.159 1161.29 722.407C1141.28 723.863 1120.64 724.12 1100.69 724.367C1073.4 724.703 1045.17 725.049 1018.17 728.442C962.787 735.51 922.612 755.084 895.361 788.3C886.83 798.698 878.273 815.86 869.217 834.033C858.81 854.994 848.009 876.596 836.982 887.761C808.904 916.051 773.325 909.372 735.626 902.242C721.777 899.639 707.464 896.945 692.946 895.824C689.214 895.537 685.472 895.241 681.719 894.937C630.93 890.846 578.416 886.619 537.394 911.786L536.528 910.384C578.02 884.964 630.834 889.187 681.86 893.311C685.613 893.629 689.352 893.926 693.079 894.202C707.7 895.326 722.033 898.043 735.93 900.644C773.17 907.649 808.338 914.241 835.807 886.59C846.666 875.632 857.41 854.126 867.76 833.331C876.872 815.103 885.458 797.827 894.106 787.285C921.641 753.74 962.16 733.97 1017.97 726.852C1045.05 723.4 1073.32 723.057 1100.65 722.705C1120.58 722.454 1141.18 722.203 1161.16 720.745C1191.62 718.534 1226.15 713.091 1251.22 689.547C1265.61 676.046 1276.38 657.006 1286.78 638.548C1289.4 633.916 1292.09 629.093 1294.82 624.51C1328.51 567.214 1383.11 535.139 1435.92 504.126L1438.67 502.51L1439.52 503.949Z" fill="url(#paint0_radial_1332_17193)"/>
<path d="M1434.66 492.236C1339.63 543.102 1307.19 585.67 1287.98 620.598C1284.91 626.158 1281.87 631.929 1278.93 637.51C1271.13 652.334 1263.06 667.665 1253.56 680.467C1251.05 683.828 1248.36 687.059 1245.52 690.146C1231.17 705.71 1212.61 716.44 1188.76 722.876C1177.95 725.813 1166.8 727.269 1155.6 727.205C1149.85 727.155 1143.74 726.919 1136.9 726.494C1121.7 725.581 1106.2 724.261 1091.17 722.915L1081.1 722.032C1054.88 719.785 1030.16 720.377 1007.57 723.792C961.992 730.678 927.734 745.328 902.848 768.596C898.018 773.113 893.508 777.961 889.352 783.105C881.256 793.196 873.166 809.471 864.598 826.698C854.367 847.287 843.787 868.578 832.743 879.549C805.48 906.765 770.962 900.362 734.311 893.564C720.91 891.081 707.069 888.515 693.05 887.451L684.521 886.825C666.596 885.482 648.056 884.094 630.181 884.199C589.503 884.322 559.256 891.192 534.999 905.823L534.153 904.422C558.705 889.618 589.193 882.678 630.175 882.56C648.13 882.499 666.708 883.879 684.662 885.219L693.194 885.854C707.295 886.922 721.193 889.502 734.627 891.99C770.774 898.653 804.932 904.997 831.588 878.399C842.44 867.605 852.957 846.444 863.135 825.98C871.742 808.664 879.872 792.32 888.073 782.081C892.277 776.878 896.838 771.973 901.724 767.402C926.855 743.942 961.379 729.121 1007.27 722.195C1029.99 718.76 1054.85 718.177 1081.18 720.433L1091.27 721.312C1106.25 722.595 1121.77 723.977 1136.94 724.884C1143.76 725.317 1149.85 725.544 1155.56 725.593C1166.61 725.654 1177.62 724.22 1188.28 721.329C1211.83 715.008 1230.13 704.416 1244.27 689.102C1247.06 686.034 1249.69 682.825 1252.15 679.488C1261.54 666.801 1269.62 651.507 1277.39 636.744C1280.34 631.159 1283.35 625.395 1286.46 619.804C1320.89 557.182 1380.26 519.445 1433.81 490.79L1434.66 492.236Z" fill="url(#paint1_radial_1332_17193)"/>
<path d="M1429.8 480.542C1357.82 515.663 1308.72 559.92 1279.7 615.852C1276.32 622.415 1272.98 629.168 1269.77 635.73C1262.47 650.618 1254.93 666.019 1246.27 679.158C1243.84 682.848 1241.28 686.361 1238.7 689.635C1224.66 707.253 1206.81 719.609 1184.15 727.41C1173.17 731.291 1161.51 732.844 1149.9 731.969C1144.23 731.511 1138.27 730.763 1130.74 729.555C1116.32 727.23 1101.63 724.586 1087.39 721.959L1074.06 719.541C1048.58 714.932 1022.5 714.78 996.96 719.092C951.95 726.907 919.964 741.074 896.3 763.679C891.664 768.089 887.348 772.822 883.384 777.844C875.657 787.658 868.001 803.111 859.886 819.489C849.871 839.688 839.559 860.545 828.543 871.333C802.118 897.393 768.7 891.349 733.282 884.85C720.243 882.475 706.751 880.014 693.127 879.042L689.586 878.79C669.633 877.377 649.024 875.917 629.17 876.394C588.462 877.386 557.758 884.806 532.568 899.758L531.727 898.345C557.157 883.254 588.124 875.746 629.132 874.749C649.061 874.238 669.717 875.736 689.702 877.176L693.252 877.424C706.958 878.398 720.495 880.87 733.579 883.255C768.538 889.609 801.573 895.654 827.396 870.179C838.207 859.585 848.499 838.837 858.409 818.786C866.56 802.332 874.248 786.793 882.075 776.844C886.088 771.761 890.454 766.968 895.142 762.5C919.078 739.651 951.316 725.35 996.666 717.482C1022.39 713.137 1048.67 713.29 1074.35 717.933L1087.69 720.348C1101.93 722.978 1116.61 725.618 1131.02 727.955C1138.57 729.176 1144.45 729.942 1150.09 730.415C1161.46 731.215 1172.88 729.64 1183.61 725.791C1205.96 718.097 1223.57 705.921 1237.42 688.554C1240.01 685.367 1242.46 681.878 1244.9 678.217C1253.5 665.175 1261.02 649.823 1268.3 634.974C1271.52 628.409 1274.84 621.614 1278.24 615.06C1307.43 558.81 1356.77 514.311 1429.08 479.031L1429.8 480.542Z" fill="url(#paint2_radial_1332_17193)"/>
<path d="M1424.3 467.322L1424.98 468.819C1376.06 490.573 1309.72 532.926 1271.45 611.088C1267.61 618.87 1263.91 627.023 1260.33 634.873C1253.64 649.505 1246.73 664.635 1239.01 677.826C1236.74 681.716 1234.34 685.482 1231.89 689.019C1218.15 708.828 1201.03 722.83 1179.54 731.844C1167.54 736.869 1155.68 738.539 1144.26 736.802C1137.63 735.733 1131.07 734.331 1124.59 732.601C1112.76 729.567 1100.74 726.258 1089.11 723.067C1081.8 721.083 1074.45 719.078 1067.05 717.052C1040.7 710.073 1013.11 709.169 986.355 714.409C942.11 723.047 912.316 736.736 889.746 758.795C885.309 763.107 881.18 767.726 877.391 772.617C870.053 782.133 862.819 796.782 855.157 812.289C845.402 832.058 835.307 852.505 824.343 863.118C798.657 888.027 766.298 882.25 732.049 876.129C719.428 873.878 706.387 871.544 693.275 870.634L692.672 870.594C671.339 869.16 649.27 867.636 628.205 868.6C587.495 870.5 556.331 878.441 530.157 893.737L529.321 892.311C555.721 876.893 587.128 868.842 628.103 866.993C649.267 866.025 671.393 867.564 692.751 868.987L693.354 869.026C706.594 869.929 719.673 872.235 732.357 874.559C766.189 880.607 798.153 886.311 823.228 861.99C833.984 851.562 844.007 831.248 853.712 811.612C861.406 796.041 868.675 781.315 876.113 771.663C879.94 766.71 884.114 762.034 888.602 757.67C911.424 735.366 941.482 721.548 986.05 712.844C1013.05 707.555 1040.9 708.467 1067.49 715.512C1074.9 717.497 1082.25 719.501 1089.56 721.523C1101.18 724.718 1113.2 728.018 1125.01 731.06C1130.29 732.419 1137.28 734.116 1144.51 735.217C1155.64 736.861 1167.19 735.237 1178.9 730.332C1200.08 721.446 1217.01 707.612 1230.53 688.083C1232.98 684.578 1235.33 680.873 1237.61 676.991C1245.28 663.876 1252.17 648.779 1258.85 634.183C1262.44 626.321 1266.16 618.189 1269.99 610.358C1308.45 531.759 1375.13 489.19 1424.3 467.322Z" fill="url(#paint3_radial_1332_17193)"/>
<path d="M1419.51 455.581L1420.13 457.105C1350.73 485.069 1294.6 538.434 1263.18 606.326C1258.83 615.72 1254.7 625.459 1250.66 634.901C1244.38 649.632 1238.45 663.603 1231.73 676.505C1229.61 680.598 1227.34 684.619 1225.04 688.442C1211.67 710.611 1195.26 726.244 1174.9 736.312C1162.65 742.376 1150.44 744.154 1138.57 741.591C1131.74 740.035 1125.01 738.053 1118.43 735.659C1108.67 732.236 1098.76 728.606 1089.17 725.091C1079.59 721.577 1069.84 718.007 1060.04 714.562C1032.93 705.197 1003.75 703.522 975.736 709.72C946.973 715.95 910.463 726.601 883.126 753.9C878.887 758.108 874.952 762.612 871.351 767.378C864.417 776.561 857.584 790.424 850.433 805.055C840.902 824.43 831.046 844.467 820.103 854.928C795.205 878.726 763.901 873.298 730.776 867.434C718.582 865.302 705.969 863.088 693.281 862.227C672.635 860.886 649.226 859.363 627.131 860.833C587.114 863.488 554.635 872.265 527.732 887.71L526.916 886.285C553.993 870.712 586.754 861.867 627.074 859.237C649.289 857.763 672.747 859.283 693.446 860.631C706.209 861.458 718.864 863.674 731.058 865.785C763.764 871.526 794.667 876.934 818.967 853.709C829.7 843.453 839.486 823.549 848.954 804.303C856.185 789.605 863.016 775.714 870.042 766.378C873.701 761.545 877.698 756.976 882.002 752.706C909.596 725.109 946.398 714.346 975.376 708.079C1003.68 701.811 1033.17 703.504 1060.57 712.972C1070.39 716.417 1080.22 720.023 1089.73 723.51C1099.24 726.997 1109.21 730.658 1118.96 734.068C1125.48 736.448 1132.14 738.418 1138.91 739.969C1150.55 742.49 1162.09 740.809 1174.16 734.824C1194.22 724.893 1210.4 709.432 1223.62 687.573C1225.93 683.767 1228.16 679.786 1230.25 675.737C1236.94 662.834 1242.85 648.944 1249.12 634.238C1253.14 624.794 1257.3 615.032 1261.66 605.622C1293.26 537.35 1349.72 483.69 1419.51 455.581Z" fill="url(#paint4_radial_1332_17193)"/>
<path d="M1414.71 443.849L1415.28 445.395C1345.66 471.115 1287.2 528.048 1254.89 601.58C1249.93 612.893 1245.26 624.658 1240.76 636.026C1235.29 649.826 1230.12 662.854 1224.45 675.196C1222.48 679.483 1220.37 683.741 1218.19 687.86C1205.23 712.465 1189.56 729.783 1170.28 740.772C1157.82 747.888 1145.25 749.776 1132.9 746.372C1125.85 744.32 1118.96 741.752 1112.29 738.687C1103.73 734.921 1095.05 730.957 1086.66 727.106C1075.71 722.092 1064.39 716.908 1053.03 712.03C1025.65 700.299 995.215 697.876 965.118 705.011C912.458 717.486 890.149 735.064 876.598 748.983C872.563 753.092 868.822 757.478 865.4 762.11C858.863 771.012 852.503 784.005 845.764 797.765C836.471 816.751 826.856 836.386 815.928 846.68C791.813 869.378 761.584 864.209 729.551 858.688C717.784 856.675 705.618 854.581 693.439 853.863C669.203 852.362 647.409 851.267 626.195 853.105C586.256 856.51 553.258 865.834 525.32 881.686L524.509 880.25C552.664 864.299 585.875 854.889 626.033 851.455C647.375 849.61 669.222 850.71 693.509 852.168C705.789 852.931 717.988 855.031 729.808 857.05C761.413 862.473 791.239 867.552 814.78 845.456C825.49 835.372 835.038 815.878 844.277 797.017C851.047 783.193 857.438 770.135 864.062 761.113C867.527 756.417 871.32 751.97 875.411 747.807C889.108 733.721 911.651 715.947 964.721 703.377C995.212 696.154 1025.96 698.61 1053.63 710.517C1065.01 715.395 1076.33 720.583 1087.3 725.598C1095.68 729.432 1104.35 733.4 1112.91 737.187C1119.52 740.206 1126.33 742.747 1133.3 744.789C1145.38 748.113 1157.19 746.33 1169.43 739.342C1188.65 728.359 1203.71 711.741 1216.7 687.075C1218.88 682.976 1220.98 678.727 1222.91 674.491C1228.57 662.185 1233.73 649.17 1239.19 635.406C1243.71 624.039 1248.46 612.24 1253.41 600.91C1285.88 526.982 1344.68 469.733 1414.71 443.849Z" fill="url(#paint5_radial_1332_17193)"/>
<path d="M1409.91 432.118L1410.44 433.671C1339.72 457.458 1279.95 516.962 1246.63 596.827C1240.89 610.507 1235.65 624.805 1230.58 638.596C1226.04 650.949 1221.75 662.622 1217.16 673.888C1215.33 678.386 1213.38 682.896 1211.36 687.297C1198.72 714.849 1184.19 733.271 1165.64 745.258C1153.06 753.429 1140.11 755.426 1127.25 751.189C1119.97 748.622 1112.92 745.469 1106.15 741.759C1098.22 737.589 1090.18 733.202 1082.45 728.95C1070.62 722.472 1058.36 715.788 1046.03 709.575C1010.4 691.664 976.576 694.641 954.508 700.361C926.38 707.593 894.369 718.497 870.04 744.133C866.206 748.145 862.656 752.417 859.414 756.92C853.276 765.501 847.355 777.681 841.078 790.567C832.021 809.163 822.665 828.389 811.731 838.514C788.414 860.146 759.202 855.223 728.299 850.057C716.956 848.134 705.248 846.185 693.549 845.502C669.99 844.118 647.077 843.046 625.199 845.375C585.474 849.5 552.014 859.406 522.906 875.657L522.107 874.225C551.417 857.863 585.085 847.882 625.033 843.717C646.986 841.395 670.01 842.446 693.634 843.841C705.435 844.549 717.188 846.508 728.564 848.415C759.096 853.517 787.879 858.363 810.615 837.316C821.333 827.43 830.616 808.308 839.605 789.852C845.921 776.919 851.866 764.657 858.078 755.972C861.369 751.413 864.974 747.089 868.866 743.031C893.463 717.052 925.747 706.106 954.113 698.797C976.47 693.047 1010.69 689.999 1046.78 708.145C1059.16 714.357 1071.41 721.056 1083.26 727.547C1091.01 731.78 1099.02 736.166 1106.94 740.335C1113.62 744.01 1120.59 747.128 1127.79 749.656C1140.15 753.738 1152.59 751.808 1164.77 743.918C1183.03 732.092 1197.37 713.888 1209.88 686.636C1211.88 682.263 1213.84 677.79 1215.65 673.291C1220.23 662.061 1224.52 650.406 1229.06 638.065C1234.12 624.22 1239.36 609.95 1245.11 596.202C1278.65 515.876 1338.72 456.067 1409.91 432.118Z" fill="url(#paint6_radial_1332_17193)"/>
<path d="M1405.11 420.387L1405.59 421.955C1334.6 443.669 1272.07 507.261 1238.33 592.083C1231.67 608.829 1225.76 626.253 1220.08 643.094C1216.59 653.355 1213.31 663.053 1209.88 672.564C1208.17 677.298 1206.36 682.056 1204.5 686.705C1192.29 717.363 1178.88 736.798 1161.01 749.708C1148.24 758.96 1134.98 761.052 1121.59 755.944C1113.85 752.985 1106.65 748.828 1100.01 744.774C1092.43 740.141 1084.75 735.262 1077.34 730.554C1064.92 722.66 1052.07 714.499 1039.04 707.042C1010.34 690.62 976.544 686.571 943.905 695.663C917.1 703.102 886.582 714.096 863.477 739.229C859.845 743.143 856.49 747.303 853.435 751.681C847.7 759.928 842.206 771.291 836.377 783.319C827.579 801.527 818.472 820.348 807.525 830.308C784.991 850.819 756.82 846.191 727.014 841.335C716.126 839.549 704.85 837.707 693.641 837.084C669.855 835.752 646.575 834.806 624.206 837.589C584.77 842.44 550.847 852.928 520.492 869.632L519.698 868.188C550.235 851.351 584.36 840.842 624.003 835.958C646.512 833.152 669.828 834.112 693.734 835.44C705.025 836.066 716.337 837.922 727.279 839.714C756.682 844.55 784.486 849.103 806.425 829.102C817.134 819.351 826.165 800.675 834.909 782.613C840.752 770.528 846.278 759.101 852.086 750.75C855.181 746.297 858.581 742.065 862.264 738.085C885.635 712.65 916.417 701.547 943.446 694.047C976.528 684.865 1010.77 688.965 1039.85 705.606C1052.91 713.089 1065.78 721.255 1078.22 729.15C1085.63 733.858 1093.3 738.724 1100.87 743.361C1107.43 747.375 1114.56 751.497 1122.17 754.401C1135.01 759.303 1147.75 757.269 1160.04 748.355C1177.62 735.615 1190.86 716.396 1202.96 686.045C1204.81 681.42 1206.61 676.674 1208.31 671.957C1211.73 662.458 1215.03 652.793 1218.5 642.519C1224.21 625.654 1230.13 608.206 1236.81 591.411C1270.73 506.195 1333.64 442.239 1405.11 420.387Z" fill="url(#paint7_radial_1332_17193)"/>
<path d="M1400.3 408.657L1400.75 410.24C1328.33 430.333 1264.52 496.53 1230.12 587.301C1222.26 607.986 1215.6 629.499 1209.16 650.296C1206.96 657.398 1204.78 664.369 1202.63 671.23C1201.02 676.267 1199.37 681.27 1197.68 686.111C1189.42 710.002 1178.08 736.827 1156.4 754.159C1143.5 764.491 1129.9 766.693 1115.97 760.701C1108.06 757.305 1100.7 752.492 1093.92 747.791C1086.47 742.625 1078.98 737.219 1071.72 731.987C1058.87 722.687 1045.62 713.163 1032.08 704.524C1002.44 685.645 967.335 680.83 933.286 690.973C909.346 698.104 879.035 709.468 856.919 734.335C853.483 738.148 850.315 742.193 847.437 746.443C842.111 754.344 837.038 764.901 831.674 776.084C823.125 793.887 814.281 812.307 803.32 822.102C781.564 841.526 754.414 837.171 725.709 832.633C715.26 830.971 704.448 829.242 693.693 828.706C670.522 827.489 645.979 826.58 623.164 829.847C584.696 835.277 549.325 846.642 518.072 863.611L517.286 862.163C548.711 845.106 584.273 833.675 622.965 828.204C645.933 824.918 670.554 825.822 693.811 827.051C704.61 827.617 715.463 829.348 725.965 831.016C754.293 835.523 781.039 839.788 802.212 820.88C812.939 811.302 821.703 793.039 830.185 775.377C835.576 764.142 840.664 753.507 846.063 745.523C848.979 741.225 852.18 737.127 855.645 733.258C878.041 708.094 908.623 696.617 932.772 689.412C967.291 679.128 1002.85 684.03 1032.91 703.204C1046.48 711.874 1059.77 721.453 1072.58 730.742C1079.83 735.966 1087.33 741.372 1094.76 746.525C1101.46 751.181 1108.74 755.942 1116.52 759.284C1129.84 765.014 1142.88 762.885 1155.28 752.956C1176.61 735.858 1187.84 709.325 1196.02 685.636C1197.7 680.844 1199.34 675.808 1200.94 670.783C1203.11 663.955 1205.28 656.959 1207.48 649.87C1213.93 629.047 1220.58 607.518 1228.46 586.772C1263.17 495.467 1327.38 428.887 1400.3 408.657Z" fill="url(#paint8_radial_1332_17193)"/>
<path d="M1395.51 396.923L1395.91 398.525C1321.94 417.103 1256.83 485.913 1221.8 582.564C1212.38 608.539 1204.88 635.48 1197.63 661.522L1195.29 669.937C1193.78 675.324 1192.27 680.574 1190.79 685.555C1182.7 712.814 1172.32 740.552 1151.72 758.648C1138.7 770.089 1124.76 772.397 1110.27 765.516C1102.18 761.669 1094.67 756.201 1087.76 750.851C1080.37 745.128 1072.94 739.157 1065.74 733.364C1052.6 722.784 1039.01 711.841 1025.04 702.047C994.438 680.625 958.054 674.975 922.637 686.26C900.046 693.456 871.419 704.865 850.318 729.413C847.089 733.13 844.115 737.061 841.417 741.178C836.491 748.717 831.847 758.486 826.936 768.819C818.678 786.218 810.076 804.236 799.08 813.866C778.147 832.212 752.003 828.188 724.365 823.913C714.371 822.388 704.011 820.766 693.805 820.264C670.291 819.112 645.391 818.304 622.183 822.041C584.94 827.857 548.932 839.87 515.657 857.582L514.879 856.131C548.321 838.353 584.501 826.295 621.92 820.457C645.281 816.701 670.283 817.513 693.88 818.669C704.185 819.166 714.57 820.777 724.616 822.328C751.866 826.547 777.604 830.523 797.996 812.673C808.741 803.268 817.226 785.414 825.445 768.153C830.383 757.767 835.057 747.955 840.066 740.308C842.801 736.128 845.819 732.139 849.101 728.372C870.464 703.513 899.372 691.988 922.162 684.722C958.071 673.275 994.97 678.993 1026.01 700.732C1040.01 710.524 1053.62 721.496 1066.79 732.123C1073.99 737.937 1081.41 743.882 1088.8 749.576C1095.64 754.866 1103.06 760.257 1111.02 764.062C1124.85 770.633 1138.18 768.409 1150.66 757.444C1170.98 739.567 1181.2 712.123 1189.22 685.095C1190.69 680.127 1192.2 674.88 1193.71 669.502L1196.05 661.087C1203.31 635.012 1210.82 608.055 1220.26 582.011C1255.49 484.838 1321.01 415.641 1395.51 396.923Z" fill="url(#paint9_radial_1332_17193)"/>
<path d="M1390.72 385.236L1391.08 386.836C1315.47 403.978 1249.09 475.39 1213.53 577.859C1203.06 608.038 1195.18 639.271 1188 668.678C1186.67 674.116 1185.32 679.595 1183.94 685.035C1177 712.441 1167.84 743.345 1147.09 763.174C1133.97 775.729 1119.69 778.147 1104.64 770.361C1096.36 766.046 1088.71 759.944 1081.66 753.955C1074.27 747.666 1066.84 741.079 1059.66 734.686C1046.22 722.808 1032.41 710.493 1018.08 699.587C986.426 675.503 948.76 669.114 912.034 681.605C880.582 692.296 859.494 705.554 843.775 724.574C840.745 728.19 837.962 732.004 835.442 735.992C830.921 743.156 826.695 752.131 822.227 761.639C814.218 778.653 805.917 796.223 794.881 805.719C774.705 822.998 749.598 819.26 723.059 815.274C713.501 813.844 703.604 812.376 693.917 811.932C670.039 810.843 644.723 810.142 621.198 814.335C583.49 821.06 547.061 833.629 513.228 851.588L512.459 850.132C546.445 832.087 583.038 819.454 620.917 812.689C644.637 808.458 670.026 809.166 693.999 810.262C703.784 810.703 713.709 812.188 723.312 813.628C749.488 817.547 774.214 821.245 793.821 804.445C804.6 795.206 812.814 777.777 820.747 760.908C825.241 751.368 829.486 742.344 834.055 735.087C836.616 731.04 839.445 727.169 842.522 723.499C858.443 704.256 879.726 690.849 911.52 680.045C948.812 667.357 987.022 673.833 1019.08 698.274C1033.47 709.219 1047.34 721.537 1060.76 733.451C1067.93 739.822 1075.34 746.405 1082.75 752.728C1089.72 758.643 1097.29 764.718 1105.42 768.92C1119.75 776.313 1133.4 773.981 1145.96 761.971C1166.36 742.445 1175.45 711.79 1182.34 684.599C1183.72 679.159 1185.08 673.689 1186.4 668.254C1193.58 638.807 1201.48 607.534 1211.98 577.294C1247.72 474.277 1314.53 402.467 1390.72 385.236Z" fill="url(#paint10_radial_1332_17193)"/>
<path d="M1385.91 373.466L1386.23 375.082C1308.9 390.85 1241.24 464.854 1205.25 573.072C1196.5 599.377 1188.96 628.433 1180.7 667.326L1179.85 671.337C1178.94 675.687 1178.01 680.05 1177.07 684.424C1170.48 715.209 1162.37 747 1142.43 767.608C1129.38 781.098 1114.41 783.675 1098.99 775.106C1090.41 770.32 1082.67 763.544 1075.54 756.956C1067.89 749.905 1060.25 742.5 1052.85 735.335C1039.44 722.336 1025.57 708.893 1011.1 697.061C978.832 670.684 938.853 663.326 901.42 676.884C872.437 687.374 852.031 700.958 837.21 719.623C834.38 723.14 831.788 726.841 829.449 730.701C825.338 737.478 821.525 745.672 817.495 754.347C809.762 770.944 801.787 788.165 790.639 797.48C771.244 813.7 747.175 810.229 721.683 806.555C712.582 805.241 703.145 803.857 693.973 803.502C669.702 802.48 644.005 801.871 620.165 806.529C583.53 813.649 546.734 826.767 510.792 845.515L510.035 844.064C546.129 825.227 583.071 812.033 619.867 804.911C643.884 800.223 669.688 800.823 694.079 801.842C703.332 802.241 712.806 803.598 721.949 804.913C747.064 808.536 770.786 811.953 789.583 796.215C800.429 787.147 808.335 770.129 815.981 753.672C820.028 744.949 823.863 736.715 828.011 729.861C830.403 725.95 833.046 722.196 835.921 718.624C850.953 699.733 871.555 685.98 900.863 675.363C938.862 661.609 979.414 669.051 1012.15 695.82C1026.67 707.698 1040.57 721.164 1054 734.183C1061.39 741.34 1069.02 748.74 1076.65 755.775C1083.7 762.314 1091.37 769.001 1099.79 773.703C1114.64 782.011 1128.65 779.554 1141.25 766.489C1160.87 746.174 1168.92 714.672 1175.46 684.086C1176.39 679.72 1177.32 675.358 1178.24 670.999L1179.08 666.989C1187.33 628.053 1194.91 598.929 1203.68 572.559C1239.87 463.782 1307.99 389.356 1385.91 373.466Z" fill="url(#paint11_radial_1332_17193)"/>
<path d="M1381.1 361.744L1381.39 363.366C1302.03 377.84 1233.09 454.462 1196.96 568.324C1187.96 596.378 1180.25 628.332 1173.4 666.023L1171.21 678.249L1170.21 683.861C1164.08 718.149 1156.99 750.698 1137.77 772.09C1124.65 786.7 1109.31 789.397 1093.34 779.903C1084.6 774.7 1076.69 767.285 1069.43 760.01C1061.76 752.394 1054.12 744.373 1046.75 736.614C1033.1 722.311 1019 707.511 1004.14 694.563C970.766 665.465 929.457 657.307 890.821 672.195C863.949 682.537 844.82 696.026 830.668 714.721C828.031 718.148 825.615 721.738 823.434 725.47C819.741 731.836 816.348 739.266 812.749 747.131C805.323 763.358 797.66 780.156 786.446 789.259C767.856 804.429 744.788 801.231 720.361 797.861C711.749 796.648 702.767 795.421 694.099 795.09C669.409 794.167 643.268 793.648 619.152 798.763C582.965 806.406 546.725 819.726 508.35 839.493L507.598 838.03C546.102 818.194 582.484 804.83 618.808 797.155C643.082 792.009 669.322 792.503 694.126 793.455C702.875 793.79 711.865 795.034 720.577 796.222C744.631 799.548 767.353 802.692 785.394 787.981C796.3 779.088 803.898 762.481 811.244 746.432C814.856 738.53 818.271 731.06 822.007 724.634C824.222 720.855 826.67 717.217 829.337 713.741C843.704 694.828 863.045 681.142 890.214 670.676C929.447 655.569 971.356 663.827 1005.21 693.343C1020.15 706.323 1034.26 721.165 1047.92 735.488C1055.31 743.232 1062.94 751.236 1070.59 758.851C1077.77 766.032 1085.59 773.374 1094.18 778.497C1113.39 789.962 1127.82 780.724 1136.55 770.991C1155.48 749.904 1162.5 717.607 1168.57 683.563L1169.57 677.952C1170.3 673.851 1171.03 669.765 1171.77 665.722C1178.62 627.957 1186.36 595.934 1195.38 567.811C1231.72 453.369 1301.14 376.331 1381.1 361.744Z" fill="url(#paint12_radial_1332_17193)"/>
<path d="M1376.3 350.013L1376.56 351.634C1295.41 364.818 1225.17 444.048 1188.7 563.58C1179.4 593.681 1171.8 627.74 1166.11 664.715C1165.22 670.52 1164.35 676.416 1163.49 682.324L1163.35 683.297C1158.85 714.171 1153.24 752.58 1133.13 776.568C1116.46 796.472 1099.23 791.984 1087.72 784.717C1078.8 779.079 1070.74 770.988 1063.34 763.079C1055.6 754.89 1047.98 746.245 1040.57 737.909C1026.71 722.292 1012.39 706.151 997.167 692.096C962.58 660.202 919.983 651.226 880.212 667.524C855.809 677.555 837.449 691.362 824.098 709.846C821.69 713.171 819.485 716.638 817.495 720.229C814.21 726.158 811.212 732.835 808.047 739.899C800.936 755.732 793.594 772.102 782.312 781.055C764.499 795.158 741.425 792.124 719.091 789.168C710.9 788.086 702.432 786.969 694.272 786.691C669.123 785.824 642.533 785.448 618.269 790.993C582.717 799.104 547.054 812.587 505.993 833.478L505.244 832.023C546.435 811.063 582.215 797.528 617.849 789.419C642.305 783.828 669.009 784.213 694.277 785.076C702.485 785.394 711.037 786.473 719.243 787.567C742.252 790.611 763.981 793.478 781.247 779.793C792.241 771.072 799.506 754.887 806.528 739.236C809.715 732.132 812.718 725.423 816.038 719.437C818.069 715.784 820.317 712.257 822.771 708.874C836.296 690.15 854.887 676.118 879.6 666.038C919.994 649.488 963.265 658.552 998.314 690.933C1013.59 705.043 1027.94 721.222 1041.83 736.856C1049.23 745.197 1056.88 753.809 1064.57 761.997C1071.89 769.833 1079.87 777.838 1088.63 783.359C1108.48 795.9 1123.11 786.05 1131.9 775.563C1151.71 751.921 1157.28 713.761 1161.76 683.1L1161.89 682.131C1162.76 676.206 1163.59 670.28 1164.52 664.51C1170.23 627.436 1177.84 593.338 1187.19 563.111C1223.79 442.951 1294.49 363.267 1376.3 350.013Z" fill="url(#paint13_radial_1332_17193)"/>
<path d="M1371.49 338.289L1371.73 339.917C1288.74 351.834 1217.21 433.673 1180.44 558.819C1170.45 593.061 1163.22 628.049 1158.82 663.447C1158.05 669.441 1157.3 675.683 1156.62 681.693L1156.5 682.756C1152.5 717.213 1147.98 756.268 1128.49 781.076C1115.41 797.734 1098.94 800.733 1082.1 789.528C1073 783.477 1064.77 774.722 1057.25 766.155C1049.49 757.353 1041.8 748.106 1034.36 739.156C1020.31 722.257 1005.78 704.777 990.195 689.607C954.937 655.295 909.845 645.282 869.58 662.831C847.583 672.429 830.068 686.589 817.536 704.944C815.32 708.173 813.298 711.531 811.48 714.999C808.596 720.455 806.001 726.395 803.24 732.682C796.481 748.114 789.496 764.091 778.073 772.865C761.073 785.936 739.028 783.172 717.714 780.51C709.976 779.536 701.991 778.553 694.352 778.311C668.677 777.551 641.609 777.301 617.193 783.267C582.69 791.67 547.641 805.307 503.555 827.467L502.82 825.996C547.019 803.775 582.171 790.101 616.828 781.658C641.427 775.65 668.651 775.89 694.37 776.68C702.084 776.909 710.121 777.919 717.888 778.889C738.871 781.489 760.618 784.217 777.071 771.565C788.185 763.021 795.108 747.284 801.766 732.009C804.543 725.714 807.148 719.73 810.056 714.213C811.908 710.695 813.96 707.287 816.204 704.005C828.948 685.383 846.651 671.037 868.953 661.311C909.799 643.509 955.578 653.615 991.342 688.423C1006.97 703.632 1021.52 721.125 1035.61 738.086C1043.05 747.016 1050.73 756.259 1058.46 765.031C1065.92 773.509 1074.05 782.166 1083.01 788.105C1103.55 801.77 1118.39 791.25 1127.2 780.016C1146.39 755.578 1150.9 716.757 1154.87 682.517L1155 681.449C1155.7 675.419 1156.42 669.189 1157.2 663.183C1161.6 627.715 1168.85 592.657 1178.86 558.347C1215.83 432.567 1287.84 350.304 1371.49 338.289Z" fill="url(#paint14_radial_1332_17193)"/>
<path d="M1366.69 326.576L1366.89 328.207C1282.02 338.892 1209.22 423.332 1172.15 554.096C1162.17 589.459 1155.28 625.617 1151.54 662.166C1150.86 668.591 1150.31 675.037 1149.65 682.227L1149.53 683.287C1146.22 720.963 1142.76 759.907 1123.85 785.593C1110.69 803.406 1093.86 806.514 1076.47 794.352C1067.76 788.295 1060.05 779.93 1051.16 769.239C1043.34 759.839 1035.61 749.957 1028.11 740.372C1013.83 722.191 999.144 703.373 983.231 687.114C946.683 649.818 900.234 639.009 858.97 658.138C839.268 667.182 822.597 681.721 810.959 700.009C808.957 703.145 807.126 706.389 805.475 709.724C803.005 714.691 800.679 720.156 798.467 725.429C792.046 740.425 785.45 756.015 773.864 764.631C757.666 776.664 736.669 774.191 716.356 771.802C709.086 770.95 701.566 770.059 694.45 769.882C667.211 769.185 640.725 769.084 616.253 775.439C574.684 786.182 536.389 803.897 501.199 821.388L500.471 819.913C535.754 802.381 574.151 784.669 615.838 773.853C640.518 767.445 667.131 767.538 694.494 768.24C701.641 768.443 709.24 769.308 716.538 770.178C736.529 772.522 757.198 774.961 772.901 763.304C784.139 754.945 790.668 739.608 796.981 724.772C799.238 719.468 801.573 713.978 804.071 708.959C805.763 705.567 807.635 702.267 809.68 699.076C821.463 680.553 838.339 665.82 858.285 656.644C877.664 647.649 899.418 645.109 920.346 649.398C943.314 654.002 965.455 666.669 984.417 685.993C1000.39 702.296 1015.14 721.136 1029.4 739.362C1036.88 748.909 1044.61 758.782 1052.42 768.158C1061.24 778.747 1068.84 787.03 1077.4 792.982C1089.1 801.169 1106.43 806.36 1122.52 784.584C1141.18 759.324 1144.6 720.604 1147.9 683.158L1148.02 682.098C1148.65 674.911 1149.23 668.45 1149.91 662.008C1153.65 625.36 1160.55 589.104 1170.54 553.643C1207.85 422.198 1281.14 337.325 1366.69 326.576Z" fill="url(#paint15_radial_1332_17193)"/>
<path d="M1361.89 314.831L1362.08 316.461C1236.67 330.151 1157.57 500.051 1144.23 660.806C1143.58 668.658 1143.07 676.922 1142.57 684.908C1140.14 723.55 1137.65 763.502 1119.2 789.994C1112.62 799.441 1104.67 805.19 1096.25 806.602C1088.13 807.969 1079.59 805.432 1070.84 799.073C1061.91 792.572 1054.08 783.639 1045.07 772.217C1037.18 762.214 1029.39 751.701 1021.86 741.523C1007.45 722.058 992.542 701.926 976.292 684.61C938.939 644.797 889.928 632.849 848.394 653.43C830.486 662.307 815.693 676.334 804.443 695.117C800.236 702.129 796.872 710.291 793.597 718.271C787.601 732.914 781.392 748.046 769.609 756.47C754.211 767.466 734.284 765.285 714.958 763.185C708.148 762.436 701.109 761.671 694.513 761.53C666.677 760.962 639.672 761.006 615.214 767.727C574.532 778.915 536.906 796.66 498.733 815.379L498.006 813.904C536.243 795.127 573.948 777.335 614.771 766.123C639.445 759.345 666.582 759.303 694.541 759.876C701.206 760.014 708.278 760.785 715.129 761.535C734.123 763.614 753.763 765.764 768.671 755.11C780.088 746.923 786.191 732.071 792.094 717.621C795.368 709.641 798.757 701.377 803.017 694.261C814.434 675.201 829.445 660.964 847.627 651.913C889.848 631 939.594 643.08 977.464 683.435C993.777 700.823 1008.71 720.994 1023.16 740.504C1030.68 750.666 1038.45 761.166 1046.34 771.152C1055.26 782.461 1063 791.311 1071.78 797.7C1080.11 803.849 1088.26 806.285 1095.95 804.996C1103.93 803.653 1111.49 798.148 1117.82 789.057C1136.03 762.934 1138.52 723.216 1140.91 684.802C1141.4 676.809 1141.93 668.541 1142.58 660.668C1156.01 499.226 1235.59 328.614 1361.89 314.831Z" fill="url(#paint16_radial_1332_17193)"/>
<path d="M1363.35 318.511L1363.57 320.138C1319 325.908 1278.28 351.665 1242.46 396.544C1211.06 435.939 1184.76 489.067 1166.4 550.165C1156.64 582.503 1149.64 615.608 1145.48 649.126C1144.55 656.683 1143.74 664.644 1142.96 672.331C1142.28 679.081 1141.57 686.059 1140.76 692.907C1137.5 721.064 1132.35 749.986 1117.16 770.551C1104.05 788.371 1087.3 791.593 1069.87 779.659C1060.48 773.235 1052.11 764.031 1044.46 755.04C1036.8 746.049 1029.11 736.48 1021.73 727.311C1007.4 709.473 992.559 691.024 976.652 675.225C939.704 638.534 892.563 628.893 853.608 650.072C836.32 659.474 821.631 674.311 809.961 694.17C805.791 701.286 802.361 709.458 799.044 717.367C792.687 732.506 786.121 748.162 774.047 757.17C769.038 760.86 763.34 763.51 757.291 764.962C744.19 768.268 729.344 767.024 714.981 765.822C709.196 765.335 703.215 764.837 697.534 764.646C690.933 764.448 684.281 764.182 677.661 763.922L674.85 763.813C657.222 763.192 636.527 763.102 616.766 767.194C602.778 770.107 588.956 773.769 575.361 778.165C548.335 786.888 522.11 797.921 496.977 811.143L496.22 809.692C521.439 796.428 547.753 785.361 574.87 776.613C588.509 772.209 602.374 768.538 616.404 765.614C636.343 761.492 657.157 761.579 674.888 762.203L677.699 762.312C684.319 762.573 690.959 762.834 697.56 763.032C703.275 763.208 709.276 763.707 715.074 764.178C729.302 765.37 744.013 766.605 756.848 763.359C762.685 761.963 768.184 759.411 773.018 755.853C784.736 747.106 791.219 731.668 797.486 716.732C800.821 708.774 804.282 700.558 808.505 693.337C820.326 673.208 835.224 658.166 852.789 648.618C892.433 627.068 940.292 636.827 977.775 674.052C993.753 689.919 1008.61 708.398 1022.98 726.274C1030.35 735.444 1037.97 744.915 1045.68 753.965C1053.25 762.871 1061.54 771.981 1070.79 778.286C1082.49 786.332 1099.87 791.328 1115.83 769.559C1130.84 749.266 1135.89 720.632 1139.13 692.696C1139.94 685.852 1140.66 678.907 1141.33 672.145C1142.11 664.445 1142.91 656.484 1143.85 648.906C1148.03 615.298 1155.04 582.103 1164.83 549.677C1183.25 488.4 1209.65 435.087 1241.15 395.535C1277.24 350.249 1318.35 324.337 1363.35 318.511Z" fill="url(#paint17_radial_1332_17193)"/>
<path d="M1364.83 322.177L1365.07 323.801C1285.61 335.835 1214.68 416.582 1170.45 545.331C1160.05 575.338 1152.13 606.144 1146.75 637.44C1145.51 644.711 1144.42 652.357 1143.31 659.784C1142.42 665.827 1141.51 672.083 1140.52 678.237C1136.36 704.511 1130.42 731.516 1115.14 751.092C1098.5 772.411 1080.82 767.835 1068.88 760.248C1059.53 754.281 1050.97 745.575 1043.83 737.853C1036.37 729.794 1028.96 721.404 1021.81 713.283C1007.48 697.015 992.65 680.193 976.987 665.846C940.515 632.415 895.228 625.09 858.819 646.749C842.132 656.656 827.572 672.29 815.485 693.256C811.354 700.435 807.868 708.571 804.499 716.433C797.791 732.043 790.869 748.273 778.484 757.907C773.443 761.773 767.716 764.651 761.606 766.388C746.965 770.723 730.078 769.626 713.753 768.566C709.403 768.287 704.894 767.989 700.573 767.818C693.822 767.557 686.441 767.106 677.353 766.381C659.431 764.955 638.39 763.853 618.328 766.721C604.07 768.746 589.94 771.585 576.007 775.225C547.142 782.72 519.188 793.702 495.286 806.933L494.491 805.489C518.507 792.196 546.556 781.181 575.601 773.635C589.595 769.983 603.786 767.13 618.103 765.09C638.334 762.236 659.475 763.313 677.487 764.738C686.555 765.463 693.906 765.916 700.645 766.173C704.979 766.349 709.496 766.643 713.858 766.927C730.048 767.977 746.779 769.064 761.137 764.816C767.05 763.133 772.593 760.349 777.474 756.61C789.516 747.243 796.379 731.241 803.02 715.772C806.407 707.862 809.916 699.685 814.091 692.425C826.324 671.202 841.102 655.358 858.031 645.342C895.099 623.335 941.136 630.734 978.163 664.679C993.881 679.082 1008.74 695.938 1023.11 712.244C1030.25 720.348 1037.62 728.741 1045.1 736.785C1052.17 744.43 1060.63 753.046 1069.83 758.904C1090.33 771.959 1105.09 761.313 1113.85 750.093C1128.9 730.812 1134.78 704.038 1138.89 677.985C1139.89 671.84 1140.8 665.592 1141.66 659.601C1142.75 652.177 1143.9 644.484 1145.12 637.221C1150.5 605.839 1158.44 574.95 1168.86 544.863C1188.87 486.606 1215.49 435.992 1245.86 398.497C1281.57 354.379 1321.59 328.73 1364.83 322.177Z" fill="url(#paint18_radial_1332_17193)"/>
<path d="M1366.3 325.853L1366.58 327.471C1265.34 345.145 1202.78 468.533 1174.5 540.478C1163.49 568.181 1154.64 596.689 1148 625.748C1146.38 633.012 1144.85 640.706 1143.37 648.148C1142.35 653.254 1141.33 658.408 1140.25 663.544C1135.11 688.107 1128.25 713.309 1113.12 731.609C1104.05 742.636 1088.81 753.116 1067.97 740.816C1058.68 735.328 1050.28 727.549 1043.29 720.655C1036.3 713.76 1029.15 706.477 1022.34 699.499C1007.27 684.008 992.965 669.459 977.423 656.447C941.464 626.423 898.06 621.39 864.085 643.328C847.823 653.838 833.742 669.841 821.051 692.258C816.985 699.468 813.461 707.521 810.058 715.308C802.956 731.539 795.618 748.32 782.892 758.581C777.815 762.635 772.055 765.749 765.883 767.777C749.198 773.43 729.577 772.35 710.597 771.303C708.242 771.179 705.892 771.043 703.566 770.936C696.182 770.589 688.411 769.922 679.816 768.883C660.449 766.559 639.777 764.625 619.848 766.183C605.315 767.313 590.865 769.334 576.58 772.233C545.546 778.523 516.821 789.048 493.516 802.664L492.683 801.247C516.148 787.539 545.048 776.955 576.252 770.618C590.605 767.707 605.122 765.68 619.723 764.547C639.796 762.974 660.563 764.916 680.015 767.251C688.548 768.288 696.299 768.954 703.647 769.288C705.977 769.402 708.327 769.539 710.693 769.667C729.506 770.7 748.946 771.781 765.352 766.223C771.34 764.26 776.928 761.24 781.852 757.308C794.257 747.294 801.517 730.699 808.542 714.653C811.967 706.826 815.505 698.737 819.607 691.45C832.443 668.796 846.7 652.603 863.181 641.953C897.763 619.619 941.938 624.687 978.467 655.189C994.054 668.21 1009.03 683.534 1023.51 698.357C1030.32 705.352 1037.35 712.531 1044.44 719.491C1051.35 726.309 1059.65 734.01 1068.8 739.406C1088.64 751.117 1103.17 741.078 1111.86 730.607C1126.78 712.615 1133.55 687.602 1138.66 663.248C1139.73 658.108 1140.75 652.97 1141.78 647.861C1143.25 640.41 1144.78 632.716 1146.41 625.419C1153.07 596.278 1161.95 567.689 1172.98 539.905C1201.38 467.607 1264.27 343.682 1366.3 325.853Z" fill="url(#paint19_radial_1332_17193)"/>
<path d="M1367.77 329.521L1368.1 331.136C1297.05 345.299 1233.32 414.113 1178.55 535.691C1165.99 563.631 1156.42 589.272 1149.26 614.114C1147.19 621.34 1145.28 628.671 1143.28 636.429C1142.2 640.575 1141.11 644.753 1140 648.925C1133.92 671.685 1126.22 695.142 1111.13 712.223C1098.19 726.794 1082.99 729.994 1067 721.404C1057.68 716.391 1049.12 709.19 1042.69 703.484C1036.26 697.778 1029.7 691.828 1023.43 686.117C1008 672.049 993.411 658.767 977.788 647.072C942.422 620.587 900.852 617.869 869.3 639.971C853.716 650.89 839.756 667.714 826.588 691.305C822.608 698.506 819.076 706.431 815.658 714.094C808.157 730.939 800.397 748.345 787.315 759.29C782.203 763.516 776.418 766.855 770.202 769.168C750.673 776.601 726.244 775.187 706.609 774.053C698.49 773.576 690.401 772.681 682.374 771.373C659.253 767.725 640.037 765.333 621.479 765.666C606.673 765.884 591.898 767.084 577.25 769.259C554.422 772.653 521.068 780.476 491.848 798.419L490.99 797.014C520.438 778.927 554.024 771.06 577.009 767.635C591.727 765.45 606.572 764.241 621.449 764.018C640.13 763.689 659.428 766.084 682.645 769.789C690.634 771.076 698.684 771.958 706.763 772.432C726.242 773.556 750.482 774.954 769.677 767.652C775.723 765.403 781.347 762.153 786.316 758.04C799.108 747.346 806.784 730.109 814.212 713.438C817.636 705.743 821.185 697.789 825.204 690.52C838.473 666.683 852.616 649.705 868.432 638.63C900.58 616.108 942.89 618.834 978.85 645.765C994.537 657.512 1009.14 670.816 1024.61 684.909C1030.87 690.621 1037.35 696.509 1043.86 702.251C1050.21 707.909 1058.7 715.022 1067.86 719.97C1083.24 728.266 1097.4 725.288 1109.93 711.125C1124.8 694.323 1132.44 671.106 1138.48 648.513C1139.59 644.346 1140.68 640.186 1141.75 636.033C1143.68 628.6 1145.67 620.919 1147.76 613.674C1154.9 588.769 1164.51 563.04 1177.13 535.023C1232.04 412.917 1296.21 343.787 1367.77 329.521Z" fill="url(#paint20_radial_1332_17193)"/>
<path d="M1369.24 333.2L1369.61 334.808C1282.93 354.39 1221.37 456.067 1182.61 530.865C1168.88 557.367 1158.38 580.777 1150.49 602.476C1147.83 609.803 1145.36 617.268 1142.75 625.171C1141.75 628.194 1140.74 631.241 1139.72 634.283C1133.22 653.867 1124.87 676.135 1109.1 692.75C1096.13 706.425 1081.64 709.533 1066.1 701.975C1056.93 697.519 1048.49 691.25 1042.15 686.288C1036.99 682.242 1031.9 678.178 1026.85 674.153C1010.31 660.968 994.695 648.504 978.228 637.705C943.521 614.883 903.797 614.462 874.573 636.609C859.428 648.096 845.938 665.181 832.152 690.371C828.274 697.506 824.774 705.256 821.357 712.767C813.437 730.265 805.209 748.376 791.755 760.014C786.608 764.425 780.797 767.996 774.536 770.594C754.871 778.886 730.707 778.591 709.668 777.205C701.332 776.659 693.042 775.566 684.851 773.931C663.736 769.769 643.124 765.963 622.996 765.143C607.926 764.458 592.826 764.83 577.807 766.258C553.915 768.591 519.3 775.322 490.067 794.148L489.171 792.77C518.687 773.765 553.564 766.946 577.653 764.625C592.743 763.179 607.914 762.794 623.057 763.473C643.3 764.302 663.984 768.135 685.161 772.3C693.295 773.915 701.527 774.991 709.803 775.522C730.612 776.911 754.562 777.201 773.889 769.053C779.992 766.521 785.658 763.043 790.678 758.748C803.877 747.326 811.999 729.404 819.851 712.068C823.26 704.54 826.782 696.75 830.696 689.558C844.594 664.127 858.213 646.882 873.577 635.276C903.384 612.725 943.809 613.09 979.117 636.305C995.659 647.181 1011.3 659.654 1027.9 672.85C1032.95 676.875 1038.05 680.917 1043.2 684.976C1049.45 689.895 1057.82 696.095 1066.84 700.479C1081.68 707.682 1095.5 704.695 1107.94 691.592C1123.47 675.226 1131.72 653.135 1138.21 633.724C1139.24 630.681 1140.25 627.648 1141.24 624.624C1143.86 616.709 1146.37 609.208 1149 601.88C1156.89 580.173 1167.39 556.66 1181.16 530.098C1208.67 477.016 1233.73 437.959 1260.04 407.186C1294.72 366.627 1331.46 341.726 1369.24 333.2Z" fill="url(#paint21_radial_1332_17193)"/>
<path d="M1370.71 336.847L1371.11 338.441C1292.73 358.38 1234.78 445.696 1186.64 526.044C1171.04 552.076 1160.29 572.045 1151.78 590.798C1148.28 598.495 1145 606.401 1141.52 614.776L1139.5 619.617C1132 637.58 1122.7 658.02 1107.08 673.297C1094.23 685.871 1080.13 688.986 1065.17 682.555C1058.02 679.489 1050.75 675.341 1041.59 669.098L1032.65 663.003C1014.19 650.367 996.736 638.441 978.645 628.286C944.661 609.247 906.796 611.13 879.824 633.196C861.012 648.588 847.429 671.308 837.703 689.381C833.957 696.386 830.49 703.919 827.143 711.207C818.772 729.423 810.108 748.265 796.192 760.687C791 765.278 785.156 769.076 778.852 771.957C762.277 779.615 740.642 782.349 712.7 780.297C704.161 779.687 695.686 778.388 687.356 776.415C667.688 771.82 645.401 766.606 624.551 764.59C609.228 763.015 593.809 762.581 578.421 763.289C543.262 765.006 511.262 774.463 488.341 789.931L487.424 788.572C510.601 772.959 542.897 763.398 578.352 761.668C593.818 760.961 609.315 761.397 624.717 762.974C645.665 765.005 668.009 770.234 687.726 774.847C695.971 776.796 704.36 778.083 712.811 778.695C740.471 780.723 761.846 778.037 778.153 770.5C784.308 767.679 790.012 763.962 795.077 759.468C808.705 747.258 817.329 728.595 825.637 710.528C828.996 703.225 832.464 695.671 836.233 688.605C846.039 670.395 859.734 647.503 878.755 631.926C906.259 609.408 944.846 607.471 979.428 626.853C997.596 637.044 1015.1 648.989 1033.59 661.654L1042.5 667.699C1051.57 673.873 1058.75 677.98 1065.79 681.002C1080.08 687.143 1093.58 684.14 1105.92 672.081C1121.3 657.062 1130.54 636.762 1137.96 618.945L1139.97 614.104C1143.46 605.725 1146.72 597.822 1150.27 590.07C1158.82 571.26 1169.6 551.239 1185.23 525.151C1233.55 444.609 1291.71 356.944 1370.71 336.847Z" fill="url(#paint22_radial_1332_17193)"/>
<path d="M1372.19 340.553L1372.64 342.132C1300.65 362.603 1247.81 438.903 1201.17 506.143C1197.62 511.253 1194.13 516.299 1190.69 521.233C1177.74 539.765 1164.18 559.494 1153.02 579.143C1148.54 587.073 1144.28 595.188 1139.23 604.97C1130.38 622.07 1120.46 639.951 1105.06 653.848C1092.35 665.322 1078.61 668.452 1064.23 663.128C1056.19 660.052 1048.43 656.304 1041.02 651.924C1020.08 639.891 999.604 628.337 979.034 618.919C945.36 603.53 910.212 607.61 885.026 629.835C867.267 645.506 854.43 667.264 843.213 688.44C839.631 695.25 836.262 702.487 833.005 709.482C824.146 728.493 814.991 748.162 800.589 761.428C795.344 766.194 789.464 770.21 783.116 773.363C761.145 784.4 734.322 784.935 715.692 783.437C706.951 782.742 698.293 781.237 689.83 778.944L686.01 777.92C665.235 772.304 645.599 766.979 626.104 764.059C610.537 761.585 594.801 760.325 579.038 760.289C557.898 760.35 517.809 763.713 486.592 785.643L485.65 784.295C517.226 762.112 557.732 758.692 579.029 758.641C594.881 758.671 610.706 759.935 626.361 762.421C645.966 765.382 666.512 770.961 686.451 776.31L690.274 777.342C698.64 779.617 707.2 781.105 715.843 781.787C734.272 783.265 760.773 782.754 782.378 771.842C788.592 768.753 794.344 764.811 799.468 760.131C813.638 747.112 822.722 727.596 831.514 708.726C834.78 701.706 838.162 694.453 841.762 687.615C853.054 666.294 865.995 644.409 883.938 628.543C909.615 605.844 945.451 601.725 979.686 617.375C1000.31 626.798 1020.84 638.4 1041.8 650.45C1049.13 654.789 1056.81 658.502 1064.76 661.55C1078.51 666.644 1091.68 663.628 1103.92 652.592C1119.1 638.872 1128.93 621.126 1137.72 604.18C1142.79 594.391 1147.01 586.262 1151.54 578.301C1162.72 558.579 1176.32 538.814 1189.29 520.254C1192.75 515.331 1196.24 510.304 1199.77 505.172C1246.61 437.705 1299.64 361.188 1372.19 340.553Z" fill="url(#paint23_radial_1332_17193)"/>
<path d="M1373.66 344.222L1374.15 345.79C1312.83 365.248 1264.62 427.201 1222.09 481.858C1212.61 494.036 1203.66 505.541 1194.71 516.412L1188.88 523.48C1176.44 538.58 1164.68 552.836 1154.24 567.496C1149.75 573.798 1145.03 580.839 1138.94 590.326C1128.6 606.452 1118.06 621.939 1103.03 634.391C1090.45 644.797 1077.09 647.929 1063.31 643.705C1055.5 641.246 1047.88 638.243 1040.49 634.719C1017.38 623.942 997.996 615.935 979.479 609.518C946.714 598.141 913.368 604.489 890.276 626.442C872.587 643.271 859.575 666.76 848.772 687.467C845.398 693.981 842.167 700.833 839.048 707.464C829.665 727.367 819.976 747.953 805.015 762.096C799.726 767.056 793.817 771.311 787.435 774.754C769.196 784.637 744.795 788.833 718.739 786.563C709.784 785.792 700.936 784.077 692.343 781.444L683.244 778.668C664.009 772.779 645.816 767.234 627.667 763.503C611.853 760.147 595.793 758.074 579.644 757.304C542.43 755.769 507.895 764.57 484.843 781.396L483.879 780.068C507.208 763.006 542.133 754.11 579.692 755.671C595.933 756.443 612.085 758.532 627.988 761.917C646.244 765.64 665.293 771.472 683.712 777.116L692.81 779.893C701.291 782.488 710.023 784.178 718.86 784.937C744.613 787.183 768.682 783.056 786.636 773.322C792.899 769.956 798.695 765.786 803.877 760.918C818.604 746.991 828.234 726.543 837.542 706.785C840.674 700.139 843.905 693.266 847.296 686.724C858.17 665.905 871.257 642.27 889.13 625.268C912.682 602.885 946.641 596.421 980.012 607.978C998.581 614.42 1018.01 622.45 1041.17 633.245C1048.49 636.741 1056.04 639.72 1063.78 642.162C1077.02 646.25 1089.86 643.192 1101.98 633.154C1116.83 620.864 1127.28 605.485 1137.55 589.475C1143.66 579.96 1148.39 572.903 1152.89 566.573C1163.38 551.865 1175.14 537.585 1187.61 522.474L1193.43 515.405C1202.36 504.537 1211.31 493.041 1220.78 480.866C1263.47 425.998 1311.84 363.829 1373.66 344.222Z" fill="url(#paint24_radial_1332_17193)"/>
<path d="M1375.13 347.901L1375.67 349.459C1323.1 367.99 1281.43 416.825 1241.13 464.048C1226.48 481.204 1212.64 497.409 1198.73 511.61C1193.72 516.729 1188.71 521.725 1183.87 526.546C1173.81 536.578 1164.33 546.085 1155.42 555.878C1150.06 561.842 1144.54 568.351 1138.62 575.723C1128.27 588.624 1116.54 603.254 1100.92 614.944C1088.48 624.3 1075.49 627.454 1062.3 624.281C1054.71 622.434 1047.22 620.181 1039.86 617.532C1020.24 610.571 1000.21 604.77 979.902 600.159C947.687 592.786 916.914 601.144 895.516 623.076C878.785 640.217 866.48 662.863 854.321 686.521C851.205 692.626 848.175 698.984 845.255 705.142C835.311 726.055 825.022 747.677 809.442 762.816C804.101 767.962 798.158 772.444 791.742 776.164C772.532 787.312 747.684 792.123 721.762 789.682C712.594 788.834 703.557 786.912 694.838 783.955C690.091 782.374 685.383 780.769 680.715 779.139C663.713 773.307 646.118 767.28 629.23 762.969C613.174 758.708 596.787 755.81 580.243 754.305C541.815 751.092 506.403 759.422 483.087 777.093L482.086 775.793C505.712 757.83 541.532 749.396 580.37 752.625C597.016 754.142 613.505 757.051 629.664 761.322C646.638 765.644 664.249 771.684 681.267 777.529C685.923 779.221 690.678 780.819 695.367 782.406C703.967 785.324 712.881 787.221 721.924 788.057C747.499 790.444 771.999 785.709 790.914 774.734C797.216 771.08 803.052 766.677 808.297 761.621C823.663 746.7 833.88 725.21 843.762 704.427C846.699 698.261 849.722 691.886 852.85 685.765C865.08 661.995 877.447 639.22 894.34 621.925C916.183 599.55 947.517 591.028 980.295 598.531C1000.69 603.169 1020.79 609.002 1040.49 615.999C1047.79 618.628 1055.22 620.863 1062.75 622.696C1075.62 625.783 1087.81 622.828 1099.99 613.651C1115.39 602.072 1127.05 587.525 1137.33 574.692C1143.27 567.291 1148.78 560.786 1154.2 554.778C1163.08 544.936 1172.6 535.442 1182.68 525.403C1187.54 520.562 1192.52 515.589 1197.53 510.482C1211.43 496.293 1225.23 480.124 1239.84 462.996C1280.32 415.594 1322.13 366.592 1375.13 347.901Z" fill="url(#paint25_radial_1332_17193)"/>
<path d="M1376.59 351.581L1377.17 353.071C1332.03 370.722 1294.67 411.35 1258.58 450.621C1239.44 471.44 1221.37 491.102 1202.72 506.763C1195.19 513.103 1187.67 519.062 1180.4 524.829C1172.07 531.427 1164.2 537.668 1156.64 544.184C1150.28 549.638 1144.3 555.146 1138.33 561.03L1135.75 563.629C1124.73 574.519 1113.33 585.781 1098.96 595.514C1086.67 603.848 1074.05 606.996 1061.46 604.869C1054.07 603.618 1046.66 602.106 1039.42 600.351C1016.73 594.874 995.953 592.344 980.396 590.776C949.341 587.593 920.315 598.144 900.763 619.745C883.722 638.538 871.057 663.553 859.872 685.601C857.087 691.143 854.336 696.872 851.671 702.41C841.102 724.482 830.167 747.304 813.865 763.546C808.47 768.888 802.487 773.603 796.03 777.599C776.244 789.834 750.277 795.403 724.787 792.868C715.405 791.941 706.181 789.811 697.344 786.529C691.036 784.193 684.742 781.801 678.485 779.422C662.763 773.434 646.519 767.25 630.794 762.483C612.39 756.872 596.051 753.24 580.855 751.357C541.796 746.545 504.601 754.614 481.347 772.932L480.329 771.64C504.263 752.752 540.989 744.784 581.058 749.734C596.373 751.613 612.803 755.265 631.26 760.882C647.036 765.675 663.313 771.865 679.059 777.862C685.317 780.241 691.598 782.629 697.903 784.956C706.605 788.19 715.687 790.293 724.925 791.213C750.055 793.71 775.649 788.229 795.136 776.179C801.483 772.253 807.365 767.622 812.67 762.373C828.766 746.326 839.63 723.636 850.145 701.69C852.807 696.143 855.563 690.402 858.364 684.873C869.571 662.674 882.336 637.592 899.508 618.64C919.423 596.663 948.958 585.923 980.538 589.15C996.159 590.75 1017.02 593.295 1039.79 598.791C1047.01 600.566 1054.37 602.043 1061.72 603.281C1074.05 605.365 1085.93 602.406 1098.03 594.184C1112.26 584.54 1123.61 573.334 1134.59 562.529L1137.18 559.978C1143.18 554.071 1149.14 548.525 1155.57 543.054C1163.16 536.518 1171.04 530.273 1179.38 523.66C1186.64 517.896 1194.15 511.941 1201.67 505.625C1220.25 489.957 1238.28 470.315 1257.39 449.576C1293.62 410.134 1331.12 369.36 1376.59 351.581Z" fill="url(#paint26_radial_1332_17193)"/>
<path d="M1378.05 355.262L1378.73 356.759C1340.02 373.513 1306.84 407.526 1274.75 440.414C1251.7 464.041 1229.92 486.366 1206.77 501.98C1197.14 508.482 1187.53 514.298 1178.23 519.925C1171.11 524.235 1164.45 528.284 1157.86 532.557C1150.61 537.244 1144.13 541.789 1138.05 546.415C1135.62 548.268 1133.19 550.155 1130.72 552.056C1120.31 560.122 1109.55 568.458 1096.97 576.033C1084.63 583.466 1072.74 586.539 1060.6 585.428C1054.56 584.866 1046.64 584.107 1038.94 583.135C1018.03 580.501 998.691 580.726 980.896 581.32C963.421 581.909 930.46 587.236 906.005 616.315C890.05 635.281 878.561 658.304 866.39 682.673L865.418 684.603C863.045 689.385 860.702 694.233 858.389 699.058C847.114 722.488 835.454 746.716 818.311 764.215C812.871 769.749 806.856 774.686 800.367 778.941C779.808 792.433 753.377 798.626 727.86 795.941C718.258 794.941 708.843 792.603 699.89 788.994C692.084 785.865 684.214 782.573 676.591 779.381C662.048 773.303 647.016 767.014 632.391 761.891C613.213 755.149 597.048 750.833 581.495 748.316C541.26 741.819 503.193 749.406 479.632 768.629L478.592 767.356C502.505 747.843 541.068 740.103 581.76 746.695C597.407 749.22 613.666 753.564 632.941 760.342C647.594 765.483 662.658 771.778 677.217 777.868C684.824 781.047 692.694 784.339 700.5 787.489C709.314 791.031 718.58 793.328 728.03 794.312C753.175 796.954 779.216 790.857 799.467 777.575C805.84 773.378 811.751 768.519 817.101 763.079C834.048 745.77 845.654 721.667 856.875 698.363C859.21 693.518 861.561 688.666 863.917 683.892L864.885 681.953C876.55 658.538 888.638 634.388 904.715 615.266C929.57 585.714 963.053 580.292 980.799 579.701C998.544 579.11 1018.1 578.901 1039.09 581.547C1046.76 582.501 1054.65 583.263 1060.7 583.862C1072.48 584.951 1084.04 581.972 1096.08 574.721C1108.58 567.184 1119.31 558.883 1129.64 550.864C1132.13 548.938 1134.57 547.057 1136.97 545.218C1143.1 540.553 1149.61 535.997 1156.88 531.286C1163.49 526.997 1170.23 522.919 1177.3 518.632C1186.57 513.008 1196.17 507.187 1205.76 500.721C1228.78 485.191 1250.49 462.934 1273.49 439.371C1305.75 406.276 1339.05 372.14 1378.05 355.262Z" fill="url(#paint27_radial_1332_17193)"/>
<path d="M1380.23 360.432C1347.18 376.238 1317.97 404.821 1289.72 432.471C1263.28 458.346 1238.29 482.801 1210.72 497.176C1199.39 503.086 1188.04 508.05 1177.05 512.86C1170.81 515.593 1164.91 518.172 1159 520.914C1150.81 524.722 1144.04 528.187 1137.71 531.784C1132.64 534.674 1127.63 537.685 1122.32 540.861C1113.66 546.061 1104.69 551.446 1094.92 556.603C1082.71 563.042 1071.2 566.114 1059.69 565.989C1055.31 565.955 1051.05 565.938 1046.89 565.945C1044.03 565.941 1041.22 565.943 1038.43 565.926C1017.83 565.819 998.835 568.72 981.371 571.894C961.1 575.572 932.478 585.678 911.23 612.933C896.269 632.135 884.727 655.645 873.538 678.35L870.94 683.616C869.096 687.383 867.296 691.159 865.443 694.95C853.36 720.004 840.858 745.913 822.703 764.897C817.207 770.632 811.152 775.805 804.628 780.338C783.047 795.155 756.891 801.795 730.858 799.068C721.036 797.981 711.432 795.43 702.366 791.501C693.205 787.584 683.942 783.33 674.993 779.256C661.506 773.105 647.561 766.746 633.95 761.346C614.284 753.525 597.815 748.47 582.097 745.322C540.707 737.141 501.767 744.247 477.878 764.394L476.825 763.136C501.067 742.679 540.548 735.43 582.426 743.733C598.227 746.863 614.796 751.983 634.559 759.841C648.216 765.251 662.176 771.623 675.684 777.775C684.591 781.867 693.865 786.056 703.02 790.006C711.94 793.88 721.389 796.398 731.055 797.477C756.696 800.164 782.458 793.623 803.714 779.029C810.146 774.561 816.116 769.464 821.537 763.812C839.511 745.031 851.947 719.243 863.98 694.302C865.813 690.51 867.65 686.727 869.49 682.952L872.076 677.681C883.29 654.874 894.876 631.284 909.941 611.954C926.759 590.371 952.021 575.578 981.071 570.317C998.613 567.137 1017.71 564.203 1038.43 564.319C1041.21 564.332 1044.02 564.33 1046.89 564.334C1051.05 564.328 1055.32 564.341 1059.7 564.374C1070.92 564.496 1082.19 561.493 1094.15 555.176C1103.92 550.023 1112.84 544.71 1121.47 539.485C1126.79 536.301 1131.78 533.301 1136.89 530.392C1143.31 526.745 1150.08 523.276 1158.32 519.449C1164.24 516.699 1170.14 514.101 1176.41 511.377C1187.35 506.59 1198.69 501.629 1209.98 495.75C1237.35 481.475 1262.23 457.109 1288.59 431.321C1316.93 403.577 1346.24 374.891 1379.52 358.95L1380.23 360.432Z" fill="url(#paint28_radial_1332_17193)"/>
<path d="M1381.76 364.096C1353.76 378.878 1328.35 402.927 1303.78 426.183C1274.43 453.971 1246.7 480.219 1214.72 492.368C1202.01 497.19 1189.21 500.882 1176.81 504.387C1171.32 505.962 1165.64 507.583 1160.17 509.253C1151.21 511.988 1143.96 514.502 1137.35 517.159C1127.53 521.098 1117.74 525.654 1107.37 530.476C1102.64 532.676 1097.82 534.93 1092.86 537.171C1080.75 542.652 1069.59 545.733 1058.8 546.536C1051.56 547.098 1044.64 547.898 1037.96 548.696C1016.65 551.191 997.638 557.05 981.855 562.447C962.822 568.95 936.038 582.406 916.472 609.546C902.446 628.99 891.334 652.023 880.568 674.305L876.509 682.691L873.048 689.859C860.016 716.914 846.537 744.897 827.143 765.621C821.595 771.549 815.505 776.945 808.952 781.74C787.022 797.705 759.682 805.186 733.909 802.203C723.864 801.032 714.069 798.268 704.895 794.016C694.457 789.216 683.945 784.026 673.775 779.013C661.225 772.82 648.242 766.38 635.541 760.809C615.387 751.909 598.617 746.033 582.747 742.37C549.898 734.708 504.657 735.373 476.165 760.162L475.091 758.925C504.022 733.746 549.878 733.015 583.122 740.769C599.101 744.494 615.973 750.395 636.219 759.344C648.963 764.965 661.952 771.373 674.521 777.567C684.671 782.579 695.18 787.76 705.597 792.56C714.613 796.739 724.239 799.453 734.111 800.6C759.471 803.538 786.407 796.19 807.995 780.449C814.477 775.713 820.502 770.38 825.99 764.52C845.204 743.979 858.625 716.112 871.608 689.17L875.073 681.99C876.431 679.199 877.782 676.405 879.124 673.608C889.917 651.273 901.077 628.168 915.181 608.608C934.999 581.113 962.106 567.501 981.355 560.919C997.223 555.485 1016.33 549.601 1037.77 547.09C1044.47 546.314 1051.43 545.482 1058.7 544.925C1069.35 544.138 1080.31 541.077 1092.24 535.671C1097.19 533.43 1102.01 531.18 1106.74 528.98C1117.12 524.151 1126.93 519.583 1136.79 515.626C1143.45 512.949 1150.74 510.425 1159.75 507.671C1165.23 505.998 1170.92 504.373 1176.41 502.802C1188.76 499.282 1201.54 495.63 1214.18 490.827C1245.86 478.794 1273.51 452.641 1302.7 424.99C1327.35 401.656 1352.85 377.528 1381.04 362.638L1381.76 364.096Z" fill="url(#paint29_radial_1332_17193)"/>
<path d="M1383.27 367.735C1359.81 381.373 1338.05 401.594 1317 421.124C1286.59 449.319 1255.13 478.48 1218.68 487.522C1204.9 490.946 1190.93 493.023 1177.39 495.116C1172.11 495.902 1166.66 496.718 1161.37 497.586C1151.59 499.2 1144.08 500.722 1137.05 502.541C1121.25 506.548 1105.52 512.23 1090.87 517.778C1080.22 521.957 1069.19 525.105 1057.93 527.178C1050.71 528.431 1043.81 530.017 1037.45 531.546C1019.91 535.843 1002.4 542.685 982.36 553.07C956.801 566.315 936.408 584.205 921.742 606.246C908.593 625.868 897.859 648.488 887.472 670.316C885.663 674.131 883.85 677.937 882.033 681.735L881.315 683.178C867.141 712.766 852.497 743.412 831.535 766.306C825.93 772.433 819.799 778.059 813.214 783.118C790.684 800.363 762.868 808.441 736.912 805.3C726.637 804.054 716.647 801.078 707.367 796.497C695.59 790.74 683.791 784.489 672.347 778.421C660.903 772.353 648.844 765.927 637.089 760.241C616.361 750.23 599.247 743.593 583.354 739.366C549.658 730.324 503.337 729.916 474.4 755.904L473.301 754.678C502.732 728.265 549.667 728.627 583.773 737.776C599.806 742.021 616.95 748.725 637.835 758.816C649.609 764.523 661.577 770.879 673.145 777.022C684.714 783.165 696.371 789.369 708.117 795.079C717.228 799.579 727.036 802.501 737.126 803.722C762.706 806.792 790.044 798.838 812.232 781.839C818.743 776.841 824.802 771.282 830.34 765.224C851.134 742.517 865.74 712.009 879.85 682.501L880.556 681.032C882.379 677.232 884.19 673.43 885.991 669.626C896.389 647.712 907.154 625.048 920.318 605.258C935.14 582.985 955.742 564.909 981.545 551.534C1001.71 541.093 1019.33 534.21 1037 529.873C1043.37 528.353 1050.32 526.74 1057.6 525.484C1068.75 523.428 1079.68 520.307 1090.23 516.163C1104.93 510.605 1120.71 504.904 1136.6 500.872C1143.69 499.075 1151.23 497.551 1161.06 495.922C1166.38 495.047 1171.85 494.228 1177.08 493.452C1190.59 491.436 1204.53 489.35 1218.23 485.923C1254.27 476.975 1285.56 447.968 1315.83 419.907C1336.95 400.327 1358.79 380.08 1382.4 366.308L1383.27 367.735Z" fill="url(#paint30_radial_1332_17193)"/>
<path d="M1384.8 371.39C1365.46 383.835 1347.15 400.689 1329.47 416.971C1297.13 446.715 1263.71 477.513 1222.66 482.667C1208.28 484.469 1193.56 484.881 1179.32 485.275C1173.8 485.436 1168.1 485.597 1162.52 485.821C1152.45 486.224 1144.24 486.835 1136.67 487.762C1120.43 489.856 1104.41 493.359 1088.78 498.231L1085.1 499.351C1075.86 502.157 1066.32 505.063 1057 507.636C1050.79 509.347 1044.21 511.497 1036.9 514.213C1018.56 521.056 1000.86 530.635 982.782 543.508C960.344 559.277 941.343 579.439 926.933 602.769C914.787 622.602 904.454 644.729 894.458 666.128C892.176 671.023 889.889 675.904 887.594 680.771C871.863 714.025 857.122 743.476 835.982 767.025C830.326 773.37 824.159 779.24 817.542 784.576C794.445 803.085 766.165 811.786 739.972 808.5C729.476 807.166 719.301 803.979 709.92 799.09C697.2 792.54 684.43 785.278 672.085 778.267C661.152 772.058 649.849 765.633 638.701 759.774C617.537 748.64 600.145 741.212 583.983 736.391C531.145 720.551 490.996 734.722 472.666 751.67L471.545 750.463C484.412 738.597 502.478 731.07 523.831 728.737C542.885 726.627 564.416 728.787 584.44 734.793C600.737 739.624 618.184 747.108 639.421 758.289C650.593 764.158 661.908 770.587 672.845 776.805C685.19 783.816 697.94 791.057 710.628 797.601C719.836 802.402 729.824 805.53 740.127 806.838C765.882 810.07 793.706 801.474 816.467 783.269C823.011 777.999 829.115 772.205 834.717 765.944C855.699 742.558 870.348 713.239 886.06 680.074C888.37 675.213 890.658 670.34 892.923 665.452C902.937 644.004 913.292 621.838 925.482 601.924C940.012 578.41 959.167 558.089 981.785 542.195C999.985 529.237 1017.82 519.589 1036.28 512.697C1043.65 509.967 1050.27 507.799 1056.53 506.077C1065.83 503.511 1075.35 500.588 1084.58 497.802L1088.26 496.691C1103.99 491.777 1120.11 488.249 1136.45 486.147C1144.09 485.202 1152.33 484.588 1162.44 484.186C1168.02 483.95 1173.73 483.793 1179.25 483.633C1193.46 483.254 1208.12 482.836 1222.43 481.039C1262.95 475.951 1296.18 445.351 1328.32 415.768C1346.12 399.404 1364.44 382.522 1383.89 369.994L1384.8 371.39Z" fill="url(#paint31_radial_1332_17193)"/>
<path d="M1386.33 375.04C1370.7 386.138 1355.67 400.091 1341.14 413.569C1307.35 444.912 1272.41 477.324 1226.62 477.824C1211.5 477.995 1195.87 476.7 1180.74 475.464C1166.08 474.264 1150.95 473.017 1136.32 473.096C1051.41 473.56 976.991 519.607 932.157 599.409C921.062 619.159 911.208 640.606 901.706 661.338C880.476 707.55 858.539 755.32 821.858 785.939C787.752 814.406 746.859 820.248 712.459 801.559C698.855 794.17 685.223 785.917 672 777.943C643.767 760.878 614.579 743.238 584.628 733.359C550.707 722.192 500.6 719.163 470.93 747.387L469.797 746.196C500.021 717.46 550.819 720.478 585.132 731.8C615.262 741.74 644.535 759.433 672.847 776.542C686.03 784.515 699.666 792.755 713.23 800.122C725.888 807.002 771.053 826.202 820.808 784.711C857.192 754.347 879.069 706.735 900.223 660.689C909.767 639.917 919.635 618.434 930.757 598.632C975.9 518.287 1050.85 471.936 1136.33 471.481C1151.03 471.401 1166.21 472.654 1180.89 473.855C1195.97 475.093 1211.57 476.382 1226.62 476.213C1271.76 475.725 1306.48 443.535 1340.04 412.404C1354.61 398.878 1369.67 384.89 1385.39 373.751L1386.33 375.04Z" fill="url(#paint32_radial_1332_17193)"/>
<circle cx="945" cy="647" r="294" fill="url(#paint33_radial_1332_17193)"/>
<circle cx="945" cy="647" r="294" fill="url(#paint34_radial_1332_17193)"/>
<circle cx="945" cy="647" r="294" fill="url(#paint35_radial_1332_17193)"/>
<circle cx="945" cy="647" r="294" fill="url(#paint36_radial_1332_17193)"/>
</g>
<defs>
<radialGradient id="paint0_radial_1332_17193" cx="0" cy="0" r="1" gradientUnits="userSpaceOnUse" gradientTransform="translate(1009.69 755.058) rotate(-24.3398) scale(495.12 54.3913)">
<stop stop-color="white"/>
<stop offset="1" stop-color="white" stop-opacity="0"/>
</radialGradient>
<radialGradient id="paint1_radial_1332_17193" cx="0" cy="0" r="1" gradientUnits="userSpaceOnUse" gradientTransform="translate(1005.97 746.003) rotate(-24.3398) scale(495.175 56.1985)">
<stop stop-color="white"/>
<stop offset="1" stop-color="white" stop-opacity="0"/>
</radialGradient>
<radialGradient id="paint2_radial_1332_17193" cx="0" cy="0" r="1" gradientUnits="userSpaceOnUse" gradientTransform="translate(1003.86 740.507) rotate(-24.3398) scale(495.221 62.9808)">
<stop stop-color="white"/>
<stop offset="1" stop-color="white" stop-opacity="0"/>
</radialGradient>
<radialGradient id="paint3_radial_1332_17193" cx="0" cy="0" r="1" gradientUnits="userSpaceOnUse" gradientTransform="translate(1001.92 735.315) rotate(-24.3398) scale(495.295 70.0957)">
<stop stop-color="white"/>
<stop offset="1" stop-color="white" stop-opacity="0"/>
</radialGradient>
<radialGradient id="paint4_radial_1332_17193" cx="0" cy="0" r="1" gradientUnits="userSpaceOnUse" gradientTransform="translate(1000.05 730.249) rotate(-24.3398) scale(495.387 77.6333)">
<stop stop-color="white"/>
<stop offset="1" stop-color="white" stop-opacity="0"/>
</radialGradient>
<radialGradient id="paint5_radial_1332_17193" cx="0" cy="0" r="1" gradientUnits="userSpaceOnUse" gradientTransform="translate(998.196 725.245) rotate(-24.3398) scale(495.469 85.3532)">
<stop stop-color="white"/>
<stop offset="1" stop-color="white" stop-opacity="0"/>
</radialGradient>
<radialGradient id="paint6_radial_1332_17193" cx="0" cy="0" r="1" gradientUnits="userSpaceOnUse" gradientTransform="translate(996.35 720.25) rotate(-24.3398) scale(495.552 93.222)">
<stop stop-color="white"/>
<stop offset="1" stop-color="white" stop-opacity="0"/>
</radialGradient>
<radialGradient id="paint7_radial_1332_17193" cx="0" cy="0" r="1" gradientUnits="userSpaceOnUse" gradientTransform="translate(994.521 715.281) rotate(-24.3398) scale(495.639 101.105)">
<stop stop-color="white"/>
<stop offset="1" stop-color="white" stop-opacity="0"/>
</radialGradient>
<radialGradient id="paint8_radial_1332_17193" cx="0" cy="0" r="1" gradientUnits="userSpaceOnUse" gradientTransform="translate(992.675 710.308) rotate(-24.3398) scale(495.722 109.07)">
<stop stop-color="white"/>
<stop offset="1" stop-color="white" stop-opacity="0"/>
</radialGradient>
<radialGradient id="paint9_radial_1332_17193" cx="0" cy="0" r="1" gradientUnits="userSpaceOnUse" gradientTransform="translate(990.849 705.347) rotate(-24.3398) scale(495.809 117.074)">
<stop stop-color="white"/>
<stop offset="1" stop-color="white" stop-opacity="0"/>
</radialGradient>
<radialGradient id="paint10_radial_1332_17193" cx="0" cy="0" r="1" gradientUnits="userSpaceOnUse" gradientTransform="translate(989.022 700.438) rotate(-24.3398) scale(495.901 125.117)">
<stop stop-color="white"/>
<stop offset="1" stop-color="white" stop-opacity="0"/>
</radialGradient>
<radialGradient id="paint11_radial_1332_17193" cx="0" cy="0" r="1" gradientUnits="userSpaceOnUse" gradientTransform="translate(987.169 695.42) rotate(-24.3398) scale(495.988 133.114)">
<stop stop-color="white"/>
<stop offset="1" stop-color="white" stop-opacity="0"/>
</radialGradient>
<radialGradient id="paint12_radial_1332_17193" cx="0" cy="0" r="1" gradientUnits="userSpaceOnUse" gradientTransform="translate(985.325 690.475) rotate(-24.3398) scale(496.08 141.189)">
<stop stop-color="white"/>
<stop offset="1" stop-color="white" stop-opacity="0"/>
</radialGradient>
<radialGradient id="paint13_radial_1332_17193" cx="0" cy="0" r="1" gradientUnits="userSpaceOnUse" gradientTransform="translate(983.525 685.535) rotate(-24.3398) scale(496.144 149.282)">
<stop stop-color="white"/>
<stop offset="1" stop-color="white" stop-opacity="0"/>
</radialGradient>
<radialGradient id="paint14_radial_1332_17193" cx="0" cy="0" r="1" gradientUnits="userSpaceOnUse" gradientTransform="translate(981.68 680.567) rotate(-24.3398) scale(496.236 157.306)">
<stop stop-color="white"/>
<stop offset="1" stop-color="white" stop-opacity="0"/>
</radialGradient>
<radialGradient id="paint15_radial_1332_17193" cx="0" cy="0" r="1" gradientUnits="userSpaceOnUse" gradientTransform="translate(979.902 675.644) rotate(-24.3398) scale(496.277 165.414)">
<stop stop-color="white"/>
<stop offset="1" stop-color="white" stop-opacity="0"/>
</radialGradient>
<radialGradient id="paint16_radial_1332_17193" cx="0" cy="0" r="1" gradientUnits="userSpaceOnUse" gradientTransform="translate(978.022 670.641) rotate(-24.3398) scale(496.397 173.471)">
<stop stop-color="white"/>
<stop offset="1" stop-color="white" stop-opacity="0"/>
</radialGradient>
<radialGradient id="paint17_radial_1332_17193" cx="0" cy="0" r="1" gradientUnits="userSpaceOnUse" gradientTransform="translate(975.047 664.155) rotate(-24.3398) scale(496.25 161.493)">
<stop stop-color="white"/>
<stop offset="1" stop-color="white" stop-opacity="0"/>
</radialGradient>
<radialGradient id="paint18_radial_1332_17193" cx="0" cy="0" r="1" gradientUnits="userSpaceOnUse" gradientTransform="translate(972.128 657.712) rotate(-24.3398) scale(496.089 149.489)">
<stop stop-color="white"/>
<stop offset="1" stop-color="white" stop-opacity="0"/>
</radialGradient>
<radialGradient id="paint19_radial_1332_17193" cx="0" cy="0" r="1" gradientUnits="userSpaceOnUse" gradientTransform="translate(969.152 651.221) rotate(-24.3398) scale(495.951 137.438)">
<stop stop-color="white"/>
<stop offset="1" stop-color="white" stop-opacity="0"/>
</radialGradient>
<radialGradient id="paint20_radial_1332_17193" cx="0" cy="0" r="1" gradientUnits="userSpaceOnUse" gradientTransform="translate(966.203 644.668) rotate(-24.3398) scale(495.763 125.483)">
<stop stop-color="white"/>
<stop offset="1" stop-color="white" stop-opacity="0"/>
</radialGradient>
<radialGradient id="paint21_radial_1332_17193" cx="0" cy="0" r="1" gradientUnits="userSpaceOnUse" gradientTransform="translate(963.23 638.197) rotate(-24.3398) scale(495.63 113.531)">
<stop stop-color="white"/>
<stop offset="1" stop-color="white" stop-opacity="0"/>
</radialGradient>
<radialGradient id="paint22_radial_1332_17193" cx="0" cy="0" r="1" gradientUnits="userSpaceOnUse" gradientTransform="translate(960.232 631.603) rotate(-24.3398) scale(495.478 101.632)">
<stop stop-color="white"/>
<stop offset="1" stop-color="white" stop-opacity="0"/>
</radialGradient>
<radialGradient id="paint23_radial_1332_17193" cx="0" cy="0" r="1" gradientUnits="userSpaceOnUse" gradientTransform="translate(957.223 624.997) rotate(-24.3398) scale(495.313 89.7611)">
<stop stop-color="white"/>
<stop offset="1" stop-color="white" stop-opacity="0"/>
</radialGradient>
<radialGradient id="paint24_radial_1332_17193" cx="0" cy="0" r="1" gradientUnits="userSpaceOnUse" gradientTransform="translate(954.204 618.377) rotate(-24.3398) scale(495.162 77.9247)">
<stop stop-color="white"/>
<stop offset="1" stop-color="white" stop-opacity="0"/>
</radialGradient>
<radialGradient id="paint25_radial_1332_17193" cx="0" cy="0" r="1" gradientUnits="userSpaceOnUse" gradientTransform="translate(954.959 620.102) rotate(-24.3398) scale(495.01 75.3888)">
<stop stop-color="white"/>
<stop offset="1" stop-color="white" stop-opacity="0"/>
</radialGradient>
<radialGradient id="paint26_radial_1332_17193" cx="0" cy="0" r="1" gradientUnits="userSpaceOnUse" gradientTransform="translate(956.512 623.625) rotate(-24.3398) scale(494.863 74.9331)">
<stop stop-color="white"/>
<stop offset="1" stop-color="white" stop-opacity="0"/>
</radialGradient>
<radialGradient id="paint27_radial_1332_17193" cx="0" cy="0" r="1" gradientUnits="userSpaceOnUse" gradientTransform="translate(958.075 627.079) rotate(-24.3398) scale(494.679 74.5846)">
<stop stop-color="white"/>
<stop offset="1" stop-color="white" stop-opacity="0"/>
</radialGradient>
<radialGradient id="paint28_radial_1332_17193" cx="0" cy="0" r="1" gradientUnits="userSpaceOnUse" gradientTransform="translate(958.196 627.367) rotate(-24.3398) scale(494.542 77.799)">
<stop stop-color="white"/>
<stop offset="1" stop-color="white" stop-opacity="0"/>
</radialGradient>
<radialGradient id="paint29_radial_1332_17193" cx="0" cy="0" r="1" gradientUnits="userSpaceOnUse" gradientTransform="translate(957.982 626.851) rotate(-24.3398) scale(494.404 82.0066)">
<stop stop-color="white"/>
<stop offset="1" stop-color="white" stop-opacity="0"/>
</radialGradient>
<radialGradient id="paint30_radial_1332_17193" cx="0" cy="0" r="1" gradientUnits="userSpaceOnUse" gradientTransform="translate(957.732 626.297) rotate(-24.3398) scale(494.285 86.2922)">
<stop stop-color="white"/>
<stop offset="1" stop-color="white" stop-opacity="0"/>
</radialGradient>
<radialGradient id="paint31_radial_1332_17193" cx="0" cy="0" r="1" gradientUnits="userSpaceOnUse" gradientTransform="translate(957.562 625.901) rotate(-24.3398) scale(494.156 90.5538)">
<stop stop-color="white"/>
<stop offset="1" stop-color="white" stop-opacity="0"/>
</radialGradient>
<radialGradient id="paint32_radial_1332_17193" cx="0" cy="0" r="1" gradientUnits="userSpaceOnUse" gradientTransform="translate(957.381 625.434) rotate(-24.3398) scale(494.018 94.9678)">
<stop stop-color="white"/>
<stop offset="1" stop-color="white" stop-opacity="0"/>
</radialGradient>
<radialGradient id="paint33_radial_1332_17193" cx="0" cy="0" r="1" gradientUnits="userSpaceOnUse" gradientTransform="translate(945 647) rotate(90) scale(294)">
<stop/>
<stop offset="1" stop-opacity="0"/>
</radialGradient>
<radialGradient id="paint34_radial_1332_17193" cx="0" cy="0" r="1" gradientUnits="userSpaceOnUse" gradientTransform="translate(945 647) rotate(90) scale(294)">
<stop/>
<stop offset="1" stop-opacity="0"/>
</radialGradient>
<radialGradient id="paint35_radial_1332_17193" cx="0" cy="0" r="1" gradientUnits="userSpaceOnUse" gradientTransform="translate(945 647) rotate(90) scale(294)">
<stop/>
<stop offset="1" stop-opacity="0"/>
</radialGradient>
<radialGradient id="paint36_radial_1332_17193" cx="0" cy="0" r="1" gradientUnits="userSpaceOnUse" gradientTransform="translate(945 647) rotate(90) scale(294)">
<stop/>
<stop offset="1" stop-opacity="0"/>
</radialGradient>
<clipPath id="clip0_1332_17193">
<rect width="1920" height="1000" fill="white"/>
</clipPath>
</defs>
</svg>
